%TF.GenerationSoftware,KiCad,Pcbnew,(6.0.10)*%
%TF.CreationDate,2023-01-16T11:38:01+01:00*%
%TF.ProjectId,Heart_NE555,48656172-745f-44e4-9535-35352e6b6963,rev?*%
%TF.SameCoordinates,Original*%
%TF.FileFunction,Copper,L2,Bot*%
%TF.FilePolarity,Positive*%
%FSLAX46Y46*%
G04 Gerber Fmt 4.6, Leading zero omitted, Abs format (unit mm)*
G04 Created by KiCad (PCBNEW (6.0.10)) date 2023-01-16 11:38:01*
%MOMM*%
%LPD*%
G01*
G04 APERTURE LIST*
G04 Aperture macros list*
%AMRoundRect*
0 Rectangle with rounded corners*
0 $1 Rounding radius*
0 $2 $3 $4 $5 $6 $7 $8 $9 X,Y pos of 4 corners*
0 Add a 4 corners polygon primitive as box body*
4,1,4,$2,$3,$4,$5,$6,$7,$8,$9,$2,$3,0*
0 Add four circle primitives for the rounded corners*
1,1,$1+$1,$2,$3*
1,1,$1+$1,$4,$5*
1,1,$1+$1,$6,$7*
1,1,$1+$1,$8,$9*
0 Add four rect primitives between the rounded corners*
20,1,$1+$1,$2,$3,$4,$5,0*
20,1,$1+$1,$4,$5,$6,$7,0*
20,1,$1+$1,$6,$7,$8,$9,0*
20,1,$1+$1,$8,$9,$2,$3,0*%
G04 Aperture macros list end*
%TA.AperFunction,SMDPad,CuDef*%
%ADD10RoundRect,0.250000X0.475000X-0.337500X0.475000X0.337500X-0.475000X0.337500X-0.475000X-0.337500X0*%
%TD*%
%TA.AperFunction,SMDPad,CuDef*%
%ADD11R,1.200000X1.200000*%
%TD*%
%TA.AperFunction,SMDPad,CuDef*%
%ADD12RoundRect,0.249999X0.450001X-0.350001X0.450001X0.350001X-0.450001X0.350001X-0.450001X-0.350001X0*%
%TD*%
%TA.AperFunction,SMDPad,CuDef*%
%ADD13RoundRect,0.150000X-0.825000X-0.150000X0.825000X-0.150000X0.825000X0.150000X-0.825000X0.150000X0*%
%TD*%
%TA.AperFunction,SMDPad,CuDef*%
%ADD14R,5.000000X3.600000*%
%TD*%
%TA.AperFunction,SMDPad,CuDef*%
%ADD15RoundRect,0.500000X-1.500000X-0.500000X1.500000X-0.500000X1.500000X0.500000X-1.500000X0.500000X0*%
%TD*%
%TA.AperFunction,SMDPad,CuDef*%
%ADD16R,0.800000X1.300000*%
%TD*%
%TA.AperFunction,SMDPad,CuDef*%
%ADD17RoundRect,0.249999X-0.350001X-0.450001X0.350001X-0.450001X0.350001X0.450001X-0.350001X0.450001X0*%
%TD*%
%TA.AperFunction,SMDPad,CuDef*%
%ADD18R,2.000000X1.300000*%
%TD*%
%TA.AperFunction,SMDPad,CuDef*%
%ADD19R,2.000000X2.000000*%
%TD*%
%TA.AperFunction,SMDPad,CuDef*%
%ADD20R,1.950000X1.100000*%
%TD*%
%TA.AperFunction,SMDPad,CuDef*%
%ADD21RoundRect,0.250000X-0.337500X-0.475000X0.337500X-0.475000X0.337500X0.475000X-0.337500X0.475000X0*%
%TD*%
%TA.AperFunction,ViaPad*%
%ADD22C,0.450000*%
%TD*%
%TA.AperFunction,Conductor*%
%ADD23C,0.200000*%
%TD*%
%TA.AperFunction,Conductor*%
%ADD24C,1.000000*%
%TD*%
G04 APERTURE END LIST*
D10*
%TO.P,C3,1*%
%TO.N,VCC*%
X102616000Y-99843500D03*
%TO.P,C3,2*%
%TO.N,GND*%
X102616000Y-97768500D03*
%TD*%
D11*
%TO.P,D1,1,K*%
%TO.N,Net-(D1-Pad1)*%
X126650000Y-72500000D03*
%TO.P,D1,2,A*%
%TO.N,Net-(D1-Pad2)*%
X123350000Y-72500000D03*
%TD*%
%TO.P,D2,1,K*%
%TO.N,Net-(D2-Pad1)*%
X126650000Y-68250000D03*
%TO.P,D2,2,A*%
%TO.N,Net-(D1-Pad2)*%
X123350000Y-68250000D03*
%TD*%
D12*
%TO.P,R3,1*%
%TO.N,VCC*%
X131000000Y-72000000D03*
%TO.P,R3,2*%
%TO.N,Net-(D1-Pad2)*%
X131000000Y-70000000D03*
%TD*%
%TO.P,R4,1*%
%TO.N,GND*%
X144250000Y-103250000D03*
%TO.P,R4,2*%
%TO.N,/Common-R*%
X144250000Y-101250000D03*
%TD*%
D13*
%TO.P,U1,1,GND*%
%TO.N,GND*%
X104967000Y-95377000D03*
%TO.P,U1,2,TR*%
%TO.N,Net-(R2-Pad2)*%
X104967000Y-94107000D03*
%TO.P,U1,3,Q*%
%TO.N,Net-(D2-Pad1)*%
X104967000Y-92837000D03*
%TO.P,U1,4,R*%
%TO.N,VCC*%
X104967000Y-91567000D03*
%TO.P,U1,5,CV*%
%TO.N,Net-(C2-Pad1)*%
X109917000Y-91567000D03*
%TO.P,U1,6,THR*%
%TO.N,Net-(R2-Pad2)*%
X109917000Y-92837000D03*
%TO.P,U1,7,DIS*%
%TO.N,Net-(R2-Pad1)*%
X109917000Y-94107000D03*
%TO.P,U1,8,VCC*%
%TO.N,VCC*%
X109917000Y-95377000D03*
%TD*%
D14*
%TO.P,BT1,1,+*%
%TO.N,+3V0*%
X110350000Y-86000000D03*
%TO.P,BT1,2,-*%
%TO.N,GND*%
X139650000Y-86000000D03*
%TD*%
D15*
%TO.P,SW1,1*%
%TO.N,+3V0*%
X114000000Y-101000000D03*
%TO.P,SW1,2*%
%TO.N,VCC*%
X136000000Y-101000000D03*
%TD*%
D16*
%TO.P,U2,1,Q5*%
%TO.N,Net-(D10-Pad2)*%
X134800000Y-68600000D03*
%TO.P,U2,2,Q1*%
%TO.N,Net-(D18-Pad2)*%
X136080000Y-68600000D03*
%TO.P,U2,3,Q0*%
%TO.N,Net-(D17-Pad2)*%
X137340000Y-68600000D03*
%TO.P,U2,4,Q2*%
%TO.N,Net-(D19-Pad2)*%
X138610000Y-68600000D03*
%TO.P,U2,5,Q6*%
%TO.N,Net-(D11-Pad2)*%
X139890000Y-68600000D03*
%TO.P,U2,6,Q7*%
%TO.N,Net-(D12-Pad2)*%
X141160000Y-68600000D03*
%TO.P,U2,7,Q3*%
%TO.N,Net-(D20-Pad2)*%
X142420000Y-68600000D03*
%TO.P,U2,8,VSS*%
%TO.N,GND*%
X143700000Y-68600000D03*
%TO.P,U2,9,Q8*%
%TO.N,Net-(D13-Pad2)*%
X143700000Y-74900000D03*
%TO.P,U2,10,Q4*%
%TO.N,Net-(D21-Pad2)*%
X142420000Y-74900000D03*
%TO.P,U2,11,Q9*%
%TO.N,Net-(D1-Pad1)*%
X141160000Y-74900000D03*
%TO.P,U2,12,Cout*%
%TO.N,unconnected-(U2-Pad12)*%
X139890000Y-74900000D03*
%TO.P,U2,13,CKEN*%
%TO.N,Net-(D1-Pad1)*%
X138610000Y-74900000D03*
%TO.P,U2,14,CLK*%
%TO.N,Net-(D2-Pad1)*%
X137340000Y-74900000D03*
%TO.P,U2,15,Reset*%
%TO.N,Net-(U2-Pad15)*%
X136080000Y-74900000D03*
%TO.P,U2,16,VDD*%
%TO.N,VCC*%
X134800000Y-74900000D03*
%TD*%
%TO.P,U3,1,Q5*%
%TO.N,unconnected-(U3-Pad1)*%
X106050000Y-68600000D03*
%TO.P,U3,2,Q1*%
%TO.N,Net-(D14-Pad2)*%
X107330000Y-68600000D03*
%TO.P,U3,3,Q0*%
%TO.N,unconnected-(U3-Pad3)*%
X108590000Y-68600000D03*
%TO.P,U3,4,Q2*%
%TO.N,Net-(D15-Pad2)*%
X109860000Y-68600000D03*
%TO.P,U3,5,Q6*%
%TO.N,unconnected-(U3-Pad5)*%
X111140000Y-68600000D03*
%TO.P,U3,6,Q7*%
%TO.N,unconnected-(U3-Pad6)*%
X112410000Y-68600000D03*
%TO.P,U3,7,Q3*%
%TO.N,Net-(D16-Pad2)*%
X113670000Y-68600000D03*
%TO.P,U3,8,VSS*%
%TO.N,GND*%
X114950000Y-68600000D03*
%TO.P,U3,9,Q8*%
%TO.N,unconnected-(U3-Pad9)*%
X114950000Y-74900000D03*
%TO.P,U3,10,Q4*%
%TO.N,Net-(U2-Pad15)*%
X113670000Y-74900000D03*
%TO.P,U3,11,Q9*%
%TO.N,unconnected-(U3-Pad11)*%
X112410000Y-74900000D03*
%TO.P,U3,12,Cout*%
%TO.N,unconnected-(U3-Pad12)*%
X111140000Y-74900000D03*
%TO.P,U3,13,CKEN*%
%TO.N,GND*%
X109860000Y-74900000D03*
%TO.P,U3,14,CLK*%
%TO.N,Net-(D1-Pad2)*%
X108590000Y-74900000D03*
%TO.P,U3,15,Reset*%
%TO.N,Net-(D17-Pad2)*%
X107330000Y-74900000D03*
%TO.P,U3,16,VDD*%
%TO.N,VCC*%
X106050000Y-74900000D03*
%TD*%
D17*
%TO.P,R2,1*%
%TO.N,Net-(R2-Pad1)*%
X113554000Y-96266000D03*
%TO.P,R2,2*%
%TO.N,Net-(R2-Pad2)*%
X115554000Y-96266000D03*
%TD*%
D10*
%TO.P,C2,1*%
%TO.N,Net-(C2-Pad1)*%
X105675000Y-89425000D03*
%TO.P,C2,2*%
%TO.N,GND*%
X105675000Y-87350000D03*
%TD*%
D18*
%TO.P,RV1,1,1*%
%TO.N,Net-(R2-Pad1)*%
X146500000Y-81150000D03*
D19*
%TO.P,RV1,2,2*%
%TO.N,VCC*%
X142500000Y-80000000D03*
D18*
%TO.P,RV1,3,3*%
%TO.N,unconnected-(RV1-Pad3)*%
X146500000Y-78850000D03*
%TD*%
D20*
%TO.P,SW2,1,A*%
%TO.N,Net-(C4-Pad1)*%
X140350000Y-96450000D03*
X146000000Y-96450000D03*
%TO.P,SW2,2,B*%
%TO.N,Net-(R2-Pad2)*%
X146000000Y-93950000D03*
X140350000Y-93950000D03*
%TO.P,SW2,3,C*%
%TO.N,Net-(C1-Pad1)*%
X146000000Y-91450000D03*
X140350000Y-91450000D03*
%TD*%
D21*
%TO.P,C1,1*%
%TO.N,Net-(C1-Pad1)*%
X143962500Y-88000000D03*
%TO.P,C1,2*%
%TO.N,GND*%
X146037500Y-88000000D03*
%TD*%
%TO.P,C4,1*%
%TO.N,Net-(C4-Pad1)*%
X143962500Y-85000000D03*
%TO.P,C4,2*%
%TO.N,GND*%
X146037500Y-85000000D03*
%TD*%
D22*
%TO.N,+3V0*%
X120000000Y-93000000D03*
X120000000Y-90000000D03*
%TO.N,VCC*%
X110775000Y-77175000D03*
X136000000Y-87000000D03*
X123000000Y-103000000D03*
X126820000Y-103000000D03*
X107500000Y-77200000D03*
X134750000Y-82000000D03*
%TO.N,Net-(D10-Pad2)*%
X136000000Y-85501351D03*
X121150000Y-83150000D03*
X135125000Y-70225000D03*
%TO.N,Net-(D11-Pad2)*%
X132520000Y-85480000D03*
X120250000Y-83200000D03*
X143666268Y-72491268D03*
%TO.N,Net-(D12-Pad2)*%
X139746565Y-70750000D03*
X139425000Y-69700000D03*
X141175000Y-68425000D03*
X134112000Y-76454000D03*
X125984000Y-78994000D03*
%TO.N,Net-(D13-Pad2)*%
X134075000Y-78650000D03*
X143771232Y-73871232D03*
X123698000Y-83820000D03*
X143350000Y-77250000D03*
%TO.N,Net-(D14-Pad2)*%
X128366261Y-66866261D03*
X134000000Y-67025000D03*
X107175000Y-68375000D03*
X108100000Y-66894990D03*
%TO.N,Net-(D15-Pad2)*%
X103900000Y-83500000D03*
X121666000Y-67190000D03*
X135000000Y-67524998D03*
X133140000Y-68470000D03*
%TO.N,Net-(D16-Pad2)*%
X123698000Y-69850000D03*
X126770000Y-90080000D03*
X124190000Y-92690000D03*
%TO.N,Net-(D17-Pad2)*%
X108375000Y-73350000D03*
X117348000Y-71120000D03*
X138050000Y-66525000D03*
X136725000Y-71225000D03*
X129900000Y-72600000D03*
X125775014Y-75000000D03*
X119126000Y-71120000D03*
%TO.N,Net-(D18-Pad2)*%
X136815000Y-67275000D03*
X130300000Y-66880000D03*
%TO.N,Net-(D19-Pad2)*%
X139100000Y-67750000D03*
X120300000Y-99590000D03*
X118040000Y-99610000D03*
%TO.N,Net-(D20-Pad2)*%
X115316000Y-70075017D03*
X133096000Y-90678000D03*
X131572000Y-90678000D03*
X116840000Y-70104000D03*
X142900000Y-70000000D03*
X106090000Y-73330000D03*
X107954883Y-69610642D03*
%TO.N,Net-(D21-Pad2)*%
X123952000Y-80010000D03*
X140800000Y-77450000D03*
X134050000Y-77800000D03*
X145525000Y-71375000D03*
%TO.N,Net-(U2-Pad15)*%
X116750000Y-77825000D03*
X135625014Y-75320000D03*
X115675000Y-76000000D03*
X129150000Y-76000000D03*
%TO.N,/Common-R*%
X142400000Y-99400000D03*
%TO.N,Net-(D2-Pad1)*%
X134050000Y-70200000D03*
X135600000Y-73000000D03*
X110820000Y-66020000D03*
X114560000Y-66000000D03*
%TO.N,Net-(R2-Pad1)*%
X136000000Y-82750000D03*
X134500000Y-86750000D03*
%TD*%
D23*
%TO.N,+3V0*%
X120000000Y-88800000D02*
X117200000Y-86000000D01*
X117200000Y-86000000D02*
X110350000Y-86000000D01*
X120000000Y-90000000D02*
X120000000Y-88800000D01*
X120000000Y-95000000D02*
X120000000Y-93000000D01*
X114000000Y-101000000D02*
X120000000Y-95000000D01*
%TO.N,Net-(C1-Pad1)*%
X146000000Y-90037500D02*
X143962500Y-88000000D01*
X140512500Y-91450000D02*
X143962500Y-88000000D01*
X140350000Y-91450000D02*
X140512500Y-91450000D01*
X146000000Y-91450000D02*
X146000000Y-90037500D01*
%TO.N,Net-(C2-Pad1)*%
X109917000Y-91567000D02*
X108563500Y-91567000D01*
X107817000Y-91567000D02*
X105675000Y-89425000D01*
X109917000Y-91567000D02*
X107817000Y-91567000D01*
%TO.N,VCC*%
X104967000Y-75983000D02*
X106050000Y-74900000D01*
X127625022Y-75974978D02*
X131000000Y-72600000D01*
X134750000Y-82000000D02*
X136000000Y-80750000D01*
X131000000Y-72000000D02*
X131900000Y-72000000D01*
X125771590Y-77175000D02*
X126971612Y-75974978D01*
X102616000Y-99843500D02*
X104939500Y-99843500D01*
D24*
X138000000Y-80000000D02*
X136000000Y-78000000D01*
D23*
X134800000Y-76800000D02*
X134800000Y-74900000D01*
X131000000Y-72600000D02*
X131000000Y-72000000D01*
X126971612Y-75974978D02*
X127625022Y-75974978D01*
X136000000Y-80750000D02*
X136000000Y-78000000D01*
X128820000Y-101000000D02*
X136000000Y-101000000D01*
X104939500Y-99843500D02*
X107188000Y-102092000D01*
X104649990Y-91249990D02*
X104649990Y-76300010D01*
X123000000Y-103000000D02*
X108096000Y-103000000D01*
D24*
X142500000Y-80000000D02*
X138000000Y-80000000D01*
D23*
X136000000Y-78000000D02*
X135875000Y-77875000D01*
X131900000Y-72000000D02*
X134800000Y-74900000D01*
X110775000Y-77175000D02*
X125771590Y-77175000D01*
X126820000Y-103000000D02*
X128820000Y-101000000D01*
X108096000Y-103000000D02*
X107188000Y-102092000D01*
X104967000Y-91567000D02*
X104649990Y-91249990D01*
X107188000Y-102092000D02*
X109917000Y-99363000D01*
X135875000Y-77875000D02*
X134800000Y-76800000D01*
X109917000Y-99363000D02*
X109917000Y-95377000D01*
X136000000Y-101000000D02*
X136000000Y-87000000D01*
X106050000Y-75750000D02*
X107500000Y-77200000D01*
X104649990Y-76300010D02*
X106050000Y-74900000D01*
X106050000Y-74900000D02*
X106050000Y-75750000D01*
%TO.N,Net-(D10-Pad2)*%
X135125000Y-70225000D02*
X135125000Y-68925000D01*
X135433647Y-84934998D02*
X122934998Y-84934998D01*
X136000000Y-85501351D02*
X135433647Y-84934998D01*
X135125000Y-68925000D02*
X134800000Y-68600000D01*
X122934998Y-84934998D02*
X121150000Y-83150000D01*
%TO.N,Net-(D11-Pad2)*%
X139890000Y-69450000D02*
X139890000Y-68600000D01*
X142374999Y-71199999D02*
X141639999Y-71199999D01*
X143666268Y-72491268D02*
X142374999Y-71199999D01*
X122530000Y-85480000D02*
X132520000Y-85480000D01*
X120250000Y-83200000D02*
X122530000Y-85480000D01*
X141639999Y-71199999D02*
X139890000Y-69450000D01*
%TO.N,Net-(D12-Pad2)*%
X139746565Y-70750000D02*
X139746565Y-70021565D01*
X141175000Y-68585000D02*
X141160000Y-68600000D01*
X141175000Y-68425000D02*
X141175000Y-68585000D01*
X134112000Y-76454000D02*
X131572000Y-78994000D01*
X139746565Y-70021565D02*
X139425000Y-69700000D01*
X131572000Y-78994000D02*
X125984000Y-78994000D01*
%TO.N,Net-(D13-Pad2)*%
X128905000Y-83820000D02*
X123698000Y-83820000D01*
X143350000Y-77250000D02*
X143700000Y-76900000D01*
X134075000Y-78650000D02*
X128905000Y-83820000D01*
X143771232Y-74828768D02*
X143700000Y-74900000D01*
X143700000Y-76900000D02*
X143700000Y-74900000D01*
X143771232Y-73871232D02*
X143771232Y-74828768D01*
%TO.N,Net-(D14-Pad2)*%
X133619998Y-67405002D02*
X128905002Y-67405002D01*
X134000000Y-67025000D02*
X133619998Y-67405002D01*
X107175000Y-68375000D02*
X107175000Y-68445000D01*
X128905002Y-67405002D02*
X128366261Y-66866261D01*
X107330000Y-68600000D02*
X107330000Y-67664990D01*
X107330000Y-67664990D02*
X108100000Y-66894990D01*
X107175000Y-68445000D02*
X107330000Y-68600000D01*
%TO.N,Net-(D15-Pad2)*%
X135000000Y-67524998D02*
X134277004Y-67524998D01*
X109860000Y-67750000D02*
X108479989Y-66369989D01*
X134277004Y-67524998D02*
X133332002Y-68470000D01*
X121347802Y-67190000D02*
X121666000Y-67190000D01*
X103900000Y-68265698D02*
X103900000Y-83500000D01*
X133332002Y-68470000D02*
X133140000Y-68470000D01*
X105795709Y-66369989D02*
X103900000Y-68265698D01*
X108479989Y-66369989D02*
X105795709Y-66369989D01*
X109860000Y-67750000D02*
X110420000Y-67190000D01*
X109860000Y-68600000D02*
X109860000Y-67750000D01*
X110420000Y-67190000D02*
X121347802Y-67190000D01*
%TO.N,Net-(D16-Pad2)*%
X126770000Y-90110000D02*
X126770000Y-90080000D01*
X123398001Y-69550001D02*
X123698000Y-69850000D01*
X113670000Y-69450000D02*
X113770001Y-69550001D01*
X113670000Y-68600000D02*
X113670000Y-69450000D01*
X113770001Y-69550001D02*
X123398001Y-69550001D01*
X124190000Y-92690000D02*
X126770000Y-90110000D01*
%TO.N,Net-(D17-Pad2)*%
X137340000Y-70610000D02*
X136725000Y-71225000D01*
X137340000Y-68600000D02*
X137340000Y-70610000D01*
X117348000Y-71120000D02*
X119126000Y-71120000D01*
X107330000Y-74395000D02*
X107330000Y-74900000D01*
X108375000Y-73350000D02*
X107330000Y-74395000D01*
X138050000Y-66525000D02*
X137340000Y-67235000D01*
X137340000Y-67235000D02*
X137340000Y-68600000D01*
X127500000Y-75000000D02*
X129900000Y-72600000D01*
X125775014Y-75000000D02*
X127500000Y-75000000D01*
%TO.N,Net-(D18-Pad2)*%
X136815000Y-67275000D02*
X136080000Y-68010000D01*
X136080000Y-68010000D02*
X136080000Y-68600000D01*
X134615001Y-66285001D02*
X130894999Y-66285001D01*
X130894999Y-66285001D02*
X130300000Y-66880000D01*
X136080000Y-67750000D02*
X134615001Y-66285001D01*
X136080000Y-68600000D02*
X136080000Y-67750000D01*
%TO.N,Net-(D19-Pad2)*%
X139100000Y-67750000D02*
X139100000Y-68110000D01*
X139100000Y-68110000D02*
X138610000Y-68600000D01*
X120300000Y-99590000D02*
X118060000Y-99590000D01*
X118060000Y-99590000D02*
X118040000Y-99610000D01*
%TO.N,Net-(D20-Pad2)*%
X142900000Y-69080000D02*
X142420000Y-68600000D01*
X133096000Y-90678000D02*
X131572000Y-90678000D01*
X106090000Y-73330000D02*
X106090000Y-71475525D01*
X106090000Y-71475525D02*
X107954883Y-69610642D01*
X116811017Y-70075017D02*
X116840000Y-70104000D01*
X142900000Y-70000000D02*
X142900000Y-69080000D01*
X115316000Y-70075017D02*
X116811017Y-70075017D01*
%TO.N,Net-(D21-Pad2)*%
X145525000Y-71375000D02*
X142420000Y-74480000D01*
X134050000Y-77800000D02*
X131840000Y-80010000D01*
X142420000Y-74480000D02*
X142420000Y-74900000D01*
X140800000Y-77450000D02*
X142420000Y-75830000D01*
X131840000Y-80010000D02*
X123952000Y-80010000D01*
X142420000Y-75830000D02*
X142420000Y-74900000D01*
%TO.N,Net-(U2-Pad15)*%
X136080000Y-74900000D02*
X135660000Y-75320000D01*
X127137301Y-76374989D02*
X125687290Y-77825000D01*
X128775011Y-76374989D02*
X127137301Y-76374989D01*
X129150000Y-76000000D02*
X128775011Y-76374989D01*
X113670000Y-75750000D02*
X113920000Y-76000000D01*
X113670000Y-74900000D02*
X113670000Y-75750000D01*
X113920000Y-76000000D02*
X115675000Y-76000000D01*
X125687290Y-77825000D02*
X116750000Y-77825000D01*
X135660000Y-75320000D02*
X135625014Y-75320000D01*
%TO.N,Net-(C4-Pad1)*%
X146006250Y-86025000D02*
X144987500Y-86025000D01*
X148000000Y-94450000D02*
X148000000Y-88018750D01*
X144987500Y-86025000D02*
X143962500Y-85000000D01*
X146000000Y-96450000D02*
X148000000Y-94450000D01*
X148000000Y-88018750D02*
X146006250Y-86025000D01*
X146000000Y-96450000D02*
X140350000Y-96450000D01*
%TO.N,Net-(D1-Pad1)*%
X135129992Y-71099990D02*
X128050010Y-71099990D01*
X128050010Y-71099990D02*
X126650000Y-72500000D01*
X138610000Y-74900000D02*
X138610000Y-74579998D01*
X138610000Y-74900000D02*
X138610000Y-74050000D01*
X141160000Y-74050000D02*
X141160000Y-74900000D01*
X139260000Y-73400000D02*
X140510000Y-73400000D01*
X140510000Y-73400000D02*
X141160000Y-74050000D01*
X138610000Y-74050000D02*
X139260000Y-73400000D01*
X138610000Y-74810000D02*
X138610000Y-74900000D01*
X138610000Y-74579998D02*
X135129992Y-71099990D01*
%TO.N,Net-(D1-Pad2)*%
X123350000Y-71650000D02*
X125050000Y-69950000D01*
X108590000Y-74900000D02*
X108590000Y-74579998D01*
X110669998Y-72500000D02*
X123350000Y-72500000D01*
X123350000Y-72500000D02*
X123350000Y-71650000D01*
X108590000Y-74579998D02*
X110669998Y-72500000D01*
X131000000Y-70000000D02*
X125100000Y-70000000D01*
X125100000Y-70000000D02*
X125050000Y-69950000D01*
X125050000Y-69950000D02*
X123350000Y-68250000D01*
%TO.N,/Common-R*%
X144250000Y-101250000D02*
X142400000Y-99400000D01*
%TO.N,Net-(D2-Pad1)*%
X126650000Y-68250000D02*
X131020002Y-68250000D01*
X103992000Y-92837000D02*
X104967000Y-92837000D01*
X131020002Y-68250000D02*
X132100000Y-68250000D01*
X124400000Y-66000000D02*
X126650000Y-68250000D01*
X137340000Y-74569998D02*
X137340000Y-74900000D01*
X135918198Y-73000000D02*
X137340000Y-74421802D01*
X103375000Y-68225000D02*
X103375000Y-92220000D01*
X110595001Y-65795001D02*
X105804997Y-65795001D01*
X132100000Y-68250000D02*
X134050000Y-70200000D01*
X135600000Y-73000000D02*
X135918198Y-73000000D01*
X124400000Y-66000000D02*
X114560000Y-66000000D01*
X110820000Y-66020000D02*
X110595001Y-65795001D01*
X137340000Y-74421802D02*
X137340000Y-74900000D01*
X103375000Y-92220000D02*
X103992000Y-92837000D01*
X105804997Y-65795001D02*
X103375000Y-68225000D01*
%TO.N,Net-(R2-Pad2)*%
X115554000Y-96266000D02*
X112125000Y-92837000D01*
X136500000Y-90100000D02*
X140350000Y-93950000D01*
X136525000Y-86050862D02*
X136525000Y-87217463D01*
X107212000Y-92837000D02*
X109917000Y-92837000D01*
X115554000Y-95446000D02*
X124974138Y-86025862D01*
X104967000Y-94107000D02*
X105942000Y-94107000D01*
X104967000Y-94107000D02*
X103992000Y-94107000D01*
X124974138Y-86025862D02*
X136500000Y-86025862D01*
X115554000Y-96266000D02*
X115554000Y-95446000D01*
X105942000Y-94107000D02*
X107212000Y-92837000D01*
X136500000Y-87242463D02*
X136500000Y-90100000D01*
X112125000Y-92837000D02*
X109917000Y-92837000D01*
X136525000Y-87217463D02*
X136500000Y-87242463D01*
X136500000Y-86025862D02*
X136525000Y-86050862D01*
X146000000Y-93950000D02*
X140350000Y-93950000D01*
%TO.N,Net-(R2-Pad1)*%
X138250000Y-82750000D02*
X138500000Y-82500000D01*
X109917000Y-94107000D02*
X111395000Y-94107000D01*
X109575588Y-94107000D02*
X109917000Y-94107000D01*
D24*
X145350000Y-81150000D02*
X144000000Y-82500000D01*
X144000000Y-82500000D02*
X138500000Y-82500000D01*
D23*
X111395000Y-94107000D02*
X113554000Y-96266000D01*
X134250000Y-87000000D02*
X134500000Y-86750000D01*
X113554000Y-96266000D02*
X113554000Y-96554000D01*
X119250000Y-93007537D02*
X125257537Y-87000000D01*
X119250000Y-95000000D02*
X119250000Y-93007537D01*
X115250000Y-98250000D02*
X116000000Y-98250000D01*
X116000000Y-98250000D02*
X119250000Y-95000000D01*
X136000000Y-82750000D02*
X138250000Y-82750000D01*
X113554000Y-96554000D02*
X115250000Y-98250000D01*
X125257537Y-87000000D02*
X134250000Y-87000000D01*
D24*
X146500000Y-81150000D02*
X145350000Y-81150000D01*
%TD*%
%TA.AperFunction,Conductor*%
%TO.N,GND*%
G36*
X148980242Y-65202466D02*
G01*
X148985811Y-65202476D01*
X148999641Y-65205656D01*
X149013482Y-65202524D01*
X149014605Y-65202526D01*
X149026731Y-65203133D01*
X149081618Y-65208539D01*
X149143626Y-65214646D01*
X149167848Y-65219464D01*
X149294085Y-65257757D01*
X149316897Y-65267206D01*
X149363623Y-65292182D01*
X149433232Y-65329389D01*
X149453770Y-65343112D01*
X149555739Y-65426796D01*
X149573204Y-65444261D01*
X149656888Y-65546230D01*
X149670610Y-65566766D01*
X149732793Y-65683102D01*
X149742242Y-65705912D01*
X149780538Y-65832156D01*
X149785354Y-65856373D01*
X149796917Y-65973770D01*
X149797503Y-65985905D01*
X149794344Y-65999641D01*
X149797475Y-66013480D01*
X149797467Y-66018310D01*
X149799500Y-66036504D01*
X149799500Y-103962920D01*
X149797534Y-103980242D01*
X149797524Y-103985811D01*
X149794344Y-103999641D01*
X149797476Y-104013482D01*
X149797474Y-104014605D01*
X149796867Y-104026736D01*
X149785354Y-104143626D01*
X149780536Y-104167848D01*
X149742243Y-104294085D01*
X149732793Y-104316898D01*
X149670611Y-104433232D01*
X149656888Y-104453770D01*
X149573204Y-104555739D01*
X149555739Y-104573204D01*
X149453770Y-104656888D01*
X149433234Y-104670610D01*
X149316898Y-104732793D01*
X149294088Y-104742242D01*
X149167844Y-104780538D01*
X149143627Y-104785354D01*
X149118814Y-104787798D01*
X149026230Y-104796917D01*
X149014095Y-104797503D01*
X149000359Y-104794344D01*
X148986520Y-104797475D01*
X148981690Y-104797467D01*
X148963496Y-104799500D01*
X101037080Y-104799500D01*
X101019758Y-104797534D01*
X101014189Y-104797524D01*
X101000359Y-104794344D01*
X100986518Y-104797476D01*
X100985395Y-104797474D01*
X100973269Y-104796867D01*
X100918382Y-104791461D01*
X100856374Y-104785354D01*
X100832152Y-104780536D01*
X100705915Y-104742243D01*
X100683102Y-104732793D01*
X100566766Y-104670610D01*
X100546230Y-104656888D01*
X100444261Y-104573204D01*
X100426796Y-104555739D01*
X100343112Y-104453770D01*
X100329389Y-104433232D01*
X100267207Y-104316898D01*
X100257758Y-104294088D01*
X100219462Y-104167844D01*
X100214646Y-104143626D01*
X100203860Y-104034114D01*
X100204078Y-104007523D01*
X100205655Y-104000718D01*
X100205656Y-104000000D01*
X100203654Y-103991225D01*
X100200500Y-103963210D01*
X100200500Y-102968440D01*
X100794770Y-102968440D01*
X100796107Y-102988837D01*
X100809200Y-103188604D01*
X100810621Y-103194200D01*
X100810622Y-103194205D01*
X100857809Y-103380000D01*
X100863511Y-103402452D01*
X100865928Y-103407694D01*
X100865928Y-103407695D01*
X100902862Y-103487811D01*
X100955883Y-103602821D01*
X101083222Y-103783002D01*
X101241264Y-103936961D01*
X101246060Y-103940166D01*
X101246063Y-103940168D01*
X101351343Y-104010513D01*
X101424717Y-104059540D01*
X101430020Y-104061818D01*
X101430023Y-104061820D01*
X101620432Y-104143626D01*
X101627436Y-104146635D01*
X101668713Y-104155975D01*
X101836995Y-104194054D01*
X101837001Y-104194055D01*
X101842632Y-104195329D01*
X101848403Y-104195556D01*
X101848405Y-104195556D01*
X101916211Y-104198220D01*
X102063098Y-104203991D01*
X102172275Y-104188161D01*
X102275738Y-104173160D01*
X102275743Y-104173159D01*
X102281452Y-104172331D01*
X102286916Y-104170476D01*
X102286921Y-104170475D01*
X102484907Y-104103268D01*
X102484912Y-104103266D01*
X102490379Y-104101410D01*
X102499233Y-104096452D01*
X102588324Y-104046558D01*
X102682884Y-103993602D01*
X102702369Y-103977397D01*
X102848086Y-103856204D01*
X102852518Y-103852518D01*
X102906985Y-103787029D01*
X102989908Y-103687326D01*
X102989910Y-103687323D01*
X102993602Y-103682884D01*
X103014899Y-103644855D01*
X143290001Y-103644855D01*
X143290371Y-103651676D01*
X143295922Y-103702787D01*
X143299548Y-103718039D01*
X143344904Y-103839025D01*
X143353442Y-103854620D01*
X143430286Y-103957153D01*
X143442847Y-103969714D01*
X143545380Y-104046558D01*
X143560975Y-104055096D01*
X143681959Y-104100451D01*
X143697215Y-104104079D01*
X143748326Y-104109631D01*
X143755143Y-104110000D01*
X144101885Y-104110000D01*
X144117124Y-104105525D01*
X144118329Y-104104135D01*
X144120000Y-104096452D01*
X144120000Y-104091884D01*
X144380000Y-104091884D01*
X144384475Y-104107123D01*
X144385865Y-104108328D01*
X144393548Y-104109999D01*
X144744855Y-104109999D01*
X144751676Y-104109629D01*
X144802787Y-104104078D01*
X144818039Y-104100452D01*
X144939025Y-104055096D01*
X144954620Y-104046558D01*
X145057153Y-103969714D01*
X145069714Y-103957153D01*
X145146558Y-103854620D01*
X145155096Y-103839025D01*
X145200451Y-103718041D01*
X145204079Y-103702785D01*
X145209631Y-103651674D01*
X145210000Y-103644857D01*
X145210000Y-103398115D01*
X145205525Y-103382876D01*
X145204135Y-103381671D01*
X145196452Y-103380000D01*
X144398115Y-103380000D01*
X144382876Y-103384475D01*
X144381671Y-103385865D01*
X144380000Y-103393548D01*
X144380000Y-104091884D01*
X144120000Y-104091884D01*
X144120000Y-103398115D01*
X144115525Y-103382876D01*
X144114135Y-103381671D01*
X144106452Y-103380000D01*
X143308116Y-103380000D01*
X143292877Y-103384475D01*
X143291672Y-103385865D01*
X143290001Y-103393548D01*
X143290001Y-103644855D01*
X103014899Y-103644855D01*
X103101410Y-103490379D01*
X103103266Y-103484912D01*
X103103268Y-103484907D01*
X103170475Y-103286921D01*
X103170476Y-103286916D01*
X103172331Y-103281452D01*
X103173159Y-103275743D01*
X103173160Y-103275738D01*
X103195257Y-103123334D01*
X103203991Y-103063098D01*
X103205643Y-103000000D01*
X103185454Y-102780289D01*
X103178495Y-102755612D01*
X103151102Y-102658483D01*
X103125565Y-102567936D01*
X103027980Y-102370053D01*
X102895967Y-102193267D01*
X102741220Y-102050220D01*
X102738189Y-102047418D01*
X102738186Y-102047416D01*
X102733949Y-102043499D01*
X102547350Y-101925764D01*
X102342421Y-101844006D01*
X102336761Y-101842880D01*
X102336757Y-101842879D01*
X102131691Y-101802089D01*
X102131688Y-101802089D01*
X102126024Y-101800962D01*
X102120249Y-101800886D01*
X102120245Y-101800886D01*
X102009504Y-101799437D01*
X101905406Y-101798074D01*
X101899709Y-101799053D01*
X101899708Y-101799053D01*
X101693654Y-101834459D01*
X101693653Y-101834459D01*
X101687957Y-101835438D01*
X101480957Y-101911804D01*
X101475996Y-101914756D01*
X101475995Y-101914756D01*
X101337694Y-101997037D01*
X101291341Y-102024614D01*
X101125457Y-102170090D01*
X100988863Y-102343360D01*
X100886131Y-102538620D01*
X100820703Y-102749333D01*
X100794770Y-102968440D01*
X100200500Y-102968440D01*
X100200500Y-100234834D01*
X101690500Y-100234834D01*
X101693481Y-100266369D01*
X101738366Y-100394184D01*
X101743958Y-100401754D01*
X101743959Y-100401757D01*
X101779223Y-100449500D01*
X101818850Y-100503150D01*
X101826421Y-100508742D01*
X101920243Y-100578041D01*
X101920246Y-100578042D01*
X101927816Y-100583634D01*
X102055631Y-100628519D01*
X102063277Y-100629242D01*
X102063278Y-100629242D01*
X102069248Y-100629806D01*
X102087166Y-100631500D01*
X103144834Y-100631500D01*
X103162752Y-100629806D01*
X103168722Y-100629242D01*
X103168723Y-100629242D01*
X103176369Y-100628519D01*
X103304184Y-100583634D01*
X103311754Y-100578042D01*
X103311757Y-100578041D01*
X103405579Y-100508742D01*
X103413150Y-100503150D01*
X103452777Y-100449500D01*
X103488041Y-100401757D01*
X103488042Y-100401754D01*
X103493634Y-100394184D01*
X103538519Y-100266369D01*
X103539243Y-100258715D01*
X103539298Y-100258138D01*
X103539458Y-100257737D01*
X103540887Y-100251224D01*
X103541964Y-100251460D01*
X103565624Y-100192202D01*
X103623419Y-100150968D01*
X103664738Y-100144000D01*
X104762839Y-100144000D01*
X104830960Y-100164002D01*
X104851934Y-100180905D01*
X106938482Y-102267454D01*
X106946254Y-102276024D01*
X106951771Y-102286040D01*
X106980269Y-102309995D01*
X106980841Y-102310476D01*
X106988860Y-102317832D01*
X106995276Y-102324248D01*
X106995278Y-102324249D01*
X107846481Y-103175452D01*
X107848237Y-103177486D01*
X107850575Y-103182269D01*
X107859104Y-103190181D01*
X107859105Y-103190182D01*
X107886477Y-103215573D01*
X107889882Y-103218853D01*
X107903277Y-103232248D01*
X107907247Y-103234972D01*
X107909895Y-103237297D01*
X107932646Y-103258401D01*
X107943453Y-103262713D01*
X107947438Y-103265232D01*
X107958247Y-103271004D01*
X107962552Y-103272911D01*
X107972146Y-103279493D01*
X107996099Y-103285177D01*
X107996136Y-103285186D01*
X108013732Y-103290751D01*
X108036622Y-103299883D01*
X108042915Y-103300500D01*
X108045997Y-103300500D01*
X108049067Y-103300650D01*
X108049056Y-103300866D01*
X108060431Y-103302198D01*
X108069745Y-103302653D01*
X108081066Y-103305340D01*
X108092595Y-103303771D01*
X108092596Y-103303771D01*
X108108173Y-103301651D01*
X108125164Y-103300500D01*
X122646562Y-103300500D01*
X122714683Y-103320502D01*
X122735657Y-103337405D01*
X122746780Y-103348528D01*
X122866874Y-103409719D01*
X122876663Y-103411269D01*
X122876665Y-103411270D01*
X122990207Y-103429253D01*
X123000000Y-103430804D01*
X123009793Y-103429253D01*
X123123335Y-103411270D01*
X123123337Y-103411269D01*
X123133126Y-103409719D01*
X123253220Y-103348528D01*
X123348528Y-103253220D01*
X123409719Y-103133126D01*
X123412254Y-103117124D01*
X123429253Y-103009793D01*
X123430804Y-103000000D01*
X123426719Y-102974206D01*
X123411270Y-102876665D01*
X123411269Y-102876663D01*
X123409719Y-102866874D01*
X123348528Y-102746780D01*
X123253220Y-102651472D01*
X123133126Y-102590281D01*
X123123337Y-102588731D01*
X123123335Y-102588730D01*
X123009793Y-102570747D01*
X123000000Y-102569196D01*
X122990207Y-102570747D01*
X122876665Y-102588730D01*
X122876663Y-102588731D01*
X122866874Y-102590281D01*
X122746780Y-102651472D01*
X122735657Y-102662595D01*
X122673345Y-102696621D01*
X122646562Y-102699500D01*
X108272661Y-102699500D01*
X108204540Y-102679498D01*
X108183566Y-102662595D01*
X107702066Y-102181095D01*
X107668040Y-102118783D01*
X107673105Y-102047968D01*
X107702066Y-102002905D01*
X110092452Y-99612519D01*
X110094486Y-99610763D01*
X110099269Y-99608425D01*
X110107277Y-99599793D01*
X110132573Y-99572523D01*
X110135853Y-99569118D01*
X110149248Y-99555723D01*
X110151972Y-99551753D01*
X110154297Y-99549105D01*
X110162994Y-99539729D01*
X110175401Y-99526354D01*
X110179713Y-99515547D01*
X110182232Y-99511562D01*
X110188004Y-99500753D01*
X110189911Y-99496448D01*
X110196493Y-99486854D01*
X110202186Y-99462864D01*
X110207751Y-99445268D01*
X110213586Y-99430642D01*
X110216883Y-99422378D01*
X110217500Y-99416085D01*
X110217500Y-99413003D01*
X110217650Y-99409933D01*
X110217866Y-99409944D01*
X110219198Y-99398569D01*
X110219653Y-99389255D01*
X110222340Y-99377934D01*
X110218651Y-99350827D01*
X110217500Y-99333836D01*
X110217500Y-96003500D01*
X110237502Y-95935379D01*
X110291158Y-95888886D01*
X110343500Y-95877500D01*
X110775218Y-95877500D01*
X110779768Y-95876830D01*
X110779771Y-95876830D01*
X110834426Y-95868784D01*
X110834427Y-95868784D01*
X110844112Y-95867358D01*
X110934154Y-95823150D01*
X110939507Y-95820522D01*
X110939509Y-95820521D01*
X110948855Y-95815932D01*
X111009246Y-95755436D01*
X111023935Y-95740721D01*
X111023935Y-95740720D01*
X111031293Y-95733350D01*
X111036165Y-95723384D01*
X111074242Y-95645485D01*
X111082536Y-95628518D01*
X111092500Y-95560218D01*
X111092500Y-95193782D01*
X111086115Y-95150405D01*
X111083784Y-95134574D01*
X111083784Y-95134573D01*
X111082358Y-95124888D01*
X111047105Y-95053085D01*
X111035522Y-95029493D01*
X111035521Y-95029491D01*
X111030932Y-95020145D01*
X110948350Y-94937707D01*
X110843518Y-94886464D01*
X110813027Y-94882016D01*
X110779744Y-94877160D01*
X110779740Y-94877160D01*
X110775218Y-94876500D01*
X109058782Y-94876500D01*
X109054232Y-94877170D01*
X109054229Y-94877170D01*
X108999574Y-94885216D01*
X108999573Y-94885216D01*
X108989888Y-94886642D01*
X108966390Y-94898179D01*
X108894493Y-94933478D01*
X108894491Y-94933479D01*
X108885145Y-94938068D01*
X108802707Y-95020650D01*
X108798134Y-95030006D01*
X108798133Y-95030007D01*
X108789854Y-95046944D01*
X108751464Y-95125482D01*
X108741500Y-95193782D01*
X108741500Y-95560218D01*
X108742170Y-95564768D01*
X108742170Y-95564771D01*
X108750216Y-95619426D01*
X108751642Y-95629112D01*
X108759681Y-95645485D01*
X108786201Y-95699500D01*
X108803068Y-95733855D01*
X108885650Y-95816293D01*
X108895006Y-95820866D01*
X108895007Y-95820867D01*
X108899678Y-95823150D01*
X108990482Y-95867536D01*
X109020973Y-95871984D01*
X109054256Y-95876840D01*
X109054260Y-95876840D01*
X109058782Y-95877500D01*
X109490500Y-95877500D01*
X109558621Y-95897502D01*
X109605114Y-95951158D01*
X109616500Y-96003500D01*
X109616500Y-99186339D01*
X109596498Y-99254460D01*
X109579595Y-99275434D01*
X107277095Y-101577934D01*
X107214783Y-101611960D01*
X107143968Y-101606895D01*
X107098905Y-101577934D01*
X105189019Y-99668048D01*
X105187263Y-99666014D01*
X105184925Y-99661231D01*
X105149023Y-99627927D01*
X105145618Y-99624647D01*
X105132223Y-99611252D01*
X105128253Y-99608528D01*
X105125605Y-99606203D01*
X105111381Y-99593008D01*
X105111378Y-99593006D01*
X105102854Y-99585099D01*
X105092050Y-99580789D01*
X105088061Y-99578267D01*
X105077273Y-99572506D01*
X105072948Y-99570589D01*
X105063354Y-99564008D01*
X105052035Y-99561322D01*
X105052033Y-99561321D01*
X105039373Y-99558317D01*
X105021776Y-99552752D01*
X105007138Y-99546912D01*
X105007135Y-99546911D01*
X104998878Y-99543617D01*
X104992585Y-99543000D01*
X104989506Y-99543000D01*
X104986433Y-99542850D01*
X104986444Y-99542634D01*
X104975069Y-99541302D01*
X104965754Y-99540846D01*
X104954434Y-99538160D01*
X104942905Y-99539729D01*
X104942904Y-99539729D01*
X104927327Y-99541849D01*
X104910336Y-99543000D01*
X103664738Y-99543000D01*
X103596617Y-99522998D01*
X103550124Y-99469342D01*
X103541133Y-99435722D01*
X103540887Y-99435776D01*
X103539699Y-99430362D01*
X103539298Y-99428862D01*
X103539243Y-99428285D01*
X103539242Y-99428281D01*
X103538519Y-99420631D01*
X103493634Y-99292816D01*
X103488042Y-99285246D01*
X103488041Y-99285243D01*
X103418742Y-99191421D01*
X103413150Y-99183850D01*
X103362962Y-99146780D01*
X103311757Y-99108959D01*
X103311754Y-99108958D01*
X103304184Y-99103366D01*
X103176369Y-99058481D01*
X103168723Y-99057758D01*
X103168722Y-99057758D01*
X103162752Y-99057194D01*
X103144834Y-99055500D01*
X102087166Y-99055500D01*
X102069248Y-99057194D01*
X102063278Y-99057758D01*
X102063277Y-99057758D01*
X102055631Y-99058481D01*
X101927816Y-99103366D01*
X101920246Y-99108958D01*
X101920243Y-99108959D01*
X101869038Y-99146780D01*
X101818850Y-99183850D01*
X101813258Y-99191421D01*
X101743959Y-99285243D01*
X101743958Y-99285246D01*
X101738366Y-99292816D01*
X101693481Y-99420631D01*
X101690500Y-99452166D01*
X101690500Y-100234834D01*
X100200500Y-100234834D01*
X100200500Y-98150856D01*
X101631000Y-98150856D01*
X101631369Y-98157673D01*
X101636921Y-98208784D01*
X101640549Y-98224040D01*
X101685905Y-98345028D01*
X101694439Y-98360615D01*
X101771286Y-98463153D01*
X101783847Y-98475714D01*
X101886385Y-98552561D01*
X101901972Y-98561095D01*
X102022960Y-98606451D01*
X102038216Y-98610079D01*
X102089327Y-98615631D01*
X102096144Y-98616000D01*
X102467885Y-98616000D01*
X102483124Y-98611525D01*
X102484329Y-98610135D01*
X102486000Y-98602452D01*
X102486000Y-98597885D01*
X102746000Y-98597885D01*
X102750475Y-98613124D01*
X102751865Y-98614329D01*
X102759548Y-98616000D01*
X103135856Y-98616000D01*
X103142673Y-98615631D01*
X103193784Y-98610079D01*
X103209040Y-98606451D01*
X103330028Y-98561095D01*
X103345615Y-98552561D01*
X103448153Y-98475714D01*
X103460714Y-98463153D01*
X103537561Y-98360615D01*
X103546095Y-98345028D01*
X103591451Y-98224040D01*
X103595079Y-98208784D01*
X103600631Y-98157673D01*
X103601000Y-98150856D01*
X103601000Y-97916615D01*
X103596525Y-97901376D01*
X103595135Y-97900171D01*
X103587452Y-97898500D01*
X102764115Y-97898500D01*
X102748876Y-97902975D01*
X102747671Y-97904365D01*
X102746000Y-97912048D01*
X102746000Y-98597885D01*
X102486000Y-98597885D01*
X102486000Y-97916615D01*
X102481525Y-97901376D01*
X102480135Y-97900171D01*
X102472452Y-97898500D01*
X101649115Y-97898500D01*
X101633876Y-97902975D01*
X101632671Y-97904365D01*
X101631000Y-97912048D01*
X101631000Y-98150856D01*
X100200500Y-98150856D01*
X100200500Y-97620385D01*
X101631000Y-97620385D01*
X101635475Y-97635624D01*
X101636865Y-97636829D01*
X101644548Y-97638500D01*
X102467885Y-97638500D01*
X102483124Y-97634025D01*
X102484329Y-97632635D01*
X102486000Y-97624952D01*
X102486000Y-97620385D01*
X102746000Y-97620385D01*
X102750475Y-97635624D01*
X102751865Y-97636829D01*
X102759548Y-97638500D01*
X103582885Y-97638500D01*
X103598124Y-97634025D01*
X103599329Y-97632635D01*
X103601000Y-97624952D01*
X103601000Y-97386144D01*
X103600631Y-97379327D01*
X103595079Y-97328216D01*
X103591451Y-97312960D01*
X103546095Y-97191972D01*
X103537561Y-97176385D01*
X103460714Y-97073847D01*
X103448153Y-97061286D01*
X103345615Y-96984439D01*
X103330028Y-96975905D01*
X103209040Y-96930549D01*
X103193784Y-96926921D01*
X103142673Y-96921369D01*
X103135856Y-96921000D01*
X102764115Y-96921000D01*
X102748876Y-96925475D01*
X102747671Y-96926865D01*
X102746000Y-96934548D01*
X102746000Y-97620385D01*
X102486000Y-97620385D01*
X102486000Y-96939115D01*
X102481525Y-96923876D01*
X102480135Y-96922671D01*
X102472452Y-96921000D01*
X102096144Y-96921000D01*
X102089327Y-96921369D01*
X102038216Y-96926921D01*
X102022960Y-96930549D01*
X101901972Y-96975905D01*
X101886385Y-96984439D01*
X101783847Y-97061286D01*
X101771286Y-97073847D01*
X101694439Y-97176385D01*
X101685905Y-97191972D01*
X101640549Y-97312960D01*
X101636921Y-97328216D01*
X101631369Y-97379327D01*
X101631000Y-97386144D01*
X101631000Y-97620385D01*
X100200500Y-97620385D01*
X100200500Y-95554313D01*
X103732001Y-95554313D01*
X103732776Y-95564161D01*
X103745654Y-95645478D01*
X103751709Y-95664114D01*
X103801668Y-95762164D01*
X103813179Y-95778007D01*
X103890993Y-95855821D01*
X103906836Y-95867332D01*
X104004891Y-95917293D01*
X104023515Y-95923345D01*
X104104841Y-95936225D01*
X104114684Y-95937000D01*
X104818885Y-95937000D01*
X104834124Y-95932525D01*
X104835329Y-95931135D01*
X104837000Y-95923452D01*
X104837000Y-95918884D01*
X105097000Y-95918884D01*
X105101475Y-95934123D01*
X105102865Y-95935328D01*
X105110548Y-95936999D01*
X105819313Y-95936999D01*
X105829161Y-95936224D01*
X105910478Y-95923346D01*
X105929114Y-95917291D01*
X106027164Y-95867332D01*
X106043007Y-95855821D01*
X106120821Y-95778007D01*
X106132332Y-95762164D01*
X106182293Y-95664109D01*
X106188345Y-95645485D01*
X106201225Y-95564159D01*
X106202000Y-95554316D01*
X106202000Y-95525115D01*
X106197525Y-95509876D01*
X106196135Y-95508671D01*
X106188452Y-95507000D01*
X105115115Y-95507000D01*
X105099876Y-95511475D01*
X105098671Y-95512865D01*
X105097000Y-95520548D01*
X105097000Y-95918884D01*
X104837000Y-95918884D01*
X104837000Y-95525115D01*
X104832525Y-95509876D01*
X104831135Y-95508671D01*
X104823452Y-95507000D01*
X103750116Y-95507000D01*
X103734877Y-95511475D01*
X103733672Y-95512865D01*
X103732001Y-95520548D01*
X103732001Y-95554313D01*
X100200500Y-95554313D01*
X100200500Y-94077168D01*
X103687754Y-94077168D01*
X103697413Y-94188696D01*
X103746575Y-94289269D01*
X103755101Y-94297178D01*
X103771023Y-94311948D01*
X103800946Y-94359454D01*
X103801642Y-94359112D01*
X103805957Y-94367900D01*
X103805957Y-94367901D01*
X103847937Y-94453404D01*
X103853068Y-94463855D01*
X103860438Y-94471212D01*
X103921609Y-94532276D01*
X103935650Y-94546293D01*
X103945006Y-94550866D01*
X103945007Y-94550867D01*
X104040361Y-94597477D01*
X104092778Y-94645363D01*
X104110985Y-94713985D01*
X104089201Y-94781557D01*
X104034343Y-94826625D01*
X104023962Y-94830511D01*
X104004888Y-94836708D01*
X103906836Y-94886668D01*
X103890993Y-94898179D01*
X103813179Y-94975993D01*
X103801668Y-94991836D01*
X103751707Y-95089891D01*
X103745655Y-95108515D01*
X103732775Y-95189841D01*
X103732000Y-95199684D01*
X103732000Y-95228885D01*
X103736475Y-95244124D01*
X103737865Y-95245329D01*
X103745548Y-95247000D01*
X106183884Y-95247000D01*
X106199123Y-95242525D01*
X106200328Y-95241135D01*
X106201999Y-95233452D01*
X106201999Y-95199687D01*
X106201224Y-95189839D01*
X106188346Y-95108522D01*
X106182291Y-95089886D01*
X106132332Y-94991836D01*
X106120821Y-94975993D01*
X106043007Y-94898179D01*
X106027164Y-94886668D01*
X105929110Y-94836707D01*
X105910025Y-94830506D01*
X105851419Y-94790433D01*
X105823782Y-94725036D01*
X105835889Y-94655079D01*
X105883895Y-94602773D01*
X105894445Y-94598036D01*
X105894112Y-94597358D01*
X105989507Y-94550522D01*
X105989509Y-94550521D01*
X105998855Y-94545932D01*
X106081293Y-94463350D01*
X106127950Y-94367901D01*
X106132536Y-94358518D01*
X106135029Y-94359737D01*
X106150317Y-94335726D01*
X106147347Y-94333468D01*
X106147348Y-94333468D01*
X106163916Y-94311680D01*
X106175110Y-94298861D01*
X107299567Y-93174405D01*
X107361879Y-93140379D01*
X107388662Y-93137500D01*
X108700070Y-93137500D01*
X108768191Y-93157502D01*
X108800138Y-93187888D01*
X108803068Y-93193855D01*
X108810437Y-93201211D01*
X108875100Y-93265761D01*
X108885650Y-93276293D01*
X108990482Y-93327536D01*
X109020973Y-93331984D01*
X109054256Y-93336840D01*
X109054260Y-93336840D01*
X109058782Y-93337500D01*
X110775218Y-93337500D01*
X110779768Y-93336830D01*
X110779771Y-93336830D01*
X110834426Y-93328784D01*
X110834427Y-93328784D01*
X110844112Y-93327358D01*
X110897292Y-93301248D01*
X110939507Y-93280522D01*
X110939509Y-93280521D01*
X110948855Y-93275932D01*
X111031293Y-93193350D01*
X111033654Y-93188519D01*
X111087186Y-93146489D01*
X111133924Y-93137500D01*
X111948339Y-93137500D01*
X112016460Y-93157502D01*
X112037434Y-93174405D01*
X114013433Y-95150405D01*
X114047459Y-95212717D01*
X114042394Y-95283533D01*
X113999847Y-95340368D01*
X113933327Y-95365179D01*
X113924338Y-95365500D01*
X113215864Y-95365501D01*
X113150166Y-95365501D01*
X113143681Y-95366114D01*
X113073982Y-95352606D01*
X113042738Y-95329767D01*
X111644519Y-93931548D01*
X111642763Y-93929514D01*
X111640425Y-93924731D01*
X111604523Y-93891427D01*
X111601118Y-93888147D01*
X111587723Y-93874752D01*
X111583753Y-93872028D01*
X111581105Y-93869703D01*
X111566881Y-93856508D01*
X111566878Y-93856506D01*
X111558354Y-93848599D01*
X111547550Y-93844289D01*
X111543561Y-93841767D01*
X111532773Y-93836006D01*
X111528448Y-93834089D01*
X111518854Y-93827508D01*
X111507535Y-93824822D01*
X111507533Y-93824821D01*
X111494873Y-93821817D01*
X111477276Y-93816252D01*
X111462638Y-93810412D01*
X111462635Y-93810411D01*
X111454378Y-93807117D01*
X111448085Y-93806500D01*
X111445006Y-93806500D01*
X111441933Y-93806350D01*
X111441944Y-93806134D01*
X111430569Y-93804802D01*
X111421254Y-93804346D01*
X111409934Y-93801660D01*
X111398405Y-93803229D01*
X111398404Y-93803229D01*
X111382827Y-93805349D01*
X111365836Y-93806500D01*
X111133930Y-93806500D01*
X111065809Y-93786498D01*
X111033862Y-93756112D01*
X111030932Y-93750145D01*
X110948350Y-93667707D01*
X110911103Y-93649500D01*
X110887809Y-93638114D01*
X110843518Y-93616464D01*
X110813027Y-93612016D01*
X110779744Y-93607160D01*
X110779740Y-93607160D01*
X110775218Y-93606500D01*
X109058782Y-93606500D01*
X109054232Y-93607170D01*
X109054229Y-93607170D01*
X108999574Y-93615216D01*
X108999573Y-93615216D01*
X108989888Y-93616642D01*
X108939992Y-93641140D01*
X108894493Y-93663478D01*
X108894491Y-93663479D01*
X108885145Y-93668068D01*
X108802707Y-93750650D01*
X108751464Y-93855482D01*
X108741500Y-93923782D01*
X108741500Y-94290218D01*
X108742170Y-94294768D01*
X108742170Y-94294771D01*
X108744661Y-94311689D01*
X108751642Y-94359112D01*
X108755958Y-94367902D01*
X108797937Y-94453404D01*
X108803068Y-94463855D01*
X108810438Y-94471212D01*
X108871609Y-94532276D01*
X108885650Y-94546293D01*
X108895006Y-94550866D01*
X108895007Y-94550867D01*
X108918873Y-94562533D01*
X108990482Y-94597536D01*
X109020973Y-94601984D01*
X109054256Y-94606840D01*
X109054260Y-94606840D01*
X109058782Y-94607500D01*
X110775218Y-94607500D01*
X110779768Y-94606830D01*
X110779771Y-94606830D01*
X110834426Y-94598784D01*
X110834427Y-94598784D01*
X110844112Y-94597358D01*
X110938804Y-94550867D01*
X110939507Y-94550522D01*
X110939509Y-94550521D01*
X110948855Y-94545932D01*
X111031293Y-94463350D01*
X111033654Y-94458519D01*
X111087186Y-94416489D01*
X111133924Y-94407500D01*
X111218339Y-94407500D01*
X111286460Y-94427502D01*
X111307434Y-94444405D01*
X112716595Y-95853566D01*
X112750621Y-95915878D01*
X112753500Y-95942661D01*
X112753501Y-96769834D01*
X112756481Y-96801370D01*
X112801366Y-96929184D01*
X112881850Y-97038150D01*
X112990816Y-97118634D01*
X112999699Y-97121754D01*
X112999702Y-97121755D01*
X113092773Y-97154439D01*
X113118630Y-97163519D01*
X113126272Y-97164241D01*
X113126275Y-97164242D01*
X113136634Y-97165221D01*
X113150165Y-97166500D01*
X113181935Y-97166500D01*
X113689338Y-97166499D01*
X113757459Y-97186501D01*
X113778433Y-97203404D01*
X115000484Y-98425456D01*
X115002238Y-98427487D01*
X115004575Y-98432269D01*
X115013104Y-98440181D01*
X115013105Y-98440182D01*
X115040463Y-98465560D01*
X115043868Y-98468840D01*
X115057276Y-98482248D01*
X115061255Y-98484978D01*
X115063884Y-98487286D01*
X115086646Y-98508401D01*
X115097453Y-98512712D01*
X115101448Y-98515238D01*
X115112242Y-98521001D01*
X115116554Y-98522912D01*
X115126146Y-98529492D01*
X115137463Y-98532178D01*
X115137464Y-98532178D01*
X115150127Y-98535183D01*
X115167724Y-98540748D01*
X115182362Y-98546588D01*
X115182365Y-98546589D01*
X115190622Y-98549883D01*
X115196915Y-98550500D01*
X115199994Y-98550500D01*
X115203067Y-98550650D01*
X115203056Y-98550866D01*
X115214431Y-98552198D01*
X115223746Y-98552654D01*
X115235066Y-98555340D01*
X115246595Y-98553771D01*
X115246596Y-98553771D01*
X115262173Y-98551651D01*
X115279164Y-98550500D01*
X115720339Y-98550500D01*
X115788460Y-98570502D01*
X115834953Y-98624158D01*
X115845057Y-98694432D01*
X115815563Y-98759012D01*
X115809434Y-98765595D01*
X114812434Y-99762595D01*
X114750122Y-99796621D01*
X114723339Y-99799500D01*
X112566060Y-99799501D01*
X112444008Y-99799501D01*
X112441150Y-99799764D01*
X112441141Y-99799764D01*
X112405757Y-99803015D01*
X112371406Y-99806171D01*
X112365028Y-99808170D01*
X112365027Y-99808170D01*
X112216866Y-99854601D01*
X112216864Y-99854602D01*
X112209617Y-99856873D01*
X112064592Y-99944703D01*
X111944703Y-100064592D01*
X111856873Y-100209617D01*
X111854602Y-100216864D01*
X111854601Y-100216866D01*
X111843834Y-100251224D01*
X111806171Y-100371406D01*
X111799500Y-100444007D01*
X111799501Y-101555992D01*
X111799764Y-101558850D01*
X111799764Y-101558859D01*
X111801517Y-101577934D01*
X111806171Y-101628594D01*
X111808170Y-101634972D01*
X111808170Y-101634973D01*
X111821567Y-101677721D01*
X111856873Y-101790383D01*
X111944703Y-101935408D01*
X112064592Y-102055297D01*
X112209617Y-102143127D01*
X112216864Y-102145398D01*
X112216866Y-102145399D01*
X112282106Y-102165844D01*
X112371406Y-102193829D01*
X112444007Y-102200500D01*
X112446905Y-102200500D01*
X114004037Y-102200499D01*
X115555992Y-102200499D01*
X115558850Y-102200236D01*
X115558859Y-102200236D01*
X115594243Y-102196985D01*
X115628594Y-102193829D01*
X115669228Y-102181095D01*
X115783134Y-102145399D01*
X115783136Y-102145398D01*
X115790383Y-102143127D01*
X115935408Y-102055297D01*
X116055297Y-101935408D01*
X116143127Y-101790383D01*
X116193829Y-101628594D01*
X116200500Y-101555993D01*
X116200499Y-100444008D01*
X116200234Y-100441116D01*
X116195922Y-100394184D01*
X116193829Y-100371406D01*
X116156166Y-100251224D01*
X116145399Y-100216866D01*
X116145398Y-100216864D01*
X116143127Y-100209617D01*
X116055297Y-100064592D01*
X115935408Y-99944703D01*
X115790383Y-99856873D01*
X115791980Y-99854236D01*
X115748823Y-99817129D01*
X115728560Y-99749086D01*
X115748300Y-99680889D01*
X115765464Y-99659507D01*
X115814971Y-99610000D01*
X117609196Y-99610000D01*
X117610747Y-99619793D01*
X117625563Y-99713335D01*
X117630281Y-99743126D01*
X117691472Y-99863220D01*
X117786780Y-99958528D01*
X117906874Y-100019719D01*
X117916663Y-100021269D01*
X117916665Y-100021270D01*
X118030207Y-100039253D01*
X118040000Y-100040804D01*
X118049793Y-100039253D01*
X118163335Y-100021270D01*
X118163337Y-100021269D01*
X118173126Y-100019719D01*
X118293220Y-99958528D01*
X118324343Y-99927405D01*
X118386655Y-99893379D01*
X118413438Y-99890500D01*
X119946562Y-99890500D01*
X120014683Y-99910502D01*
X120035657Y-99927405D01*
X120046780Y-99938528D01*
X120166874Y-99999719D01*
X120176663Y-100001269D01*
X120176665Y-100001270D01*
X120290207Y-100019253D01*
X120300000Y-100020804D01*
X120309793Y-100019253D01*
X120423335Y-100001270D01*
X120423337Y-100001269D01*
X120433126Y-99999719D01*
X120553220Y-99938528D01*
X120648528Y-99843220D01*
X120709719Y-99723126D01*
X120718443Y-99668048D01*
X120729253Y-99599793D01*
X120730804Y-99590000D01*
X120725786Y-99558317D01*
X120711270Y-99466665D01*
X120711269Y-99466663D01*
X120709719Y-99456874D01*
X120648528Y-99336780D01*
X120553220Y-99241472D01*
X120433126Y-99180281D01*
X120423337Y-99178731D01*
X120423335Y-99178730D01*
X120309793Y-99160747D01*
X120300000Y-99159196D01*
X120290207Y-99160747D01*
X120176665Y-99178730D01*
X120176663Y-99178731D01*
X120166874Y-99180281D01*
X120046780Y-99241472D01*
X120035657Y-99252595D01*
X119973345Y-99286621D01*
X119946562Y-99289500D01*
X118370097Y-99289500D01*
X118301976Y-99269498D01*
X118299667Y-99267919D01*
X118293220Y-99261472D01*
X118173126Y-99200281D01*
X118163337Y-99198731D01*
X118163335Y-99198730D01*
X118049793Y-99180747D01*
X118040000Y-99179196D01*
X118030207Y-99180747D01*
X117916665Y-99198730D01*
X117916663Y-99198731D01*
X117906874Y-99200281D01*
X117786780Y-99261472D01*
X117691472Y-99356780D01*
X117630281Y-99476874D01*
X117628731Y-99486663D01*
X117628730Y-99486665D01*
X117617720Y-99556180D01*
X117609196Y-99610000D01*
X115814971Y-99610000D01*
X120175456Y-95249516D01*
X120177487Y-95247762D01*
X120182269Y-95245425D01*
X120190570Y-95236477D01*
X120215560Y-95209537D01*
X120218840Y-95206132D01*
X120232248Y-95192724D01*
X120234978Y-95188745D01*
X120237286Y-95186116D01*
X120258401Y-95163354D01*
X120262712Y-95152547D01*
X120265238Y-95148552D01*
X120271001Y-95137758D01*
X120272912Y-95133446D01*
X120279492Y-95123854D01*
X120283131Y-95108522D01*
X120285183Y-95099873D01*
X120290748Y-95082276D01*
X120296588Y-95067638D01*
X120296589Y-95067635D01*
X120299883Y-95059378D01*
X120300500Y-95053085D01*
X120300500Y-95050006D01*
X120300650Y-95046933D01*
X120300866Y-95046944D01*
X120302198Y-95035569D01*
X120302654Y-95026254D01*
X120305340Y-95014934D01*
X120301651Y-94987827D01*
X120300500Y-94970836D01*
X120300500Y-93353438D01*
X120320502Y-93285317D01*
X120337405Y-93264343D01*
X120348528Y-93253220D01*
X120409719Y-93133126D01*
X120411917Y-93119253D01*
X120429253Y-93009793D01*
X120430804Y-93000000D01*
X120424563Y-92960593D01*
X120411270Y-92876665D01*
X120411269Y-92876663D01*
X120409719Y-92866874D01*
X120348528Y-92746780D01*
X120291748Y-92690000D01*
X123759196Y-92690000D01*
X123760747Y-92699793D01*
X123776304Y-92798014D01*
X123780281Y-92823126D01*
X123841472Y-92943220D01*
X123936780Y-93038528D01*
X124056874Y-93099719D01*
X124066663Y-93101269D01*
X124066665Y-93101270D01*
X124180207Y-93119253D01*
X124190000Y-93120804D01*
X124199793Y-93119253D01*
X124313335Y-93101270D01*
X124313337Y-93101269D01*
X124323126Y-93099719D01*
X124443220Y-93038528D01*
X124538528Y-92943220D01*
X124599719Y-92823126D01*
X124611811Y-92746780D01*
X124615498Y-92723503D01*
X124650852Y-92654119D01*
X126626971Y-90678000D01*
X131141196Y-90678000D01*
X131142747Y-90687793D01*
X131153463Y-90755448D01*
X131162281Y-90811126D01*
X131223472Y-90931220D01*
X131318780Y-91026528D01*
X131438874Y-91087719D01*
X131448663Y-91089269D01*
X131448665Y-91089270D01*
X131562207Y-91107253D01*
X131572000Y-91108804D01*
X131581793Y-91107253D01*
X131695335Y-91089270D01*
X131695337Y-91089269D01*
X131705126Y-91087719D01*
X131825220Y-91026528D01*
X131836343Y-91015405D01*
X131898655Y-90981379D01*
X131925438Y-90978500D01*
X132742562Y-90978500D01*
X132810683Y-90998502D01*
X132831657Y-91015405D01*
X132842780Y-91026528D01*
X132962874Y-91087719D01*
X132972663Y-91089269D01*
X132972665Y-91089270D01*
X133086207Y-91107253D01*
X133096000Y-91108804D01*
X133105793Y-91107253D01*
X133219335Y-91089270D01*
X133219337Y-91089269D01*
X133229126Y-91087719D01*
X133349220Y-91026528D01*
X133444528Y-90931220D01*
X133505719Y-90811126D01*
X133514538Y-90755448D01*
X133525253Y-90687793D01*
X133526804Y-90678000D01*
X133505719Y-90544874D01*
X133444528Y-90424780D01*
X133349220Y-90329472D01*
X133229126Y-90268281D01*
X133219337Y-90266731D01*
X133219335Y-90266730D01*
X133105793Y-90248747D01*
X133096000Y-90247196D01*
X133086207Y-90248747D01*
X132972665Y-90266730D01*
X132972663Y-90266731D01*
X132962874Y-90268281D01*
X132842780Y-90329472D01*
X132831657Y-90340595D01*
X132769345Y-90374621D01*
X132742562Y-90377500D01*
X131925438Y-90377500D01*
X131857317Y-90357498D01*
X131836343Y-90340595D01*
X131825220Y-90329472D01*
X131705126Y-90268281D01*
X131695337Y-90266731D01*
X131695335Y-90266730D01*
X131581793Y-90248747D01*
X131572000Y-90247196D01*
X131562207Y-90248747D01*
X131448665Y-90266730D01*
X131448663Y-90266731D01*
X131438874Y-90268281D01*
X131318780Y-90329472D01*
X131223472Y-90424780D01*
X131162281Y-90544874D01*
X131141196Y-90678000D01*
X126626971Y-90678000D01*
X126769765Y-90535206D01*
X126839149Y-90499852D01*
X126893335Y-90491270D01*
X126893337Y-90491269D01*
X126903126Y-90489719D01*
X127023220Y-90428528D01*
X127118528Y-90333220D01*
X127179719Y-90213126D01*
X127193941Y-90123335D01*
X127199253Y-90089793D01*
X127200804Y-90080000D01*
X127190103Y-90012434D01*
X127181270Y-89956665D01*
X127181269Y-89956663D01*
X127179719Y-89946874D01*
X127118528Y-89826780D01*
X127023220Y-89731472D01*
X126903126Y-89670281D01*
X126893337Y-89668731D01*
X126893335Y-89668730D01*
X126779793Y-89650747D01*
X126770000Y-89649196D01*
X126760207Y-89650747D01*
X126646665Y-89668730D01*
X126646663Y-89668731D01*
X126636874Y-89670281D01*
X126516780Y-89731472D01*
X126421472Y-89826780D01*
X126360281Y-89946874D01*
X126358731Y-89956663D01*
X126358730Y-89956665D01*
X126355255Y-89978607D01*
X126339196Y-90080000D01*
X126335654Y-90079439D01*
X126320745Y-90130213D01*
X126303842Y-90151187D01*
X124225881Y-92229148D01*
X124156497Y-92264502D01*
X124066666Y-92278730D01*
X124066665Y-92278730D01*
X124056874Y-92280281D01*
X123936780Y-92341472D01*
X123841472Y-92436780D01*
X123780281Y-92556874D01*
X123778731Y-92566663D01*
X123778730Y-92566665D01*
X123770057Y-92621427D01*
X123759196Y-92690000D01*
X120291748Y-92690000D01*
X120253220Y-92651472D01*
X120244389Y-92646972D01*
X120242770Y-92645796D01*
X120199418Y-92589572D01*
X120193346Y-92518835D01*
X120227740Y-92454768D01*
X122744468Y-89938041D01*
X125345104Y-87337405D01*
X125407416Y-87303379D01*
X125434199Y-87300500D01*
X134197634Y-87300500D01*
X134200307Y-87300696D01*
X134205342Y-87302425D01*
X134216964Y-87301989D01*
X134216966Y-87301989D01*
X134254255Y-87300589D01*
X134258981Y-87300500D01*
X134277948Y-87300500D01*
X134282683Y-87299618D01*
X134286209Y-87299390D01*
X134289949Y-87299249D01*
X134317208Y-87298226D01*
X134327893Y-87293636D01*
X134332493Y-87292599D01*
X134344214Y-87289038D01*
X134348617Y-87287339D01*
X134360053Y-87285209D01*
X134381041Y-87272272D01*
X134397411Y-87263769D01*
X134411888Y-87257549D01*
X134411892Y-87257547D01*
X134420063Y-87254036D01*
X134424949Y-87250022D01*
X134427134Y-87247837D01*
X134429397Y-87245785D01*
X134429542Y-87245945D01*
X134438549Y-87238825D01*
X134445444Y-87232573D01*
X134455348Y-87226468D01*
X134462390Y-87217208D01*
X134471007Y-87209394D01*
X134473154Y-87211762D01*
X134515233Y-87180747D01*
X134538675Y-87174678D01*
X134593054Y-87166066D01*
X134623334Y-87161270D01*
X134623335Y-87161270D01*
X134633126Y-87159719D01*
X134753220Y-87098528D01*
X134848528Y-87003220D01*
X134909719Y-86883126D01*
X134923628Y-86795311D01*
X134929253Y-86759793D01*
X134930804Y-86750000D01*
X134926194Y-86720895D01*
X134911270Y-86626665D01*
X134911269Y-86626663D01*
X134909719Y-86616874D01*
X134855042Y-86509564D01*
X134841938Y-86439788D01*
X134868638Y-86374004D01*
X134926665Y-86333097D01*
X134967309Y-86326362D01*
X135932210Y-86326362D01*
X136000331Y-86346364D01*
X136046824Y-86400020D01*
X136056928Y-86470294D01*
X136027434Y-86534874D01*
X135967708Y-86573258D01*
X135951921Y-86576811D01*
X135876665Y-86588730D01*
X135876663Y-86588731D01*
X135866874Y-86590281D01*
X135746780Y-86651472D01*
X135651472Y-86746780D01*
X135590281Y-86866874D01*
X135588731Y-86876663D01*
X135588730Y-86876665D01*
X135579802Y-86933033D01*
X135569196Y-87000000D01*
X135570747Y-87009793D01*
X135580996Y-87074500D01*
X135590281Y-87133126D01*
X135651472Y-87253220D01*
X135662595Y-87264343D01*
X135696621Y-87326655D01*
X135699500Y-87353438D01*
X135699500Y-99673501D01*
X135679498Y-99741622D01*
X135625842Y-99788115D01*
X135573500Y-99799501D01*
X134444008Y-99799501D01*
X134441150Y-99799764D01*
X134441141Y-99799764D01*
X134405757Y-99803015D01*
X134371406Y-99806171D01*
X134365028Y-99808170D01*
X134365027Y-99808170D01*
X134216866Y-99854601D01*
X134216864Y-99854602D01*
X134209617Y-99856873D01*
X134064592Y-99944703D01*
X133944703Y-100064592D01*
X133856873Y-100209617D01*
X133854602Y-100216864D01*
X133854601Y-100216866D01*
X133843834Y-100251224D01*
X133806171Y-100371406D01*
X133799500Y-100444007D01*
X133799500Y-100573500D01*
X133779498Y-100641621D01*
X133725842Y-100688114D01*
X133673500Y-100699500D01*
X128872366Y-100699500D01*
X128869693Y-100699304D01*
X128864658Y-100697575D01*
X128853036Y-100698011D01*
X128853034Y-100698011D01*
X128815745Y-100699411D01*
X128811019Y-100699500D01*
X128792052Y-100699500D01*
X128787317Y-100700382D01*
X128783791Y-100700610D01*
X128780051Y-100700751D01*
X128752792Y-100701774D01*
X128742107Y-100706364D01*
X128737507Y-100707401D01*
X128725786Y-100710962D01*
X128721383Y-100712661D01*
X128709947Y-100714791D01*
X128688961Y-100727727D01*
X128672589Y-100736231D01*
X128658112Y-100742451D01*
X128658108Y-100742453D01*
X128649937Y-100745964D01*
X128645051Y-100749978D01*
X128642866Y-100752163D01*
X128640603Y-100754215D01*
X128640458Y-100754055D01*
X128631451Y-100761175D01*
X128624556Y-100767427D01*
X128614652Y-100773532D01*
X128598084Y-100795320D01*
X128586890Y-100808139D01*
X126855881Y-102539148D01*
X126786497Y-102574502D01*
X126696666Y-102588730D01*
X126696665Y-102588730D01*
X126686874Y-102590281D01*
X126566780Y-102651472D01*
X126471472Y-102746780D01*
X126410281Y-102866874D01*
X126408731Y-102876663D01*
X126408730Y-102876665D01*
X126393281Y-102974206D01*
X126389196Y-103000000D01*
X126390747Y-103009793D01*
X126407747Y-103117124D01*
X126410281Y-103133126D01*
X126471472Y-103253220D01*
X126566780Y-103348528D01*
X126686874Y-103409719D01*
X126696663Y-103411269D01*
X126696665Y-103411270D01*
X126810207Y-103429253D01*
X126820000Y-103430804D01*
X126829793Y-103429253D01*
X126943335Y-103411270D01*
X126943337Y-103411269D01*
X126953126Y-103409719D01*
X127073220Y-103348528D01*
X127168528Y-103253220D01*
X127229719Y-103133126D01*
X127232063Y-103118329D01*
X127234667Y-103101885D01*
X143290000Y-103101885D01*
X143294475Y-103117124D01*
X143295865Y-103118329D01*
X143303548Y-103120000D01*
X144101885Y-103120000D01*
X144117124Y-103115525D01*
X144118329Y-103114135D01*
X144120000Y-103106452D01*
X144120000Y-103101885D01*
X144380000Y-103101885D01*
X144384475Y-103117124D01*
X144385865Y-103118329D01*
X144393548Y-103120000D01*
X145191884Y-103120000D01*
X145207123Y-103115525D01*
X145208328Y-103114135D01*
X145209999Y-103106452D01*
X145209999Y-102968440D01*
X146794770Y-102968440D01*
X146796107Y-102988837D01*
X146809200Y-103188604D01*
X146810621Y-103194200D01*
X146810622Y-103194205D01*
X146857809Y-103380000D01*
X146863511Y-103402452D01*
X146865928Y-103407694D01*
X146865928Y-103407695D01*
X146902862Y-103487811D01*
X146955883Y-103602821D01*
X147083222Y-103783002D01*
X147241264Y-103936961D01*
X147246060Y-103940166D01*
X147246063Y-103940168D01*
X147351343Y-104010513D01*
X147424717Y-104059540D01*
X147430020Y-104061818D01*
X147430023Y-104061820D01*
X147620432Y-104143626D01*
X147627436Y-104146635D01*
X147668713Y-104155975D01*
X147836995Y-104194054D01*
X147837001Y-104194055D01*
X147842632Y-104195329D01*
X147848403Y-104195556D01*
X147848405Y-104195556D01*
X147916211Y-104198220D01*
X148063098Y-104203991D01*
X148172275Y-104188161D01*
X148275738Y-104173160D01*
X148275743Y-104173159D01*
X148281452Y-104172331D01*
X148286916Y-104170476D01*
X148286921Y-104170475D01*
X148484907Y-104103268D01*
X148484912Y-104103266D01*
X148490379Y-104101410D01*
X148499233Y-104096452D01*
X148588324Y-104046558D01*
X148682884Y-103993602D01*
X148702369Y-103977397D01*
X148848086Y-103856204D01*
X148852518Y-103852518D01*
X148906985Y-103787029D01*
X148989908Y-103687326D01*
X148989910Y-103687323D01*
X148993602Y-103682884D01*
X149101410Y-103490379D01*
X149103266Y-103484912D01*
X149103268Y-103484907D01*
X149170475Y-103286921D01*
X149170476Y-103286916D01*
X149172331Y-103281452D01*
X149173159Y-103275743D01*
X149173160Y-103275738D01*
X149195257Y-103123334D01*
X149203991Y-103063098D01*
X149205643Y-103000000D01*
X149185454Y-102780289D01*
X149178495Y-102755612D01*
X149151102Y-102658483D01*
X149125565Y-102567936D01*
X149027980Y-102370053D01*
X148895967Y-102193267D01*
X148741220Y-102050220D01*
X148738189Y-102047418D01*
X148738186Y-102047416D01*
X148733949Y-102043499D01*
X148547350Y-101925764D01*
X148342421Y-101844006D01*
X148336761Y-101842880D01*
X148336757Y-101842879D01*
X148131691Y-101802089D01*
X148131688Y-101802089D01*
X148126024Y-101800962D01*
X148120249Y-101800886D01*
X148120245Y-101800886D01*
X148009504Y-101799437D01*
X147905406Y-101798074D01*
X147899709Y-101799053D01*
X147899708Y-101799053D01*
X147693654Y-101834459D01*
X147693653Y-101834459D01*
X147687957Y-101835438D01*
X147480957Y-101911804D01*
X147475996Y-101914756D01*
X147475995Y-101914756D01*
X147337694Y-101997037D01*
X147291341Y-102024614D01*
X147125457Y-102170090D01*
X146988863Y-102343360D01*
X146886131Y-102538620D01*
X146820703Y-102749333D01*
X146794770Y-102968440D01*
X145209999Y-102968440D01*
X145209999Y-102855145D01*
X145209629Y-102848324D01*
X145204078Y-102797213D01*
X145200452Y-102781961D01*
X145155096Y-102660975D01*
X145146558Y-102645380D01*
X145069714Y-102542847D01*
X145057153Y-102530286D01*
X144954620Y-102453442D01*
X144939025Y-102444904D01*
X144818041Y-102399549D01*
X144802785Y-102395921D01*
X144751674Y-102390369D01*
X144744857Y-102390000D01*
X144398115Y-102390000D01*
X144382876Y-102394475D01*
X144381671Y-102395865D01*
X144380000Y-102403548D01*
X144380000Y-103101885D01*
X144120000Y-103101885D01*
X144120000Y-102408116D01*
X144115525Y-102392877D01*
X144114135Y-102391672D01*
X144106452Y-102390001D01*
X143755145Y-102390001D01*
X143748324Y-102390371D01*
X143697213Y-102395922D01*
X143681961Y-102399548D01*
X143560975Y-102444904D01*
X143545380Y-102453442D01*
X143442847Y-102530286D01*
X143430286Y-102542847D01*
X143353442Y-102645380D01*
X143344904Y-102660975D01*
X143299549Y-102781959D01*
X143295921Y-102797215D01*
X143290369Y-102848326D01*
X143290000Y-102855143D01*
X143290000Y-103101885D01*
X127234667Y-103101885D01*
X127245498Y-103033503D01*
X127280852Y-102964119D01*
X128907566Y-101337405D01*
X128969878Y-101303379D01*
X128996661Y-101300500D01*
X133673501Y-101300500D01*
X133741622Y-101320502D01*
X133788115Y-101374158D01*
X133799501Y-101426500D01*
X133799501Y-101555992D01*
X133799764Y-101558850D01*
X133799764Y-101558859D01*
X133801517Y-101577934D01*
X133806171Y-101628594D01*
X133808170Y-101634972D01*
X133808170Y-101634973D01*
X133821567Y-101677721D01*
X133856873Y-101790383D01*
X133944703Y-101935408D01*
X134064592Y-102055297D01*
X134209617Y-102143127D01*
X134216864Y-102145398D01*
X134216866Y-102145399D01*
X134282106Y-102165844D01*
X134371406Y-102193829D01*
X134444007Y-102200500D01*
X134446905Y-102200500D01*
X136004037Y-102200499D01*
X137555992Y-102200499D01*
X137558850Y-102200236D01*
X137558859Y-102200236D01*
X137594243Y-102196985D01*
X137628594Y-102193829D01*
X137669228Y-102181095D01*
X137783134Y-102145399D01*
X137783136Y-102145398D01*
X137790383Y-102143127D01*
X137935408Y-102055297D01*
X138055297Y-101935408D01*
X138143127Y-101790383D01*
X138193829Y-101628594D01*
X138200500Y-101555993D01*
X138200499Y-100444008D01*
X138200234Y-100441116D01*
X138195922Y-100394184D01*
X138193829Y-100371406D01*
X138156166Y-100251224D01*
X138145399Y-100216866D01*
X138145398Y-100216864D01*
X138143127Y-100209617D01*
X138055297Y-100064592D01*
X137935408Y-99944703D01*
X137790383Y-99856873D01*
X137783136Y-99854602D01*
X137783134Y-99854601D01*
X137690266Y-99825498D01*
X137628594Y-99806171D01*
X137555993Y-99799500D01*
X136426500Y-99799500D01*
X136358379Y-99779498D01*
X136311886Y-99725842D01*
X136300500Y-99673500D01*
X136300500Y-99400000D01*
X141969196Y-99400000D01*
X141970747Y-99409793D01*
X141986866Y-99511562D01*
X141990281Y-99533126D01*
X142051472Y-99653220D01*
X142146780Y-99748528D01*
X142266874Y-99809719D01*
X142276665Y-99811270D01*
X142276666Y-99811270D01*
X142366497Y-99825498D01*
X142435881Y-99860852D01*
X143313766Y-100738737D01*
X143347792Y-100801049D01*
X143350112Y-100839688D01*
X143349500Y-100846165D01*
X143349501Y-101653834D01*
X143352481Y-101685370D01*
X143355026Y-101692616D01*
X143393470Y-101802089D01*
X143397366Y-101813184D01*
X143477850Y-101922150D01*
X143586816Y-102002634D01*
X143595699Y-102005754D01*
X143595702Y-102005755D01*
X143660255Y-102028424D01*
X143714630Y-102047519D01*
X143722272Y-102048241D01*
X143722275Y-102048242D01*
X143732634Y-102049221D01*
X143746165Y-102050500D01*
X144249745Y-102050500D01*
X144753834Y-102050499D01*
X144756784Y-102050220D01*
X144756789Y-102050220D01*
X144777721Y-102048242D01*
X144777723Y-102048242D01*
X144785370Y-102047519D01*
X144859006Y-102021660D01*
X144904298Y-102005755D01*
X144904301Y-102005754D01*
X144913184Y-102002634D01*
X145022150Y-101922150D01*
X145102634Y-101813184D01*
X145106531Y-101802089D01*
X145144975Y-101692614D01*
X145147519Y-101685370D01*
X145150500Y-101653835D01*
X145150499Y-100846166D01*
X145147519Y-100814630D01*
X145119987Y-100736231D01*
X145105755Y-100695702D01*
X145105754Y-100695699D01*
X145102634Y-100686816D01*
X145022150Y-100577850D01*
X144913184Y-100497366D01*
X144904301Y-100494246D01*
X144904298Y-100494245D01*
X144792614Y-100455025D01*
X144792615Y-100455025D01*
X144785370Y-100452481D01*
X144777728Y-100451759D01*
X144777725Y-100451758D01*
X144767366Y-100450779D01*
X144753835Y-100449500D01*
X144706593Y-100449500D01*
X143926662Y-100449501D01*
X143858541Y-100429499D01*
X143837567Y-100412596D01*
X142860852Y-99435881D01*
X142825498Y-99366497D01*
X142811270Y-99276666D01*
X142811270Y-99276665D01*
X142809719Y-99266874D01*
X142748528Y-99146780D01*
X142653220Y-99051472D01*
X142533126Y-98990281D01*
X142523337Y-98988731D01*
X142523335Y-98988730D01*
X142409793Y-98970747D01*
X142400000Y-98969196D01*
X142390207Y-98970747D01*
X142276665Y-98988730D01*
X142276663Y-98988731D01*
X142266874Y-98990281D01*
X142146780Y-99051472D01*
X142051472Y-99146780D01*
X141990281Y-99266874D01*
X141988731Y-99276663D01*
X141988730Y-99276665D01*
X141974517Y-99366404D01*
X141969196Y-99400000D01*
X136300500Y-99400000D01*
X136300500Y-90629661D01*
X136320502Y-90561540D01*
X136374158Y-90515047D01*
X136444432Y-90504943D01*
X136509012Y-90534437D01*
X136515594Y-90540565D01*
X137838616Y-91863588D01*
X139160867Y-93185839D01*
X139194893Y-93248151D01*
X139188641Y-93318016D01*
X139186133Y-93321769D01*
X139174500Y-93380252D01*
X139174500Y-94519748D01*
X139175707Y-94525816D01*
X139178317Y-94538935D01*
X139186133Y-94578231D01*
X139230448Y-94644552D01*
X139296769Y-94688867D01*
X139308938Y-94691288D01*
X139308939Y-94691288D01*
X139329738Y-94695425D01*
X139355252Y-94700500D01*
X141344748Y-94700500D01*
X141370262Y-94695425D01*
X141391061Y-94691288D01*
X141391062Y-94691288D01*
X141403231Y-94688867D01*
X141469552Y-94644552D01*
X141513867Y-94578231D01*
X141521684Y-94538935D01*
X141524293Y-94525816D01*
X141525500Y-94519748D01*
X141525500Y-94376500D01*
X141545502Y-94308379D01*
X141599158Y-94261886D01*
X141651500Y-94250500D01*
X144698500Y-94250500D01*
X144766621Y-94270502D01*
X144813114Y-94324158D01*
X144824500Y-94376500D01*
X144824500Y-94519748D01*
X144825707Y-94525816D01*
X144828317Y-94538935D01*
X144836133Y-94578231D01*
X144880448Y-94644552D01*
X144946769Y-94688867D01*
X144958938Y-94691288D01*
X144958939Y-94691288D01*
X144979738Y-94695425D01*
X145005252Y-94700500D01*
X146994748Y-94700500D01*
X147000816Y-94699293D01*
X147006979Y-94698686D01*
X147007145Y-94700374D01*
X147069743Y-94705975D01*
X147125811Y-94749529D01*
X147149431Y-94816481D01*
X147133105Y-94885575D01*
X147112707Y-94912322D01*
X146362434Y-95662595D01*
X146300122Y-95696621D01*
X146273339Y-95699500D01*
X145005252Y-95699500D01*
X144999184Y-95700707D01*
X144958939Y-95708712D01*
X144958938Y-95708712D01*
X144946769Y-95711133D01*
X144880448Y-95755448D01*
X144836133Y-95821769D01*
X144833712Y-95833938D01*
X144833712Y-95833939D01*
X144825707Y-95874184D01*
X144824500Y-95880252D01*
X144824500Y-96023500D01*
X144804498Y-96091621D01*
X144750842Y-96138114D01*
X144698500Y-96149500D01*
X141651500Y-96149500D01*
X141583379Y-96129498D01*
X141536886Y-96075842D01*
X141525500Y-96023500D01*
X141525500Y-95880252D01*
X141524293Y-95874184D01*
X141516288Y-95833939D01*
X141516288Y-95833938D01*
X141513867Y-95821769D01*
X141469552Y-95755448D01*
X141403231Y-95711133D01*
X141391062Y-95708712D01*
X141391061Y-95708712D01*
X141350816Y-95700707D01*
X141344748Y-95699500D01*
X139355252Y-95699500D01*
X139349184Y-95700707D01*
X139308939Y-95708712D01*
X139308938Y-95708712D01*
X139296769Y-95711133D01*
X139230448Y-95755448D01*
X139186133Y-95821769D01*
X139183712Y-95833938D01*
X139183712Y-95833939D01*
X139175707Y-95874184D01*
X139174500Y-95880252D01*
X139174500Y-97019748D01*
X139186133Y-97078231D01*
X139230448Y-97144552D01*
X139296769Y-97188867D01*
X139308938Y-97191288D01*
X139308939Y-97191288D01*
X139349184Y-97199293D01*
X139355252Y-97200500D01*
X141344748Y-97200500D01*
X141350816Y-97199293D01*
X141391061Y-97191288D01*
X141391062Y-97191288D01*
X141403231Y-97188867D01*
X141469552Y-97144552D01*
X141513867Y-97078231D01*
X141525500Y-97019748D01*
X141525500Y-96876500D01*
X141545502Y-96808379D01*
X141599158Y-96761886D01*
X141651500Y-96750500D01*
X144698500Y-96750500D01*
X144766621Y-96770502D01*
X144813114Y-96824158D01*
X144824500Y-96876500D01*
X144824500Y-97019748D01*
X144836133Y-97078231D01*
X144880448Y-97144552D01*
X144946769Y-97188867D01*
X144958938Y-97191288D01*
X144958939Y-97191288D01*
X144999184Y-97199293D01*
X145005252Y-97200500D01*
X146994748Y-97200500D01*
X147000816Y-97199293D01*
X147041061Y-97191288D01*
X147041062Y-97191288D01*
X147053231Y-97188867D01*
X147119552Y-97144552D01*
X147163867Y-97078231D01*
X147175500Y-97019748D01*
X147175500Y-95880252D01*
X147174293Y-95874184D01*
X147166288Y-95833939D01*
X147166288Y-95833938D01*
X147163867Y-95821769D01*
X147161249Y-95817852D01*
X147154230Y-95752560D01*
X147189133Y-95685838D01*
X148175452Y-94699519D01*
X148177486Y-94697763D01*
X148182269Y-94695425D01*
X148215573Y-94659523D01*
X148218853Y-94656118D01*
X148232248Y-94642723D01*
X148234972Y-94638753D01*
X148237297Y-94636105D01*
X148250492Y-94621881D01*
X148250494Y-94621878D01*
X148258401Y-94613354D01*
X148262711Y-94602550D01*
X148265233Y-94598561D01*
X148270994Y-94587773D01*
X148272911Y-94583448D01*
X148279492Y-94573854D01*
X148285183Y-94549873D01*
X148290748Y-94532276D01*
X148296588Y-94517638D01*
X148296589Y-94517635D01*
X148299883Y-94509378D01*
X148300500Y-94503085D01*
X148300500Y-94500006D01*
X148300650Y-94496933D01*
X148300866Y-94496944D01*
X148302198Y-94485569D01*
X148302654Y-94476254D01*
X148305340Y-94464934D01*
X148301651Y-94437827D01*
X148300500Y-94420836D01*
X148300500Y-88071116D01*
X148300696Y-88068443D01*
X148302425Y-88063408D01*
X148300589Y-88014494D01*
X148300500Y-88009768D01*
X148300500Y-87990802D01*
X148299619Y-87986067D01*
X148299390Y-87982540D01*
X148298662Y-87963165D01*
X148298226Y-87951541D01*
X148293634Y-87940854D01*
X148292595Y-87936242D01*
X148289043Y-87924550D01*
X148287339Y-87920133D01*
X148285209Y-87908697D01*
X148272272Y-87887709D01*
X148263769Y-87871339D01*
X148257549Y-87856862D01*
X148257547Y-87856858D01*
X148254036Y-87848687D01*
X148250022Y-87843801D01*
X148247837Y-87841616D01*
X148245785Y-87839353D01*
X148245945Y-87839208D01*
X148238825Y-87830201D01*
X148232573Y-87823306D01*
X148226468Y-87813402D01*
X148204680Y-87796834D01*
X148191861Y-87785640D01*
X146550419Y-86144198D01*
X146516393Y-86081886D01*
X146521458Y-86011071D01*
X146564005Y-85954235D01*
X146595286Y-85937121D01*
X146614024Y-85930097D01*
X146629615Y-85921561D01*
X146732153Y-85844714D01*
X146744714Y-85832153D01*
X146821561Y-85729615D01*
X146830095Y-85714028D01*
X146875451Y-85593040D01*
X146879079Y-85577784D01*
X146884631Y-85526673D01*
X146885000Y-85519856D01*
X146885000Y-85148115D01*
X146880525Y-85132876D01*
X146879135Y-85131671D01*
X146871452Y-85130000D01*
X145208115Y-85130000D01*
X145192876Y-85134475D01*
X145191671Y-85135865D01*
X145190000Y-85143548D01*
X145190000Y-85498339D01*
X145169998Y-85566460D01*
X145116342Y-85612953D01*
X145046068Y-85623057D01*
X144981488Y-85593563D01*
X144974905Y-85587434D01*
X144787405Y-85399934D01*
X144753379Y-85337622D01*
X144750500Y-85310839D01*
X144750500Y-84851885D01*
X145190000Y-84851885D01*
X145194475Y-84867124D01*
X145195865Y-84868329D01*
X145203548Y-84870000D01*
X145889385Y-84870000D01*
X145904624Y-84865525D01*
X145905829Y-84864135D01*
X145907500Y-84856452D01*
X145907500Y-84851885D01*
X146167500Y-84851885D01*
X146171975Y-84867124D01*
X146173365Y-84868329D01*
X146181048Y-84870000D01*
X146866885Y-84870000D01*
X146882124Y-84865525D01*
X146883329Y-84864135D01*
X146885000Y-84856452D01*
X146885000Y-84480144D01*
X146884631Y-84473327D01*
X146879079Y-84422216D01*
X146875451Y-84406960D01*
X146830095Y-84285972D01*
X146821561Y-84270385D01*
X146744714Y-84167847D01*
X146732153Y-84155286D01*
X146629615Y-84078439D01*
X146614028Y-84069905D01*
X146493040Y-84024549D01*
X146477784Y-84020921D01*
X146426673Y-84015369D01*
X146419856Y-84015000D01*
X146185615Y-84015000D01*
X146170376Y-84019475D01*
X146169171Y-84020865D01*
X146167500Y-84028548D01*
X146167500Y-84851885D01*
X145907500Y-84851885D01*
X145907500Y-84033115D01*
X145903025Y-84017876D01*
X145901635Y-84016671D01*
X145893952Y-84015000D01*
X145655144Y-84015000D01*
X145648327Y-84015369D01*
X145597216Y-84020921D01*
X145581960Y-84024549D01*
X145460972Y-84069905D01*
X145445385Y-84078439D01*
X145342847Y-84155286D01*
X145330286Y-84167847D01*
X145253439Y-84270385D01*
X145244905Y-84285972D01*
X145199549Y-84406960D01*
X145195921Y-84422216D01*
X145190369Y-84473327D01*
X145190000Y-84480144D01*
X145190000Y-84851885D01*
X144750500Y-84851885D01*
X144750500Y-84471166D01*
X144747519Y-84439631D01*
X144702634Y-84311816D01*
X144697042Y-84304246D01*
X144697041Y-84304243D01*
X144627742Y-84210421D01*
X144622150Y-84202850D01*
X144583340Y-84174184D01*
X144520757Y-84127959D01*
X144520754Y-84127958D01*
X144513184Y-84122366D01*
X144385369Y-84077481D01*
X144377723Y-84076758D01*
X144377722Y-84076758D01*
X144371752Y-84076194D01*
X144353834Y-84074500D01*
X143571166Y-84074500D01*
X143553248Y-84076194D01*
X143547278Y-84076758D01*
X143547277Y-84076758D01*
X143539631Y-84077481D01*
X143411816Y-84122366D01*
X143404246Y-84127958D01*
X143404243Y-84127959D01*
X143341660Y-84174184D01*
X143302850Y-84202850D01*
X143297258Y-84210421D01*
X143227959Y-84304243D01*
X143227958Y-84304246D01*
X143222366Y-84311816D01*
X143177481Y-84439631D01*
X143174500Y-84471166D01*
X143174500Y-85528834D01*
X143177481Y-85560369D01*
X143222366Y-85688184D01*
X143227958Y-85695754D01*
X143227959Y-85695757D01*
X143280749Y-85767228D01*
X143302850Y-85797150D01*
X143310421Y-85802742D01*
X143404243Y-85872041D01*
X143404246Y-85872042D01*
X143411816Y-85877634D01*
X143539631Y-85922519D01*
X143547277Y-85923242D01*
X143547278Y-85923242D01*
X143553248Y-85923806D01*
X143571166Y-85925500D01*
X144353834Y-85925500D01*
X144385369Y-85922519D01*
X144385468Y-85923562D01*
X144449313Y-85928015D01*
X144494582Y-85957053D01*
X144737981Y-86200452D01*
X144739737Y-86202486D01*
X144742075Y-86207269D01*
X144750604Y-86215181D01*
X144750605Y-86215182D01*
X144777977Y-86240573D01*
X144781382Y-86243853D01*
X144794777Y-86257248D01*
X144798747Y-86259972D01*
X144801395Y-86262297D01*
X144824146Y-86283401D01*
X144834953Y-86287713D01*
X144838938Y-86290232D01*
X144849747Y-86296004D01*
X144854052Y-86297911D01*
X144863646Y-86304493D01*
X144887599Y-86310177D01*
X144887636Y-86310186D01*
X144905232Y-86315751D01*
X144928122Y-86324883D01*
X144934415Y-86325500D01*
X144937497Y-86325500D01*
X144940567Y-86325650D01*
X144940556Y-86325866D01*
X144951931Y-86327198D01*
X144961245Y-86327653D01*
X144972566Y-86330340D01*
X144984095Y-86328771D01*
X144984096Y-86328771D01*
X144999673Y-86326651D01*
X145016664Y-86325500D01*
X145829588Y-86325500D01*
X145897709Y-86345502D01*
X145918684Y-86362405D01*
X146356183Y-86799905D01*
X146390208Y-86862217D01*
X146385143Y-86933033D01*
X146342596Y-86989868D01*
X146276076Y-87014679D01*
X146267087Y-87015000D01*
X146185615Y-87015000D01*
X146170376Y-87019475D01*
X146169171Y-87020865D01*
X146167500Y-87028548D01*
X146167500Y-87851885D01*
X146171975Y-87867124D01*
X146173365Y-87868329D01*
X146181048Y-87870000D01*
X146866885Y-87870000D01*
X146882124Y-87865525D01*
X146883329Y-87864135D01*
X146885000Y-87856452D01*
X146885000Y-87632912D01*
X146905002Y-87564791D01*
X146958658Y-87518298D01*
X147028932Y-87508194D01*
X147093512Y-87537688D01*
X147100086Y-87543808D01*
X147662596Y-88106318D01*
X147696621Y-88168630D01*
X147699500Y-88195413D01*
X147699500Y-94273339D01*
X147679498Y-94341460D01*
X147662595Y-94362434D01*
X147387322Y-94637707D01*
X147325010Y-94671733D01*
X147254195Y-94666668D01*
X147197359Y-94624121D01*
X147172548Y-94557601D01*
X147174148Y-94532024D01*
X147173686Y-94531979D01*
X147174293Y-94525816D01*
X147175500Y-94519748D01*
X147175500Y-93380252D01*
X147163867Y-93321769D01*
X147119552Y-93255448D01*
X147053231Y-93211133D01*
X147041062Y-93208712D01*
X147041061Y-93208712D01*
X147000816Y-93200707D01*
X146994748Y-93199500D01*
X145005252Y-93199500D01*
X144999184Y-93200707D01*
X144958939Y-93208712D01*
X144958938Y-93208712D01*
X144946769Y-93211133D01*
X144880448Y-93255448D01*
X144836133Y-93321769D01*
X144824500Y-93380252D01*
X144824500Y-93523500D01*
X144804498Y-93591621D01*
X144750842Y-93638114D01*
X144698500Y-93649500D01*
X141651500Y-93649500D01*
X141583379Y-93629498D01*
X141536886Y-93575842D01*
X141525500Y-93523500D01*
X141525500Y-93380252D01*
X141513867Y-93321769D01*
X141469552Y-93255448D01*
X141403231Y-93211133D01*
X141391062Y-93208712D01*
X141391061Y-93208712D01*
X141350816Y-93200707D01*
X141344748Y-93199500D01*
X140076661Y-93199500D01*
X140008540Y-93179498D01*
X139987566Y-93162595D01*
X139237293Y-92412322D01*
X139203267Y-92350010D01*
X139208332Y-92279195D01*
X139250879Y-92222359D01*
X139317399Y-92197548D01*
X139342976Y-92199148D01*
X139343021Y-92198686D01*
X139349184Y-92199293D01*
X139355252Y-92200500D01*
X141344748Y-92200500D01*
X141359589Y-92197548D01*
X141391061Y-92191288D01*
X141391062Y-92191288D01*
X141403231Y-92188867D01*
X141469552Y-92144552D01*
X141513867Y-92078231D01*
X141517984Y-92057536D01*
X141524293Y-92025816D01*
X141525500Y-92019748D01*
X141525500Y-90914161D01*
X141545502Y-90846040D01*
X141562405Y-90825066D01*
X143430418Y-88957053D01*
X143492730Y-88923027D01*
X143539579Y-88923069D01*
X143539631Y-88922519D01*
X143571166Y-88925500D01*
X144353834Y-88925500D01*
X144385369Y-88922519D01*
X144385468Y-88923562D01*
X144449313Y-88928015D01*
X144494582Y-88957053D01*
X145662595Y-90125066D01*
X145696621Y-90187378D01*
X145699500Y-90214161D01*
X145699500Y-90573500D01*
X145679498Y-90641621D01*
X145625842Y-90688114D01*
X145573500Y-90699500D01*
X145005252Y-90699500D01*
X144999184Y-90700707D01*
X144958939Y-90708712D01*
X144958938Y-90708712D01*
X144946769Y-90711133D01*
X144880448Y-90755448D01*
X144873557Y-90765761D01*
X144843245Y-90811126D01*
X144836133Y-90821769D01*
X144824500Y-90880252D01*
X144824500Y-92019748D01*
X144825707Y-92025816D01*
X144832017Y-92057536D01*
X144836133Y-92078231D01*
X144880448Y-92144552D01*
X144946769Y-92188867D01*
X144958938Y-92191288D01*
X144958939Y-92191288D01*
X144990411Y-92197548D01*
X145005252Y-92200500D01*
X146994748Y-92200500D01*
X147009589Y-92197548D01*
X147041061Y-92191288D01*
X147041062Y-92191288D01*
X147053231Y-92188867D01*
X147119552Y-92144552D01*
X147163867Y-92078231D01*
X147167984Y-92057536D01*
X147174293Y-92025816D01*
X147175500Y-92019748D01*
X147175500Y-90880252D01*
X147163867Y-90821769D01*
X147156756Y-90811126D01*
X147126443Y-90765761D01*
X147119552Y-90755448D01*
X147053231Y-90711133D01*
X147041062Y-90708712D01*
X147041061Y-90708712D01*
X147000816Y-90700707D01*
X146994748Y-90699500D01*
X146426500Y-90699500D01*
X146358379Y-90679498D01*
X146311886Y-90625842D01*
X146300500Y-90573500D01*
X146300500Y-90089866D01*
X146300696Y-90087193D01*
X146302425Y-90082158D01*
X146301977Y-90070207D01*
X146300589Y-90033245D01*
X146300500Y-90028519D01*
X146300500Y-90009552D01*
X146299618Y-90004817D01*
X146299390Y-90001291D01*
X146298662Y-89981915D01*
X146298226Y-89970292D01*
X146293636Y-89959607D01*
X146292599Y-89955007D01*
X146289038Y-89943286D01*
X146287339Y-89938883D01*
X146285209Y-89927447D01*
X146272272Y-89906459D01*
X146263769Y-89890089D01*
X146257549Y-89875612D01*
X146257547Y-89875608D01*
X146254036Y-89867437D01*
X146250022Y-89862551D01*
X146247837Y-89860366D01*
X146245785Y-89858103D01*
X146245945Y-89857958D01*
X146238825Y-89848951D01*
X146232573Y-89842056D01*
X146226468Y-89832152D01*
X146204680Y-89815584D01*
X146191861Y-89804390D01*
X145587566Y-89200095D01*
X145553540Y-89137783D01*
X145558605Y-89066968D01*
X145601152Y-89010132D01*
X145667672Y-88985321D01*
X145676661Y-88985000D01*
X145889385Y-88985000D01*
X145904624Y-88980525D01*
X145905829Y-88979135D01*
X145907500Y-88971452D01*
X145907500Y-88966885D01*
X146167500Y-88966885D01*
X146171975Y-88982124D01*
X146173365Y-88983329D01*
X146181048Y-88985000D01*
X146419856Y-88985000D01*
X146426673Y-88984631D01*
X146477784Y-88979079D01*
X146493040Y-88975451D01*
X146614028Y-88930095D01*
X146629615Y-88921561D01*
X146732153Y-88844714D01*
X146744714Y-88832153D01*
X146821561Y-88729615D01*
X146830095Y-88714028D01*
X146875451Y-88593040D01*
X146879079Y-88577784D01*
X146884631Y-88526673D01*
X146885000Y-88519856D01*
X146885000Y-88148115D01*
X146880525Y-88132876D01*
X146879135Y-88131671D01*
X146871452Y-88130000D01*
X146185615Y-88130000D01*
X146170376Y-88134475D01*
X146169171Y-88135865D01*
X146167500Y-88143548D01*
X146167500Y-88966885D01*
X145907500Y-88966885D01*
X145907500Y-88148115D01*
X145903025Y-88132876D01*
X145901635Y-88131671D01*
X145893952Y-88130000D01*
X145208115Y-88130000D01*
X145192876Y-88134475D01*
X145191671Y-88135865D01*
X145190000Y-88143548D01*
X145190000Y-88498339D01*
X145169998Y-88566460D01*
X145116342Y-88612953D01*
X145046068Y-88623057D01*
X144981488Y-88593563D01*
X144974905Y-88587434D01*
X144787405Y-88399934D01*
X144753379Y-88337622D01*
X144750500Y-88310839D01*
X144750500Y-87851885D01*
X145190000Y-87851885D01*
X145194475Y-87867124D01*
X145195865Y-87868329D01*
X145203548Y-87870000D01*
X145889385Y-87870000D01*
X145904624Y-87865525D01*
X145905829Y-87864135D01*
X145907500Y-87856452D01*
X145907500Y-87033115D01*
X145903025Y-87017876D01*
X145901635Y-87016671D01*
X145893952Y-87015000D01*
X145655144Y-87015000D01*
X145648327Y-87015369D01*
X145597216Y-87020921D01*
X145581960Y-87024549D01*
X145460972Y-87069905D01*
X145445385Y-87078439D01*
X145342847Y-87155286D01*
X145330286Y-87167847D01*
X145253439Y-87270385D01*
X145244905Y-87285972D01*
X145199549Y-87406960D01*
X145195921Y-87422216D01*
X145190369Y-87473327D01*
X145190000Y-87480144D01*
X145190000Y-87851885D01*
X144750500Y-87851885D01*
X144750500Y-87471166D01*
X144747519Y-87439631D01*
X144702634Y-87311816D01*
X144697042Y-87304246D01*
X144697041Y-87304243D01*
X144630485Y-87214135D01*
X144622150Y-87202850D01*
X144591222Y-87180006D01*
X144520757Y-87127959D01*
X144520754Y-87127958D01*
X144513184Y-87122366D01*
X144385369Y-87077481D01*
X144377723Y-87076758D01*
X144377722Y-87076758D01*
X144371752Y-87076194D01*
X144353834Y-87074500D01*
X143571166Y-87074500D01*
X143553248Y-87076194D01*
X143547278Y-87076758D01*
X143547277Y-87076758D01*
X143539631Y-87077481D01*
X143411816Y-87122366D01*
X143404246Y-87127958D01*
X143404243Y-87127959D01*
X143333778Y-87180006D01*
X143302850Y-87202850D01*
X143294515Y-87214135D01*
X143227959Y-87304243D01*
X143227958Y-87304246D01*
X143222366Y-87311816D01*
X143177481Y-87439631D01*
X143174500Y-87471166D01*
X143174500Y-88310839D01*
X143154498Y-88378960D01*
X143137595Y-88399934D01*
X140874934Y-90662595D01*
X140812622Y-90696621D01*
X140785839Y-90699500D01*
X139355252Y-90699500D01*
X139349184Y-90700707D01*
X139308939Y-90708712D01*
X139308938Y-90708712D01*
X139296769Y-90711133D01*
X139230448Y-90755448D01*
X139223557Y-90765761D01*
X139193245Y-90811126D01*
X139186133Y-90821769D01*
X139174500Y-90880252D01*
X139174500Y-92019748D01*
X139175707Y-92025816D01*
X139176314Y-92031979D01*
X139174626Y-92032145D01*
X139169025Y-92094743D01*
X139125471Y-92150811D01*
X139058519Y-92174431D01*
X138989425Y-92158105D01*
X138962678Y-92137707D01*
X136837405Y-90012434D01*
X136803379Y-89950122D01*
X136800500Y-89923339D01*
X136800500Y-88114901D01*
X136820502Y-88046780D01*
X136874158Y-88000287D01*
X136944432Y-87990183D01*
X136996501Y-88010135D01*
X137038235Y-88038020D01*
X137060725Y-88047336D01*
X137118323Y-88058793D01*
X137130578Y-88060000D01*
X139501885Y-88060000D01*
X139517124Y-88055525D01*
X139518329Y-88054135D01*
X139520000Y-88046452D01*
X139520000Y-88041884D01*
X139780000Y-88041884D01*
X139784475Y-88057123D01*
X139785865Y-88058328D01*
X139793548Y-88059999D01*
X142169420Y-88059999D01*
X142181680Y-88058791D01*
X142239272Y-88047337D01*
X142261768Y-88038019D01*
X142327134Y-87994343D01*
X142344343Y-87977134D01*
X142388020Y-87911767D01*
X142397336Y-87889275D01*
X142408793Y-87831677D01*
X142410000Y-87819422D01*
X142410000Y-86148115D01*
X142405525Y-86132876D01*
X142404135Y-86131671D01*
X142396452Y-86130000D01*
X139798115Y-86130000D01*
X139782876Y-86134475D01*
X139781671Y-86135865D01*
X139780000Y-86143548D01*
X139780000Y-88041884D01*
X139520000Y-88041884D01*
X139520000Y-85851885D01*
X139780000Y-85851885D01*
X139784475Y-85867124D01*
X139785865Y-85868329D01*
X139793548Y-85870000D01*
X142391884Y-85870000D01*
X142407123Y-85865525D01*
X142408328Y-85864135D01*
X142409999Y-85856452D01*
X142409999Y-84180580D01*
X142408791Y-84168320D01*
X142397337Y-84110728D01*
X142388019Y-84088232D01*
X142344343Y-84022866D01*
X142327134Y-84005657D01*
X142261767Y-83961980D01*
X142239275Y-83952664D01*
X142181677Y-83941207D01*
X142169422Y-83940000D01*
X139798115Y-83940000D01*
X139782876Y-83944475D01*
X139781671Y-83945865D01*
X139780000Y-83953548D01*
X139780000Y-85851885D01*
X139520000Y-85851885D01*
X139520000Y-83958116D01*
X139515525Y-83942877D01*
X139514135Y-83941672D01*
X139506452Y-83940001D01*
X137130580Y-83940001D01*
X137118320Y-83941209D01*
X137060728Y-83952663D01*
X137038232Y-83961981D01*
X136972866Y-84005657D01*
X136955657Y-84022866D01*
X136911980Y-84088233D01*
X136902664Y-84110725D01*
X136891207Y-84168323D01*
X136890000Y-84180578D01*
X136890000Y-85688959D01*
X136869998Y-85757080D01*
X136816342Y-85803573D01*
X136746068Y-85813677D01*
X136678309Y-85781333D01*
X136671883Y-85775372D01*
X136671881Y-85775371D01*
X136663354Y-85767461D01*
X136652550Y-85763150D01*
X136648561Y-85760629D01*
X136637773Y-85754868D01*
X136633448Y-85752951D01*
X136623854Y-85746370D01*
X136612535Y-85743684D01*
X136612533Y-85743683D01*
X136599873Y-85740679D01*
X136582276Y-85735114D01*
X136567638Y-85729274D01*
X136567635Y-85729273D01*
X136559378Y-85725979D01*
X136553085Y-85725362D01*
X136550006Y-85725362D01*
X136546933Y-85725212D01*
X136546944Y-85724996D01*
X136520981Y-85721957D01*
X136514934Y-85720522D01*
X136515907Y-85716424D01*
X136469871Y-85700426D01*
X136426053Y-85644565D01*
X136418637Y-85578170D01*
X136421457Y-85560369D01*
X136430804Y-85501351D01*
X136414741Y-85399934D01*
X136411270Y-85378016D01*
X136411269Y-85378014D01*
X136409719Y-85368225D01*
X136348528Y-85248131D01*
X136253220Y-85152823D01*
X136133126Y-85091632D01*
X136123335Y-85090081D01*
X136123334Y-85090081D01*
X136033503Y-85075853D01*
X135964119Y-85040499D01*
X135683166Y-84759546D01*
X135681410Y-84757512D01*
X135679072Y-84752729D01*
X135643170Y-84719425D01*
X135639765Y-84716145D01*
X135626370Y-84702750D01*
X135622400Y-84700026D01*
X135619752Y-84697701D01*
X135605528Y-84684506D01*
X135605525Y-84684504D01*
X135597001Y-84676597D01*
X135586197Y-84672287D01*
X135582208Y-84669765D01*
X135571420Y-84664004D01*
X135567095Y-84662087D01*
X135557501Y-84655506D01*
X135546182Y-84652820D01*
X135546180Y-84652819D01*
X135533520Y-84649815D01*
X135515923Y-84644250D01*
X135501285Y-84638410D01*
X135501282Y-84638409D01*
X135493025Y-84635115D01*
X135486732Y-84634498D01*
X135483653Y-84634498D01*
X135480580Y-84634348D01*
X135480591Y-84634132D01*
X135469216Y-84632800D01*
X135459901Y-84632344D01*
X135448581Y-84629658D01*
X135437052Y-84631227D01*
X135437051Y-84631227D01*
X135421474Y-84633347D01*
X135404483Y-84634498D01*
X123111659Y-84634498D01*
X123043538Y-84614496D01*
X123022564Y-84597593D01*
X121610852Y-83185881D01*
X121575498Y-83116497D01*
X121561270Y-83026666D01*
X121561270Y-83026665D01*
X121559719Y-83016874D01*
X121498528Y-82896780D01*
X121403220Y-82801472D01*
X121283126Y-82740281D01*
X121273337Y-82738731D01*
X121273335Y-82738730D01*
X121159793Y-82720747D01*
X121150000Y-82719196D01*
X121140207Y-82720747D01*
X121026665Y-82738730D01*
X121026663Y-82738731D01*
X121016874Y-82740281D01*
X120896780Y-82801472D01*
X120801472Y-82896780D01*
X120796972Y-82905612D01*
X120794827Y-82909822D01*
X120746079Y-82961438D01*
X120677165Y-82978505D01*
X120609963Y-82955605D01*
X120593464Y-82941716D01*
X120503220Y-82851472D01*
X120383126Y-82790281D01*
X120373337Y-82788731D01*
X120373335Y-82788730D01*
X120259793Y-82770747D01*
X120250000Y-82769196D01*
X120240207Y-82770747D01*
X120126665Y-82788730D01*
X120126663Y-82788731D01*
X120116874Y-82790281D01*
X119996780Y-82851472D01*
X119901472Y-82946780D01*
X119840281Y-83066874D01*
X119838731Y-83076663D01*
X119838730Y-83076665D01*
X119832260Y-83117518D01*
X119819196Y-83200000D01*
X119840281Y-83333126D01*
X119901472Y-83453220D01*
X119996780Y-83548528D01*
X120116874Y-83609719D01*
X120126665Y-83611270D01*
X120126666Y-83611270D01*
X120216497Y-83625498D01*
X120285881Y-83660852D01*
X122280481Y-85655452D01*
X122282237Y-85657486D01*
X122284575Y-85662269D01*
X122293104Y-85670181D01*
X122293105Y-85670182D01*
X122320477Y-85695573D01*
X122323882Y-85698853D01*
X122337277Y-85712248D01*
X122341247Y-85714972D01*
X122343895Y-85717297D01*
X122358119Y-85730492D01*
X122358122Y-85730494D01*
X122366646Y-85738401D01*
X122377450Y-85742711D01*
X122381439Y-85745233D01*
X122392227Y-85750994D01*
X122396552Y-85752911D01*
X122406146Y-85759492D01*
X122417465Y-85762178D01*
X122417467Y-85762179D01*
X122430127Y-85765183D01*
X122447724Y-85770748D01*
X122462362Y-85776588D01*
X122462365Y-85776589D01*
X122470622Y-85779883D01*
X122476915Y-85780500D01*
X122479994Y-85780500D01*
X122483067Y-85780650D01*
X122483056Y-85780866D01*
X122494431Y-85782198D01*
X122503746Y-85782654D01*
X122515066Y-85785340D01*
X122526595Y-85783771D01*
X122526596Y-85783771D01*
X122542173Y-85781651D01*
X122559164Y-85780500D01*
X124490339Y-85780500D01*
X124558460Y-85800502D01*
X124604953Y-85854158D01*
X124615057Y-85924432D01*
X124585563Y-85989012D01*
X124579434Y-85995595D01*
X120625383Y-89949646D01*
X120563071Y-89983672D01*
X120492256Y-89978607D01*
X120435420Y-89936060D01*
X120411839Y-89880258D01*
X120411270Y-89876667D01*
X120409719Y-89866874D01*
X120348528Y-89746780D01*
X120337405Y-89735657D01*
X120303379Y-89673345D01*
X120300500Y-89646562D01*
X120300500Y-88852366D01*
X120300696Y-88849693D01*
X120302425Y-88844658D01*
X120300589Y-88795745D01*
X120300500Y-88791019D01*
X120300500Y-88772052D01*
X120299618Y-88767317D01*
X120299390Y-88763791D01*
X120298662Y-88744415D01*
X120298226Y-88732792D01*
X120293636Y-88722107D01*
X120292599Y-88717507D01*
X120289038Y-88705786D01*
X120287339Y-88701383D01*
X120285209Y-88689947D01*
X120272272Y-88668959D01*
X120263769Y-88652589D01*
X120257549Y-88638112D01*
X120257547Y-88638108D01*
X120254036Y-88629937D01*
X120250022Y-88625051D01*
X120247837Y-88622866D01*
X120245785Y-88620603D01*
X120245945Y-88620458D01*
X120238825Y-88611451D01*
X120232573Y-88604556D01*
X120226468Y-88594652D01*
X120204680Y-88578084D01*
X120191861Y-88566890D01*
X117449519Y-85824548D01*
X117447763Y-85822514D01*
X117445425Y-85817731D01*
X117435676Y-85808687D01*
X117409523Y-85784427D01*
X117406118Y-85781147D01*
X117392723Y-85767752D01*
X117388753Y-85765028D01*
X117386105Y-85762703D01*
X117371881Y-85749508D01*
X117371878Y-85749506D01*
X117363354Y-85741599D01*
X117352550Y-85737289D01*
X117348561Y-85734767D01*
X117337773Y-85729006D01*
X117333448Y-85727089D01*
X117323854Y-85720508D01*
X117312535Y-85717822D01*
X117312533Y-85717821D01*
X117299873Y-85714817D01*
X117282276Y-85709252D01*
X117267638Y-85703412D01*
X117267635Y-85703411D01*
X117259378Y-85700117D01*
X117253085Y-85699500D01*
X117250006Y-85699500D01*
X117246933Y-85699350D01*
X117246944Y-85699134D01*
X117235569Y-85697802D01*
X117226254Y-85697346D01*
X117214934Y-85694660D01*
X117203405Y-85696229D01*
X117203404Y-85696229D01*
X117187827Y-85698349D01*
X117170836Y-85699500D01*
X113176500Y-85699500D01*
X113108379Y-85679498D01*
X113061886Y-85625842D01*
X113050500Y-85573500D01*
X113050500Y-84180252D01*
X113048127Y-84168320D01*
X113041288Y-84133939D01*
X113041288Y-84133938D01*
X113038867Y-84121769D01*
X112994552Y-84055448D01*
X112942796Y-84020865D01*
X112938547Y-84018026D01*
X112928231Y-84011133D01*
X112916062Y-84008712D01*
X112916061Y-84008712D01*
X112875816Y-84000707D01*
X112869748Y-83999500D01*
X107830252Y-83999500D01*
X107824184Y-84000707D01*
X107783939Y-84008712D01*
X107783938Y-84008712D01*
X107771769Y-84011133D01*
X107761453Y-84018026D01*
X107757204Y-84020865D01*
X107705448Y-84055448D01*
X107661133Y-84121769D01*
X107658712Y-84133938D01*
X107658712Y-84133939D01*
X107651873Y-84168320D01*
X107649500Y-84180252D01*
X107649500Y-87819748D01*
X107650707Y-87825816D01*
X107658606Y-87865525D01*
X107661133Y-87878231D01*
X107705448Y-87944552D01*
X107771769Y-87988867D01*
X107783938Y-87991288D01*
X107783939Y-87991288D01*
X107824184Y-87999293D01*
X107830252Y-88000500D01*
X112869748Y-88000500D01*
X112875816Y-87999293D01*
X112916061Y-87991288D01*
X112916062Y-87991288D01*
X112928231Y-87988867D01*
X112994552Y-87944552D01*
X113038867Y-87878231D01*
X113041395Y-87865525D01*
X113049293Y-87825816D01*
X113050500Y-87819748D01*
X113050500Y-86426500D01*
X113070502Y-86358379D01*
X113124158Y-86311886D01*
X113176500Y-86300500D01*
X117023339Y-86300500D01*
X117091460Y-86320502D01*
X117112434Y-86337405D01*
X119662595Y-88887566D01*
X119696621Y-88949878D01*
X119699500Y-88976661D01*
X119699500Y-89646562D01*
X119679498Y-89714683D01*
X119662595Y-89735657D01*
X119651472Y-89746780D01*
X119590281Y-89866874D01*
X119588731Y-89876663D01*
X119588730Y-89876665D01*
X119573901Y-89970292D01*
X119569196Y-90000000D01*
X119570747Y-90009793D01*
X119583097Y-90087765D01*
X119590281Y-90133126D01*
X119651472Y-90253220D01*
X119746780Y-90348528D01*
X119866874Y-90409719D01*
X119876667Y-90411270D01*
X119880258Y-90411839D01*
X119884270Y-90413741D01*
X119886099Y-90414335D01*
X119886022Y-90414571D01*
X119944412Y-90442249D01*
X119981941Y-90502516D01*
X119980929Y-90573505D01*
X119949646Y-90625383D01*
X115378548Y-95196481D01*
X115376514Y-95198237D01*
X115371731Y-95200575D01*
X115363819Y-95209104D01*
X115363818Y-95209105D01*
X115338427Y-95236477D01*
X115335147Y-95239882D01*
X115321752Y-95253277D01*
X115319028Y-95257247D01*
X115316703Y-95259895D01*
X115303508Y-95274119D01*
X115303506Y-95274122D01*
X115295599Y-95282646D01*
X115291290Y-95293447D01*
X115285072Y-95303283D01*
X115282201Y-95301468D01*
X115250356Y-95342056D01*
X115177154Y-95365501D01*
X115150166Y-95365501D01*
X115143681Y-95366114D01*
X115073982Y-95352606D01*
X115042738Y-95329767D01*
X112374519Y-92661548D01*
X112372763Y-92659514D01*
X112370425Y-92654731D01*
X112334523Y-92621427D01*
X112331118Y-92618147D01*
X112317723Y-92604752D01*
X112313753Y-92602028D01*
X112311105Y-92599703D01*
X112296881Y-92586508D01*
X112296878Y-92586506D01*
X112288354Y-92578599D01*
X112277550Y-92574289D01*
X112273561Y-92571767D01*
X112262773Y-92566006D01*
X112258448Y-92564089D01*
X112248854Y-92557508D01*
X112237535Y-92554822D01*
X112237533Y-92554821D01*
X112224873Y-92551817D01*
X112207276Y-92546252D01*
X112192638Y-92540412D01*
X112192635Y-92540411D01*
X112184378Y-92537117D01*
X112178085Y-92536500D01*
X112175006Y-92536500D01*
X112171933Y-92536350D01*
X112171944Y-92536134D01*
X112160569Y-92534802D01*
X112151254Y-92534346D01*
X112139934Y-92531660D01*
X112128405Y-92533229D01*
X112128404Y-92533229D01*
X112112827Y-92535349D01*
X112095836Y-92536500D01*
X111133930Y-92536500D01*
X111065809Y-92516498D01*
X111033862Y-92486112D01*
X111030932Y-92480145D01*
X110948350Y-92397707D01*
X110843518Y-92346464D01*
X110813027Y-92342016D01*
X110779744Y-92337160D01*
X110779740Y-92337160D01*
X110775218Y-92336500D01*
X109058782Y-92336500D01*
X109054232Y-92337170D01*
X109054229Y-92337170D01*
X108999574Y-92345216D01*
X108999573Y-92345216D01*
X108989888Y-92346642D01*
X108964893Y-92358914D01*
X108894493Y-92393478D01*
X108894491Y-92393479D01*
X108885145Y-92398068D01*
X108802707Y-92480650D01*
X108800346Y-92485481D01*
X108746814Y-92527511D01*
X108700076Y-92536500D01*
X107264366Y-92536500D01*
X107261693Y-92536304D01*
X107256658Y-92534575D01*
X107245036Y-92535011D01*
X107245034Y-92535011D01*
X107207744Y-92536411D01*
X107203018Y-92536500D01*
X107184052Y-92536500D01*
X107179317Y-92537381D01*
X107175790Y-92537610D01*
X107171254Y-92537780D01*
X107144791Y-92538774D01*
X107134104Y-92543366D01*
X107129492Y-92544405D01*
X107117800Y-92547957D01*
X107113383Y-92549661D01*
X107101947Y-92551791D01*
X107080961Y-92564727D01*
X107064589Y-92573231D01*
X107050112Y-92579451D01*
X107050108Y-92579453D01*
X107041937Y-92582964D01*
X107037051Y-92586978D01*
X107034866Y-92589163D01*
X107032603Y-92591215D01*
X107032458Y-92591055D01*
X107023451Y-92598175D01*
X107016556Y-92604427D01*
X107006652Y-92610532D01*
X106990084Y-92632320D01*
X106978890Y-92645139D01*
X106276963Y-93347066D01*
X106214651Y-93381092D01*
X106185308Y-93378993D01*
X106188357Y-93394600D01*
X106162138Y-93460577D01*
X106151993Y-93472036D01*
X106033152Y-93590877D01*
X105970840Y-93624903D01*
X105906852Y-93622164D01*
X105902302Y-93620758D01*
X105893518Y-93616464D01*
X105883843Y-93615052D01*
X105883841Y-93615052D01*
X105829744Y-93607160D01*
X105829740Y-93607160D01*
X105825218Y-93606500D01*
X104108782Y-93606500D01*
X104104232Y-93607170D01*
X104104229Y-93607170D01*
X104049574Y-93615216D01*
X104049573Y-93615216D01*
X104039888Y-93616642D01*
X103989992Y-93641140D01*
X103944493Y-93663478D01*
X103944491Y-93663479D01*
X103935145Y-93668068D01*
X103852707Y-93750650D01*
X103848134Y-93760006D01*
X103848133Y-93760007D01*
X103825586Y-93806134D01*
X103801464Y-93855482D01*
X103798971Y-93854263D01*
X103783683Y-93878274D01*
X103786652Y-93880532D01*
X103747859Y-93931548D01*
X103718892Y-93969641D01*
X103687754Y-94077168D01*
X100200500Y-94077168D01*
X100200500Y-68210066D01*
X103069660Y-68210066D01*
X103071229Y-68221595D01*
X103071229Y-68221596D01*
X103073349Y-68237173D01*
X103074500Y-68254164D01*
X103074500Y-92167634D01*
X103074304Y-92170307D01*
X103072575Y-92175342D01*
X103073011Y-92186964D01*
X103073011Y-92186966D01*
X103074411Y-92224255D01*
X103074500Y-92228981D01*
X103074500Y-92247948D01*
X103075382Y-92252683D01*
X103075610Y-92256209D01*
X103076774Y-92287208D01*
X103081364Y-92297893D01*
X103082401Y-92302493D01*
X103085962Y-92314214D01*
X103087661Y-92318617D01*
X103089791Y-92330053D01*
X103102093Y-92350010D01*
X103102727Y-92351039D01*
X103111231Y-92367411D01*
X103117451Y-92381888D01*
X103117453Y-92381892D01*
X103120964Y-92390063D01*
X103124978Y-92394949D01*
X103127163Y-92397134D01*
X103129215Y-92399397D01*
X103129055Y-92399542D01*
X103136175Y-92408549D01*
X103142427Y-92415444D01*
X103148532Y-92425348D01*
X103170320Y-92441916D01*
X103183139Y-92453110D01*
X103742481Y-93012452D01*
X103744237Y-93014486D01*
X103746575Y-93019269D01*
X103771024Y-93041949D01*
X103800946Y-93089454D01*
X103801642Y-93089112D01*
X103805958Y-93097902D01*
X103805958Y-93097903D01*
X103843519Y-93174405D01*
X103853068Y-93193855D01*
X103860437Y-93201211D01*
X103860438Y-93201212D01*
X103925100Y-93265761D01*
X103935650Y-93276293D01*
X104040482Y-93327536D01*
X104070973Y-93331984D01*
X104104256Y-93336840D01*
X104104260Y-93336840D01*
X104108782Y-93337500D01*
X105825218Y-93337500D01*
X105829768Y-93336830D01*
X105829771Y-93336830D01*
X105884426Y-93328784D01*
X105884427Y-93328784D01*
X105894112Y-93327358D01*
X105998855Y-93275932D01*
X105999405Y-93277051D01*
X106056583Y-93257099D01*
X106063950Y-93258866D01*
X106077280Y-93197586D01*
X106077643Y-93197006D01*
X106081293Y-93193350D01*
X106132536Y-93088518D01*
X106139829Y-93038528D01*
X106141840Y-93024744D01*
X106141840Y-93024740D01*
X106142500Y-93020218D01*
X106142500Y-92653782D01*
X106141325Y-92645796D01*
X106133784Y-92594574D01*
X106133784Y-92594573D01*
X106132358Y-92584888D01*
X106106995Y-92533229D01*
X106085522Y-92489493D01*
X106085521Y-92489491D01*
X106080932Y-92480145D01*
X105998350Y-92397707D01*
X105893518Y-92346464D01*
X105863027Y-92342016D01*
X105829744Y-92337160D01*
X105829740Y-92337160D01*
X105825218Y-92336500D01*
X104108782Y-92336500D01*
X104104232Y-92337170D01*
X104104229Y-92337170D01*
X104056887Y-92344140D01*
X104039888Y-92346642D01*
X104031097Y-92350958D01*
X104027352Y-92352122D01*
X103956364Y-92353237D01*
X103900866Y-92320894D01*
X103781938Y-92201966D01*
X103747913Y-92139654D01*
X103752979Y-92068838D01*
X103795525Y-92012002D01*
X103862046Y-91987192D01*
X103931420Y-92002284D01*
X103931995Y-92002644D01*
X103935650Y-92006293D01*
X103945008Y-92010867D01*
X103945009Y-92010868D01*
X103963176Y-92019748D01*
X104040482Y-92057536D01*
X104070973Y-92061984D01*
X104104256Y-92066840D01*
X104104260Y-92066840D01*
X104108782Y-92067500D01*
X105825218Y-92067500D01*
X105829768Y-92066830D01*
X105829771Y-92066830D01*
X105884426Y-92058784D01*
X105884427Y-92058784D01*
X105894112Y-92057358D01*
X105970715Y-92019748D01*
X105989507Y-92010522D01*
X105989509Y-92010521D01*
X105998855Y-92005932D01*
X106081293Y-91923350D01*
X106132536Y-91818518D01*
X106142500Y-91750218D01*
X106142500Y-91383782D01*
X106132358Y-91314888D01*
X106104187Y-91257511D01*
X106085522Y-91219493D01*
X106085521Y-91219491D01*
X106080932Y-91210145D01*
X105998350Y-91127707D01*
X105893518Y-91076464D01*
X105863027Y-91072016D01*
X105829744Y-91067160D01*
X105829740Y-91067160D01*
X105825218Y-91066500D01*
X105076490Y-91066500D01*
X105008369Y-91046498D01*
X104961876Y-90992842D01*
X104950490Y-90940500D01*
X104950490Y-90329693D01*
X104970492Y-90261572D01*
X105024148Y-90215079D01*
X105094422Y-90204975D01*
X105103494Y-90206621D01*
X105107387Y-90207475D01*
X105114631Y-90210019D01*
X105146166Y-90213000D01*
X105985839Y-90213000D01*
X106053960Y-90233002D01*
X106074934Y-90249905D01*
X107567481Y-91742452D01*
X107569237Y-91744486D01*
X107571575Y-91749269D01*
X107580104Y-91757181D01*
X107580105Y-91757182D01*
X107607477Y-91782573D01*
X107610882Y-91785853D01*
X107624276Y-91799247D01*
X107628245Y-91801969D01*
X107630889Y-91804291D01*
X107645115Y-91817488D01*
X107645118Y-91817490D01*
X107653646Y-91825401D01*
X107664453Y-91829713D01*
X107668443Y-91832235D01*
X107679227Y-91837994D01*
X107683552Y-91839911D01*
X107693146Y-91846492D01*
X107704465Y-91849178D01*
X107704467Y-91849179D01*
X107717127Y-91852183D01*
X107734724Y-91857748D01*
X107749362Y-91863588D01*
X107749365Y-91863589D01*
X107757622Y-91866883D01*
X107763915Y-91867500D01*
X107766994Y-91867500D01*
X107770067Y-91867650D01*
X107770056Y-91867866D01*
X107781431Y-91869198D01*
X107790746Y-91869654D01*
X107802066Y-91872340D01*
X107813595Y-91870771D01*
X107813596Y-91870771D01*
X107829173Y-91868651D01*
X107846164Y-91867500D01*
X108700070Y-91867500D01*
X108768191Y-91887502D01*
X108800138Y-91917888D01*
X108803068Y-91923855D01*
X108885650Y-92006293D01*
X108895006Y-92010866D01*
X108895007Y-92010867D01*
X108913176Y-92019748D01*
X108990482Y-92057536D01*
X109020973Y-92061984D01*
X109054256Y-92066840D01*
X109054260Y-92066840D01*
X109058782Y-92067500D01*
X110775218Y-92067500D01*
X110779768Y-92066830D01*
X110779771Y-92066830D01*
X110834426Y-92058784D01*
X110834427Y-92058784D01*
X110844112Y-92057358D01*
X110920715Y-92019748D01*
X110939507Y-92010522D01*
X110939509Y-92010521D01*
X110948855Y-92005932D01*
X111031293Y-91923350D01*
X111082536Y-91818518D01*
X111092500Y-91750218D01*
X111092500Y-91383782D01*
X111082358Y-91314888D01*
X111054187Y-91257511D01*
X111035522Y-91219493D01*
X111035521Y-91219491D01*
X111030932Y-91210145D01*
X110948350Y-91127707D01*
X110843518Y-91076464D01*
X110813027Y-91072016D01*
X110779744Y-91067160D01*
X110779740Y-91067160D01*
X110775218Y-91066500D01*
X109058782Y-91066500D01*
X109054232Y-91067170D01*
X109054229Y-91067170D01*
X108999574Y-91075216D01*
X108999573Y-91075216D01*
X108989888Y-91076642D01*
X108967327Y-91087719D01*
X108894493Y-91123478D01*
X108894491Y-91123479D01*
X108885145Y-91128068D01*
X108802707Y-91210650D01*
X108800346Y-91215481D01*
X108746814Y-91257511D01*
X108700076Y-91266500D01*
X107993661Y-91266500D01*
X107925540Y-91246498D01*
X107904566Y-91229595D01*
X106632053Y-89957082D01*
X106598027Y-89894770D01*
X106598069Y-89847921D01*
X106597519Y-89847869D01*
X106598074Y-89841997D01*
X106600500Y-89816334D01*
X106600500Y-89033666D01*
X106597519Y-89002131D01*
X106552634Y-88874316D01*
X106547042Y-88866746D01*
X106547041Y-88866743D01*
X106477742Y-88772921D01*
X106472150Y-88765350D01*
X106455206Y-88752835D01*
X106370757Y-88690459D01*
X106370754Y-88690458D01*
X106363184Y-88684866D01*
X106235369Y-88639981D01*
X106227723Y-88639258D01*
X106227722Y-88639258D01*
X106219088Y-88638442D01*
X106203834Y-88637000D01*
X105146166Y-88637000D01*
X105114631Y-88639981D01*
X105107387Y-88642525D01*
X105103494Y-88643379D01*
X105032670Y-88638442D01*
X104975758Y-88595997D01*
X104950827Y-88529522D01*
X104950490Y-88520307D01*
X104950490Y-88316068D01*
X104970492Y-88247947D01*
X105024148Y-88201454D01*
X105090098Y-88190805D01*
X105148329Y-88197131D01*
X105155144Y-88197500D01*
X105526885Y-88197500D01*
X105542124Y-88193025D01*
X105543329Y-88191635D01*
X105545000Y-88183952D01*
X105545000Y-88179385D01*
X105805000Y-88179385D01*
X105809475Y-88194624D01*
X105810865Y-88195829D01*
X105818548Y-88197500D01*
X106194856Y-88197500D01*
X106201673Y-88197131D01*
X106252784Y-88191579D01*
X106268040Y-88187951D01*
X106389028Y-88142595D01*
X106404615Y-88134061D01*
X106507153Y-88057214D01*
X106519714Y-88044653D01*
X106596561Y-87942115D01*
X106605095Y-87926528D01*
X106650451Y-87805540D01*
X106654079Y-87790284D01*
X106659631Y-87739173D01*
X106660000Y-87732356D01*
X106660000Y-87498115D01*
X106655525Y-87482876D01*
X106654135Y-87481671D01*
X106646452Y-87480000D01*
X105823115Y-87480000D01*
X105807876Y-87484475D01*
X105806671Y-87485865D01*
X105805000Y-87493548D01*
X105805000Y-88179385D01*
X105545000Y-88179385D01*
X105545000Y-87201885D01*
X105805000Y-87201885D01*
X105809475Y-87217124D01*
X105810865Y-87218329D01*
X105818548Y-87220000D01*
X106641885Y-87220000D01*
X106657124Y-87215525D01*
X106658329Y-87214135D01*
X106660000Y-87206452D01*
X106660000Y-86967644D01*
X106659631Y-86960827D01*
X106654079Y-86909716D01*
X106650451Y-86894460D01*
X106605095Y-86773472D01*
X106596561Y-86757885D01*
X106519714Y-86655347D01*
X106507153Y-86642786D01*
X106404615Y-86565939D01*
X106389028Y-86557405D01*
X106268040Y-86512049D01*
X106252784Y-86508421D01*
X106201673Y-86502869D01*
X106194856Y-86502500D01*
X105823115Y-86502500D01*
X105807876Y-86506975D01*
X105806671Y-86508365D01*
X105805000Y-86516048D01*
X105805000Y-87201885D01*
X105545000Y-87201885D01*
X105545000Y-86520615D01*
X105540525Y-86505376D01*
X105539135Y-86504171D01*
X105531452Y-86502500D01*
X105155144Y-86502500D01*
X105148329Y-86502869D01*
X105090098Y-86509195D01*
X105020215Y-86496667D01*
X104968200Y-86448346D01*
X104950490Y-86383932D01*
X104950490Y-76476671D01*
X104970492Y-76408550D01*
X104987395Y-76387576D01*
X105559933Y-75815038D01*
X105622245Y-75781012D01*
X105693060Y-75786077D01*
X105749896Y-75828624D01*
X105763524Y-75853252D01*
X105764791Y-75860053D01*
X105770893Y-75869952D01*
X105777727Y-75881039D01*
X105786231Y-75897411D01*
X105792451Y-75911888D01*
X105792453Y-75911892D01*
X105795964Y-75920063D01*
X105799978Y-75924949D01*
X105802163Y-75927134D01*
X105804215Y-75929397D01*
X105804055Y-75929542D01*
X105811175Y-75938549D01*
X105817427Y-75945444D01*
X105823532Y-75955348D01*
X105845320Y-75971916D01*
X105858139Y-75983110D01*
X107039148Y-77164119D01*
X107074502Y-77233503D01*
X107086260Y-77307740D01*
X107090281Y-77333126D01*
X107151472Y-77453220D01*
X107246780Y-77548528D01*
X107366874Y-77609719D01*
X107376663Y-77611269D01*
X107376665Y-77611270D01*
X107490207Y-77629253D01*
X107500000Y-77630804D01*
X107509793Y-77629253D01*
X107623335Y-77611270D01*
X107623337Y-77611269D01*
X107633126Y-77609719D01*
X107753220Y-77548528D01*
X107848528Y-77453220D01*
X107909719Y-77333126D01*
X107914094Y-77305507D01*
X107929253Y-77209793D01*
X107930804Y-77200000D01*
X107929184Y-77189769D01*
X107911270Y-77076665D01*
X107911269Y-77076663D01*
X107909719Y-77066874D01*
X107848528Y-76946780D01*
X107753220Y-76851472D01*
X107633126Y-76790281D01*
X107623335Y-76788730D01*
X107623334Y-76788730D01*
X107591479Y-76783685D01*
X107533505Y-76774503D01*
X107469353Y-76744091D01*
X107464121Y-76739149D01*
X106594422Y-75869450D01*
X106560396Y-75807138D01*
X106565461Y-75736323D01*
X106590616Y-75697182D01*
X106594552Y-75694552D01*
X106601186Y-75684623D01*
X106663217Y-75650751D01*
X106734032Y-75655816D01*
X106778782Y-75684576D01*
X106785448Y-75694552D01*
X106851769Y-75738867D01*
X106863938Y-75741288D01*
X106863939Y-75741288D01*
X106903983Y-75749253D01*
X106910252Y-75750500D01*
X107749748Y-75750500D01*
X107756017Y-75749253D01*
X107796061Y-75741288D01*
X107796062Y-75741288D01*
X107808231Y-75738867D01*
X107874552Y-75694552D01*
X107876410Y-75691771D01*
X107933217Y-75660751D01*
X108004032Y-75665816D01*
X108042967Y-75690838D01*
X108045448Y-75694552D01*
X108111769Y-75738867D01*
X108123938Y-75741288D01*
X108123939Y-75741288D01*
X108163983Y-75749253D01*
X108170252Y-75750500D01*
X109009748Y-75750500D01*
X109016017Y-75749253D01*
X109056061Y-75741288D01*
X109056062Y-75741288D01*
X109068231Y-75738867D01*
X109078549Y-75731973D01*
X109078553Y-75731971D01*
X109107636Y-75712539D01*
X109175389Y-75691324D01*
X109243855Y-75710107D01*
X109266732Y-75728209D01*
X109282866Y-75744343D01*
X109348233Y-75788020D01*
X109370725Y-75797336D01*
X109428323Y-75808793D01*
X109440578Y-75810000D01*
X109711885Y-75810000D01*
X109727124Y-75805525D01*
X109728329Y-75804135D01*
X109730000Y-75796452D01*
X109730000Y-75791884D01*
X109990000Y-75791884D01*
X109994475Y-75807123D01*
X109995865Y-75808328D01*
X110003548Y-75809999D01*
X110279420Y-75809999D01*
X110291680Y-75808791D01*
X110349272Y-75797337D01*
X110371768Y-75788019D01*
X110437134Y-75744343D01*
X110457274Y-75724203D01*
X110519586Y-75690177D01*
X110590401Y-75695242D01*
X110616372Y-75708534D01*
X110651449Y-75731972D01*
X110651452Y-75731973D01*
X110661769Y-75738867D01*
X110673938Y-75741288D01*
X110673939Y-75741288D01*
X110713983Y-75749253D01*
X110720252Y-75750500D01*
X111559748Y-75750500D01*
X111566017Y-75749253D01*
X111606061Y-75741288D01*
X111606062Y-75741288D01*
X111618231Y-75738867D01*
X111684552Y-75694552D01*
X111688798Y-75688197D01*
X111748217Y-75655751D01*
X111819032Y-75660816D01*
X111860874Y-75687707D01*
X111865448Y-75694552D01*
X111931769Y-75738867D01*
X111943938Y-75741288D01*
X111943939Y-75741288D01*
X111983983Y-75749253D01*
X111990252Y-75750500D01*
X112829748Y-75750500D01*
X112836017Y-75749253D01*
X112876061Y-75741288D01*
X112876062Y-75741288D01*
X112888231Y-75738867D01*
X112954552Y-75694552D01*
X112956410Y-75691771D01*
X113013217Y-75660751D01*
X113084032Y-75665816D01*
X113122967Y-75690838D01*
X113125448Y-75694552D01*
X113191769Y-75738867D01*
X113203938Y-75741288D01*
X113203939Y-75741288D01*
X113243983Y-75749253D01*
X113250252Y-75750500D01*
X113259687Y-75750500D01*
X113261326Y-75750981D01*
X113262602Y-75751107D01*
X113262578Y-75751349D01*
X113327808Y-75770502D01*
X113374301Y-75824158D01*
X113379195Y-75839635D01*
X113382661Y-75848617D01*
X113384791Y-75860053D01*
X113395196Y-75876933D01*
X113397727Y-75881039D01*
X113406231Y-75897411D01*
X113412451Y-75911888D01*
X113412453Y-75911892D01*
X113415964Y-75920063D01*
X113419978Y-75924949D01*
X113422163Y-75927134D01*
X113424215Y-75929397D01*
X113424055Y-75929542D01*
X113431175Y-75938549D01*
X113437427Y-75945444D01*
X113443532Y-75955348D01*
X113458194Y-75966497D01*
X113465307Y-75971906D01*
X113478136Y-75983107D01*
X113574547Y-76079519D01*
X113670488Y-76175460D01*
X113672237Y-76177486D01*
X113674575Y-76182269D01*
X113710490Y-76215585D01*
X113713869Y-76218841D01*
X113727276Y-76232248D01*
X113731255Y-76234978D01*
X113733884Y-76237286D01*
X113756646Y-76258401D01*
X113767453Y-76262712D01*
X113771448Y-76265238D01*
X113782242Y-76271001D01*
X113786554Y-76272912D01*
X113796146Y-76279492D01*
X113807463Y-76282178D01*
X113807464Y-76282178D01*
X113820127Y-76285183D01*
X113837724Y-76290748D01*
X113852362Y-76296588D01*
X113852365Y-76296589D01*
X113860622Y-76299883D01*
X113866915Y-76300500D01*
X113869994Y-76300500D01*
X113873067Y-76300650D01*
X113873056Y-76300866D01*
X113884431Y-76302198D01*
X113893746Y-76302654D01*
X113905066Y-76305340D01*
X113916595Y-76303771D01*
X113916596Y-76303771D01*
X113932173Y-76301651D01*
X113949164Y-76300500D01*
X115321562Y-76300500D01*
X115389683Y-76320502D01*
X115410657Y-76337405D01*
X115421780Y-76348528D01*
X115541874Y-76409719D01*
X115551663Y-76411269D01*
X115551665Y-76411270D01*
X115665207Y-76429253D01*
X115675000Y-76430804D01*
X115684793Y-76429253D01*
X115798335Y-76411270D01*
X115798337Y-76411269D01*
X115808126Y-76409719D01*
X115928220Y-76348528D01*
X116023528Y-76253220D01*
X116084719Y-76133126D01*
X116088812Y-76107287D01*
X116104253Y-76009793D01*
X116105804Y-76000000D01*
X116096071Y-75938549D01*
X116086270Y-75876665D01*
X116086269Y-75876663D01*
X116084719Y-75866874D01*
X116023528Y-75746780D01*
X115928220Y-75651472D01*
X115808126Y-75590281D01*
X115798337Y-75588731D01*
X115798335Y-75588730D01*
X115684793Y-75570747D01*
X115675000Y-75569196D01*
X115672543Y-75569585D01*
X115608379Y-75550745D01*
X115561886Y-75497089D01*
X115550500Y-75444747D01*
X115550500Y-74230252D01*
X115538867Y-74171769D01*
X115494552Y-74105448D01*
X115428231Y-74061133D01*
X115416062Y-74058712D01*
X115416061Y-74058712D01*
X115375816Y-74050707D01*
X115369748Y-74049500D01*
X114530252Y-74049500D01*
X114524184Y-74050707D01*
X114483939Y-74058712D01*
X114483938Y-74058712D01*
X114471769Y-74061133D01*
X114405448Y-74105448D01*
X114398814Y-74115377D01*
X114336783Y-74149249D01*
X114265968Y-74144184D01*
X114221218Y-74115424D01*
X114214552Y-74105448D01*
X114148231Y-74061133D01*
X114136062Y-74058712D01*
X114136061Y-74058712D01*
X114095816Y-74050707D01*
X114089748Y-74049500D01*
X113250252Y-74049500D01*
X113244184Y-74050707D01*
X113203939Y-74058712D01*
X113203938Y-74058712D01*
X113191769Y-74061133D01*
X113125448Y-74105448D01*
X113123590Y-74108229D01*
X113066783Y-74139249D01*
X112995968Y-74134184D01*
X112957033Y-74109162D01*
X112954552Y-74105448D01*
X112888231Y-74061133D01*
X112876062Y-74058712D01*
X112876061Y-74058712D01*
X112835816Y-74050707D01*
X112829748Y-74049500D01*
X111990252Y-74049500D01*
X111984184Y-74050707D01*
X111943939Y-74058712D01*
X111943938Y-74058712D01*
X111931769Y-74061133D01*
X111865448Y-74105448D01*
X111861202Y-74111803D01*
X111801783Y-74144249D01*
X111730968Y-74139184D01*
X111689126Y-74112293D01*
X111684552Y-74105448D01*
X111618231Y-74061133D01*
X111606062Y-74058712D01*
X111606061Y-74058712D01*
X111565816Y-74050707D01*
X111559748Y-74049500D01*
X110720252Y-74049500D01*
X110714184Y-74050707D01*
X110673939Y-74058712D01*
X110673938Y-74058712D01*
X110661769Y-74061133D01*
X110651452Y-74068027D01*
X110651449Y-74068028D01*
X110616372Y-74091466D01*
X110548619Y-74112682D01*
X110480152Y-74093900D01*
X110457274Y-74075797D01*
X110437134Y-74055657D01*
X110371767Y-74011980D01*
X110349275Y-74002664D01*
X110291677Y-73991207D01*
X110279422Y-73990000D01*
X110008115Y-73990000D01*
X109992876Y-73994475D01*
X109991671Y-73995865D01*
X109990000Y-74003548D01*
X109990000Y-75791884D01*
X109730000Y-75791884D01*
X109730000Y-74008118D01*
X109718570Y-73969192D01*
X109718570Y-73898196D01*
X109750371Y-73844598D01*
X110000582Y-73594388D01*
X110757565Y-72837405D01*
X110819877Y-72803379D01*
X110846660Y-72800500D01*
X122423500Y-72800500D01*
X122491621Y-72820502D01*
X122538114Y-72874158D01*
X122549500Y-72926500D01*
X122549500Y-73119748D01*
X122550707Y-73125816D01*
X122558433Y-73164655D01*
X122561133Y-73178231D01*
X122605448Y-73244552D01*
X122671769Y-73288867D01*
X122683938Y-73291288D01*
X122683939Y-73291288D01*
X122724184Y-73299293D01*
X122730252Y-73300500D01*
X123969748Y-73300500D01*
X123975816Y-73299293D01*
X124016061Y-73291288D01*
X124016062Y-73291288D01*
X124028231Y-73288867D01*
X124094552Y-73244552D01*
X124138867Y-73178231D01*
X124141568Y-73164655D01*
X124149293Y-73125816D01*
X124150500Y-73119748D01*
X124150500Y-71880252D01*
X124149293Y-71874184D01*
X124141288Y-71833939D01*
X124141288Y-71833938D01*
X124138867Y-71821769D01*
X124130882Y-71809818D01*
X124101443Y-71765761D01*
X124094552Y-71755448D01*
X124046781Y-71723528D01*
X124038547Y-71718026D01*
X124028231Y-71711133D01*
X123997197Y-71704960D01*
X123934288Y-71672052D01*
X123899157Y-71610356D01*
X123902958Y-71539461D01*
X123932685Y-71492286D01*
X125087566Y-70337405D01*
X125149878Y-70303379D01*
X125176661Y-70300500D01*
X129975082Y-70300500D01*
X130043203Y-70320502D01*
X130089696Y-70374158D01*
X130100523Y-70414648D01*
X130101364Y-70423545D01*
X130102481Y-70435370D01*
X130119817Y-70484736D01*
X130143800Y-70553029D01*
X130147366Y-70563184D01*
X130167895Y-70590978D01*
X130173547Y-70598630D01*
X130197930Y-70665309D01*
X130182393Y-70734584D01*
X130131870Y-70784463D01*
X130072196Y-70799490D01*
X128102376Y-70799490D01*
X128099703Y-70799294D01*
X128094668Y-70797565D01*
X128083046Y-70798001D01*
X128083044Y-70798001D01*
X128045755Y-70799401D01*
X128041029Y-70799490D01*
X128022062Y-70799490D01*
X128017327Y-70800372D01*
X128013801Y-70800600D01*
X128010061Y-70800741D01*
X127982802Y-70801764D01*
X127972117Y-70806354D01*
X127967517Y-70807391D01*
X127955796Y-70810952D01*
X127951393Y-70812651D01*
X127939957Y-70814781D01*
X127918971Y-70827717D01*
X127902599Y-70836221D01*
X127888122Y-70842441D01*
X127888118Y-70842443D01*
X127879947Y-70845954D01*
X127875061Y-70849968D01*
X127872876Y-70852153D01*
X127870613Y-70854205D01*
X127870468Y-70854045D01*
X127861461Y-70861165D01*
X127854566Y-70867417D01*
X127844662Y-70873522D01*
X127828094Y-70895310D01*
X127816900Y-70908129D01*
X127062434Y-71662595D01*
X127000122Y-71696621D01*
X126973339Y-71699500D01*
X126030252Y-71699500D01*
X126024184Y-71700707D01*
X125983939Y-71708712D01*
X125983938Y-71708712D01*
X125971769Y-71711133D01*
X125961453Y-71718026D01*
X125953219Y-71723528D01*
X125905448Y-71755448D01*
X125898557Y-71765761D01*
X125869119Y-71809818D01*
X125861133Y-71821769D01*
X125858712Y-71833938D01*
X125858712Y-71833939D01*
X125850707Y-71874184D01*
X125849500Y-71880252D01*
X125849500Y-73119748D01*
X125850707Y-73125816D01*
X125858433Y-73164655D01*
X125861133Y-73178231D01*
X125905448Y-73244552D01*
X125971769Y-73288867D01*
X125983938Y-73291288D01*
X125983939Y-73291288D01*
X126024184Y-73299293D01*
X126030252Y-73300500D01*
X127269748Y-73300500D01*
X127275816Y-73299293D01*
X127316061Y-73291288D01*
X127316062Y-73291288D01*
X127328231Y-73288867D01*
X127394552Y-73244552D01*
X127438867Y-73178231D01*
X127441568Y-73164655D01*
X127449293Y-73125816D01*
X127450500Y-73119748D01*
X127450500Y-72176661D01*
X127470502Y-72108540D01*
X127487405Y-72087566D01*
X128137576Y-71437395D01*
X128199888Y-71403369D01*
X128226671Y-71400490D01*
X129982806Y-71400490D01*
X130050927Y-71420492D01*
X130097420Y-71474148D01*
X130107524Y-71544422D01*
X130105879Y-71553491D01*
X130105024Y-71557389D01*
X130102481Y-71564630D01*
X130099500Y-71596165D01*
X130099501Y-71886439D01*
X130099501Y-72053266D01*
X130079499Y-72121387D01*
X130025844Y-72167880D01*
X129953791Y-72177715D01*
X129909794Y-72170747D01*
X129909793Y-72170747D01*
X129900000Y-72169196D01*
X129890207Y-72170747D01*
X129776665Y-72188730D01*
X129776663Y-72188731D01*
X129766874Y-72190281D01*
X129646780Y-72251472D01*
X129551472Y-72346780D01*
X129490281Y-72466874D01*
X129475542Y-72559936D01*
X129474503Y-72566494D01*
X129444091Y-72630647D01*
X129439149Y-72635879D01*
X127412434Y-74662595D01*
X127350122Y-74696620D01*
X127323339Y-74699500D01*
X126128452Y-74699500D01*
X126060331Y-74679498D01*
X126039357Y-74662595D01*
X126028234Y-74651472D01*
X125908140Y-74590281D01*
X125898351Y-74588731D01*
X125898349Y-74588730D01*
X125784807Y-74570747D01*
X125775014Y-74569196D01*
X125765221Y-74570747D01*
X125651679Y-74588730D01*
X125651677Y-74588731D01*
X125641888Y-74590281D01*
X125521794Y-74651472D01*
X125426486Y-74746780D01*
X125365295Y-74866874D01*
X125344210Y-75000000D01*
X125345761Y-75009793D01*
X125362018Y-75112434D01*
X125365295Y-75133126D01*
X125426486Y-75253220D01*
X125521794Y-75348528D01*
X125641888Y-75409719D01*
X125651677Y-75411269D01*
X125651679Y-75411270D01*
X125765221Y-75429253D01*
X125775014Y-75430804D01*
X125784807Y-75429253D01*
X125898349Y-75411270D01*
X125898351Y-75411269D01*
X125908140Y-75409719D01*
X126028234Y-75348528D01*
X126039357Y-75337405D01*
X126101669Y-75303379D01*
X126128452Y-75300500D01*
X127447634Y-75300500D01*
X127450307Y-75300696D01*
X127455342Y-75302425D01*
X127466964Y-75301989D01*
X127466966Y-75301989D01*
X127504255Y-75300589D01*
X127508981Y-75300500D01*
X127527948Y-75300500D01*
X127532683Y-75299618D01*
X127536209Y-75299390D01*
X127567208Y-75298226D01*
X127567365Y-75302416D01*
X127616062Y-75305528D01*
X127673219Y-75347643D01*
X127698532Y-75413974D01*
X127683967Y-75483460D01*
X127662020Y-75513009D01*
X127537456Y-75637573D01*
X127475144Y-75671599D01*
X127448361Y-75674478D01*
X127023978Y-75674478D01*
X127021305Y-75674282D01*
X127016270Y-75672553D01*
X127004648Y-75672989D01*
X127004646Y-75672989D01*
X126967356Y-75674389D01*
X126962630Y-75674478D01*
X126943664Y-75674478D01*
X126938929Y-75675359D01*
X126935402Y-75675588D01*
X126930866Y-75675758D01*
X126904403Y-75676752D01*
X126893716Y-75681344D01*
X126889104Y-75682383D01*
X126877412Y-75685935D01*
X126872995Y-75687639D01*
X126861559Y-75689769D01*
X126840573Y-75702705D01*
X126824201Y-75711209D01*
X126809724Y-75717429D01*
X126809720Y-75717431D01*
X126801549Y-75720942D01*
X126796663Y-75724956D01*
X126794478Y-75727141D01*
X126792215Y-75729193D01*
X126792070Y-75729033D01*
X126783063Y-75736153D01*
X126776168Y-75742405D01*
X126766264Y-75748510D01*
X126749696Y-75770298D01*
X126738502Y-75783117D01*
X125684024Y-76837595D01*
X125621712Y-76871621D01*
X125594929Y-76874500D01*
X111128438Y-76874500D01*
X111060317Y-76854498D01*
X111039343Y-76837595D01*
X111028220Y-76826472D01*
X110908126Y-76765281D01*
X110898337Y-76763731D01*
X110898335Y-76763730D01*
X110784793Y-76745747D01*
X110775000Y-76744196D01*
X110765207Y-76745747D01*
X110651665Y-76763730D01*
X110651663Y-76763731D01*
X110641874Y-76765281D01*
X110521780Y-76826472D01*
X110426472Y-76921780D01*
X110365281Y-77041874D01*
X110363731Y-77051663D01*
X110363730Y-77051665D01*
X110355106Y-77106118D01*
X110344196Y-77175000D01*
X110345747Y-77184793D01*
X110363540Y-77297132D01*
X110365281Y-77308126D01*
X110426472Y-77428220D01*
X110521780Y-77523528D01*
X110641874Y-77584719D01*
X110651663Y-77586269D01*
X110651665Y-77586270D01*
X110765207Y-77604253D01*
X110775000Y-77605804D01*
X110784793Y-77604253D01*
X110898335Y-77586270D01*
X110898337Y-77586269D01*
X110908126Y-77584719D01*
X111028220Y-77523528D01*
X111039343Y-77512405D01*
X111101655Y-77478379D01*
X111128438Y-77475500D01*
X116244915Y-77475500D01*
X116313036Y-77495502D01*
X116359529Y-77549158D01*
X116369633Y-77619432D01*
X116357182Y-77658702D01*
X116344783Y-77683037D01*
X116344782Y-77683041D01*
X116340281Y-77691874D01*
X116338731Y-77701663D01*
X116338730Y-77701665D01*
X116320747Y-77815207D01*
X116319196Y-77825000D01*
X116320747Y-77834793D01*
X116334771Y-77923335D01*
X116340281Y-77958126D01*
X116401472Y-78078220D01*
X116496780Y-78173528D01*
X116616874Y-78234719D01*
X116626663Y-78236269D01*
X116626665Y-78236270D01*
X116740207Y-78254253D01*
X116750000Y-78255804D01*
X116759793Y-78254253D01*
X116873335Y-78236270D01*
X116873337Y-78236269D01*
X116883126Y-78234719D01*
X117003220Y-78173528D01*
X117014343Y-78162405D01*
X117076655Y-78128379D01*
X117103438Y-78125500D01*
X125634924Y-78125500D01*
X125637597Y-78125696D01*
X125642632Y-78127425D01*
X125654254Y-78126989D01*
X125654256Y-78126989D01*
X125691545Y-78125589D01*
X125696271Y-78125500D01*
X125715238Y-78125500D01*
X125719973Y-78124618D01*
X125723499Y-78124390D01*
X125727239Y-78124249D01*
X125754498Y-78123226D01*
X125765183Y-78118636D01*
X125769783Y-78117599D01*
X125781504Y-78114038D01*
X125785907Y-78112339D01*
X125797343Y-78110209D01*
X125818331Y-78097272D01*
X125834701Y-78088769D01*
X125849178Y-78082549D01*
X125849182Y-78082547D01*
X125857353Y-78079036D01*
X125862239Y-78075022D01*
X125864424Y-78072837D01*
X125866687Y-78070785D01*
X125866832Y-78070945D01*
X125875839Y-78063825D01*
X125882734Y-78057573D01*
X125892638Y-78051468D01*
X125909206Y-78029680D01*
X125920400Y-78016861D01*
X127224868Y-76712394D01*
X127287180Y-76678368D01*
X127313963Y-76675489D01*
X128722645Y-76675489D01*
X128725318Y-76675685D01*
X128730353Y-76677414D01*
X128741975Y-76676978D01*
X128741977Y-76676978D01*
X128779266Y-76675578D01*
X128783992Y-76675489D01*
X128802959Y-76675489D01*
X128807694Y-76674607D01*
X128811220Y-76674379D01*
X128814960Y-76674238D01*
X128842219Y-76673215D01*
X128852904Y-76668625D01*
X128857504Y-76667588D01*
X128869225Y-76664027D01*
X128873628Y-76662328D01*
X128885064Y-76660198D01*
X128906052Y-76647261D01*
X128922422Y-76638758D01*
X128936899Y-76632538D01*
X128936903Y-76632536D01*
X128945074Y-76629025D01*
X128949960Y-76625011D01*
X128952145Y-76622826D01*
X128954408Y-76620774D01*
X128954553Y-76620934D01*
X128963560Y-76613814D01*
X128970455Y-76607562D01*
X128980359Y-76601457D01*
X128996927Y-76579669D01*
X129008121Y-76566850D01*
X129114119Y-76460852D01*
X129183503Y-76425498D01*
X129273334Y-76411270D01*
X129273335Y-76411270D01*
X129283126Y-76409719D01*
X129403220Y-76348528D01*
X129498528Y-76253220D01*
X129559719Y-76133126D01*
X129563812Y-76107287D01*
X129579253Y-76009793D01*
X129580804Y-76000000D01*
X129571071Y-75938549D01*
X129561270Y-75876665D01*
X129561269Y-75876663D01*
X129559719Y-75866874D01*
X129498528Y-75746780D01*
X129403220Y-75651472D01*
X129283126Y-75590281D01*
X129273337Y-75588731D01*
X129273335Y-75588730D01*
X129159793Y-75570747D01*
X129150000Y-75569196D01*
X129140207Y-75570747D01*
X129026665Y-75588730D01*
X129026663Y-75588731D01*
X129016874Y-75590281D01*
X128896780Y-75651472D01*
X128801472Y-75746780D01*
X128740281Y-75866874D01*
X128738730Y-75876665D01*
X128738730Y-75876666D01*
X128724502Y-75966497D01*
X128689148Y-76035881D01*
X128687445Y-76037584D01*
X128625133Y-76071610D01*
X128598350Y-76074489D01*
X128254672Y-76074489D01*
X128186551Y-76054487D01*
X128140058Y-76000831D01*
X128129954Y-75930557D01*
X128159448Y-75865977D01*
X128165577Y-75859394D01*
X131175452Y-72849519D01*
X131177486Y-72847763D01*
X131182269Y-72845425D01*
X131190182Y-72836895D01*
X131199518Y-72829961D01*
X131201125Y-72832125D01*
X131247543Y-72804470D01*
X131278926Y-72800499D01*
X131503834Y-72800499D01*
X131506784Y-72800220D01*
X131506789Y-72800220D01*
X131527721Y-72798242D01*
X131527723Y-72798242D01*
X131535370Y-72797519D01*
X131599848Y-72774876D01*
X131654298Y-72755755D01*
X131654301Y-72755754D01*
X131663184Y-72752634D01*
X131772150Y-72672150D01*
X131844519Y-72574171D01*
X131901080Y-72531261D01*
X131971862Y-72525741D01*
X132034965Y-72559936D01*
X133101872Y-73626844D01*
X134162595Y-74687567D01*
X134196621Y-74749879D01*
X134199500Y-74776662D01*
X134199500Y-75569748D01*
X134200707Y-75575816D01*
X134204480Y-75594782D01*
X134211133Y-75628231D01*
X134255448Y-75694552D01*
X134321769Y-75738867D01*
X134333938Y-75741288D01*
X134333939Y-75741288D01*
X134373983Y-75749253D01*
X134380252Y-75750500D01*
X134385994Y-75750500D01*
X134451682Y-75777024D01*
X134492692Y-75834979D01*
X134499500Y-75875835D01*
X134499500Y-75968277D01*
X134479498Y-76036398D01*
X134425842Y-76082891D01*
X134355568Y-76092995D01*
X134316298Y-76080544D01*
X134253962Y-76048783D01*
X134253961Y-76048783D01*
X134245126Y-76044281D01*
X134235337Y-76042731D01*
X134235335Y-76042730D01*
X134121793Y-76024747D01*
X134112000Y-76023196D01*
X134102207Y-76024747D01*
X133988665Y-76042730D01*
X133988663Y-76042731D01*
X133978874Y-76044281D01*
X133858780Y-76105472D01*
X133763472Y-76200780D01*
X133702281Y-76320874D01*
X133700730Y-76330665D01*
X133700730Y-76330666D01*
X133686502Y-76420497D01*
X133651148Y-76489881D01*
X131484434Y-78656595D01*
X131422122Y-78690621D01*
X131395339Y-78693500D01*
X126337438Y-78693500D01*
X126269317Y-78673498D01*
X126248343Y-78656595D01*
X126237220Y-78645472D01*
X126117126Y-78584281D01*
X126107337Y-78582731D01*
X126107335Y-78582730D01*
X125993793Y-78564747D01*
X125984000Y-78563196D01*
X125974207Y-78564747D01*
X125860665Y-78582730D01*
X125860663Y-78582731D01*
X125850874Y-78584281D01*
X125730780Y-78645472D01*
X125635472Y-78740780D01*
X125574281Y-78860874D01*
X125572731Y-78870663D01*
X125572730Y-78870665D01*
X125555373Y-78980252D01*
X125553196Y-78994000D01*
X125574281Y-79127126D01*
X125635472Y-79247220D01*
X125730780Y-79342528D01*
X125850874Y-79403719D01*
X125860663Y-79405269D01*
X125860665Y-79405270D01*
X125974207Y-79423253D01*
X125984000Y-79424804D01*
X125993793Y-79423253D01*
X126107335Y-79405270D01*
X126107337Y-79405269D01*
X126117126Y-79403719D01*
X126237220Y-79342528D01*
X126248343Y-79331405D01*
X126310655Y-79297379D01*
X126337438Y-79294500D01*
X131519634Y-79294500D01*
X131522307Y-79294696D01*
X131527342Y-79296425D01*
X131538964Y-79295989D01*
X131538966Y-79295989D01*
X131576255Y-79294589D01*
X131580981Y-79294500D01*
X131599948Y-79294500D01*
X131604683Y-79293618D01*
X131608209Y-79293390D01*
X131611949Y-79293249D01*
X131639208Y-79292226D01*
X131649893Y-79287636D01*
X131654493Y-79286599D01*
X131666214Y-79283038D01*
X131670617Y-79281339D01*
X131682053Y-79279209D01*
X131703041Y-79266272D01*
X131719411Y-79257769D01*
X131733888Y-79251549D01*
X131733892Y-79251547D01*
X131742063Y-79248036D01*
X131746949Y-79244022D01*
X131749134Y-79241837D01*
X131751397Y-79239785D01*
X131751542Y-79239945D01*
X131760549Y-79232825D01*
X131767444Y-79226573D01*
X131777348Y-79220468D01*
X131793916Y-79198680D01*
X131805110Y-79185861D01*
X133425577Y-77565394D01*
X133487889Y-77531368D01*
X133558704Y-77536433D01*
X133615540Y-77578980D01*
X133640351Y-77645500D01*
X133639121Y-77674197D01*
X133633414Y-77710231D01*
X133624502Y-77766498D01*
X133589148Y-77835881D01*
X131752434Y-79672595D01*
X131690122Y-79706621D01*
X131663339Y-79709500D01*
X124305438Y-79709500D01*
X124237317Y-79689498D01*
X124216343Y-79672595D01*
X124205220Y-79661472D01*
X124085126Y-79600281D01*
X124075337Y-79598731D01*
X124075335Y-79598730D01*
X123961793Y-79580747D01*
X123952000Y-79579196D01*
X123942207Y-79580747D01*
X123828665Y-79598730D01*
X123828663Y-79598731D01*
X123818874Y-79600281D01*
X123698780Y-79661472D01*
X123603472Y-79756780D01*
X123542281Y-79876874D01*
X123521196Y-80010000D01*
X123542281Y-80143126D01*
X123603472Y-80263220D01*
X123698780Y-80358528D01*
X123818874Y-80419719D01*
X123828663Y-80421269D01*
X123828665Y-80421270D01*
X123942207Y-80439253D01*
X123952000Y-80440804D01*
X123961793Y-80439253D01*
X124075335Y-80421270D01*
X124075337Y-80421269D01*
X124085126Y-80419719D01*
X124205220Y-80358528D01*
X124216343Y-80347405D01*
X124278655Y-80313379D01*
X124305438Y-80310500D01*
X131685339Y-80310500D01*
X131753460Y-80330502D01*
X131799953Y-80384158D01*
X131810057Y-80454432D01*
X131780563Y-80519012D01*
X131774434Y-80525595D01*
X128817434Y-83482595D01*
X128755122Y-83516621D01*
X128728339Y-83519500D01*
X124051438Y-83519500D01*
X123983317Y-83499498D01*
X123962343Y-83482595D01*
X123951220Y-83471472D01*
X123831126Y-83410281D01*
X123821337Y-83408731D01*
X123821335Y-83408730D01*
X123707793Y-83390747D01*
X123698000Y-83389196D01*
X123688207Y-83390747D01*
X123574665Y-83408730D01*
X123574663Y-83408731D01*
X123564874Y-83410281D01*
X123444780Y-83471472D01*
X123349472Y-83566780D01*
X123288281Y-83686874D01*
X123267196Y-83820000D01*
X123268747Y-83829793D01*
X123286658Y-83942877D01*
X123288281Y-83953126D01*
X123349472Y-84073220D01*
X123444780Y-84168528D01*
X123564874Y-84229719D01*
X123574663Y-84231269D01*
X123574665Y-84231270D01*
X123688207Y-84249253D01*
X123698000Y-84250804D01*
X123707793Y-84249253D01*
X123821335Y-84231270D01*
X123821337Y-84231269D01*
X123831126Y-84229719D01*
X123951220Y-84168528D01*
X123962343Y-84157405D01*
X124024655Y-84123379D01*
X124051438Y-84120500D01*
X128852634Y-84120500D01*
X128855307Y-84120696D01*
X128860342Y-84122425D01*
X128871964Y-84121989D01*
X128871966Y-84121989D01*
X128909255Y-84120589D01*
X128913981Y-84120500D01*
X128932948Y-84120500D01*
X128937683Y-84119618D01*
X128941209Y-84119390D01*
X128945015Y-84119247D01*
X128972208Y-84118226D01*
X128982893Y-84113636D01*
X128987493Y-84112599D01*
X128999214Y-84109038D01*
X129003617Y-84107339D01*
X129015053Y-84105209D01*
X129036041Y-84092272D01*
X129052411Y-84083769D01*
X129066888Y-84077549D01*
X129066892Y-84077547D01*
X129075063Y-84074036D01*
X129079949Y-84070022D01*
X129082134Y-84067837D01*
X129084397Y-84065785D01*
X129084542Y-84065945D01*
X129093549Y-84058825D01*
X129100444Y-84052573D01*
X129110348Y-84046468D01*
X129126916Y-84024680D01*
X129138110Y-84011861D01*
X130399971Y-82750000D01*
X135569196Y-82750000D01*
X135570747Y-82759793D01*
X135585268Y-82851472D01*
X135590281Y-82883126D01*
X135651472Y-83003220D01*
X135746780Y-83098528D01*
X135866874Y-83159719D01*
X135876663Y-83161269D01*
X135876665Y-83161270D01*
X135990207Y-83179253D01*
X136000000Y-83180804D01*
X136009793Y-83179253D01*
X136123335Y-83161270D01*
X136123337Y-83161269D01*
X136133126Y-83159719D01*
X136253220Y-83098528D01*
X136264343Y-83087405D01*
X136326655Y-83053379D01*
X136353438Y-83050500D01*
X138025125Y-83050500D01*
X138097575Y-83073413D01*
X138166547Y-83121887D01*
X138173622Y-83124646D01*
X138173625Y-83124647D01*
X138263580Y-83159719D01*
X138324513Y-83183476D01*
X138332046Y-83184468D01*
X138332047Y-83184468D01*
X138403100Y-83193822D01*
X138453826Y-83200500D01*
X143971359Y-83200500D01*
X143979929Y-83200792D01*
X144029354Y-83204162D01*
X144029358Y-83204162D01*
X144036930Y-83204678D01*
X144044406Y-83203373D01*
X144044409Y-83203373D01*
X144099132Y-83193822D01*
X144105658Y-83192859D01*
X144146096Y-83187965D01*
X144168320Y-83185276D01*
X144175427Y-83182591D01*
X144178720Y-83181782D01*
X144193191Y-83177823D01*
X144196467Y-83176834D01*
X144203954Y-83175527D01*
X144210914Y-83172472D01*
X144261760Y-83150153D01*
X144267866Y-83147661D01*
X144319818Y-83128030D01*
X144319820Y-83128029D01*
X144326923Y-83125345D01*
X144333178Y-83121046D01*
X144336203Y-83119465D01*
X144349299Y-83112175D01*
X144352243Y-83110434D01*
X144359202Y-83107379D01*
X144385233Y-83087405D01*
X144409273Y-83068958D01*
X144414609Y-83065081D01*
X144460386Y-83033619D01*
X144460392Y-83033614D01*
X144466651Y-83029312D01*
X144507609Y-82983342D01*
X144512589Y-82978067D01*
X145453251Y-82037405D01*
X145515563Y-82003379D01*
X145542346Y-82000500D01*
X147519748Y-82000500D01*
X147525816Y-81999293D01*
X147566061Y-81991288D01*
X147566062Y-81991288D01*
X147578231Y-81988867D01*
X147644552Y-81944552D01*
X147688867Y-81878231D01*
X147700500Y-81819748D01*
X147700500Y-80480252D01*
X147688867Y-80421769D01*
X147644552Y-80355448D01*
X147578231Y-80311133D01*
X147566062Y-80308712D01*
X147566061Y-80308712D01*
X147525816Y-80300707D01*
X147519748Y-80299500D01*
X145480252Y-80299500D01*
X145474184Y-80300707D01*
X145433939Y-80308712D01*
X145433938Y-80308712D01*
X145421769Y-80311133D01*
X145355448Y-80355448D01*
X145348557Y-80365761D01*
X145348555Y-80365763D01*
X145323454Y-80403329D01*
X145268977Y-80448857D01*
X145233832Y-80458413D01*
X145181680Y-80464724D01*
X145174573Y-80467409D01*
X145171280Y-80468218D01*
X145156809Y-80472177D01*
X145153533Y-80473166D01*
X145146046Y-80474473D01*
X145139088Y-80477528D01*
X145139086Y-80477528D01*
X145088242Y-80499846D01*
X145082137Y-80502338D01*
X145071126Y-80506499D01*
X145023077Y-80524655D01*
X145016824Y-80528953D01*
X145013793Y-80530537D01*
X145000716Y-80537817D01*
X144997757Y-80539567D01*
X144990797Y-80542622D01*
X144984770Y-80547247D01*
X144984766Y-80547249D01*
X144940700Y-80581062D01*
X144935381Y-80584927D01*
X144883349Y-80620688D01*
X144878292Y-80626364D01*
X144842400Y-80666648D01*
X144837419Y-80671924D01*
X143746748Y-81762595D01*
X143684436Y-81796621D01*
X143657653Y-81799500D01*
X138457484Y-81799500D01*
X138331680Y-81814724D01*
X138173077Y-81874655D01*
X138166819Y-81878956D01*
X138042907Y-81964119D01*
X138033349Y-81970688D01*
X138028297Y-81976358D01*
X138028296Y-81976359D01*
X137925612Y-82091608D01*
X137925610Y-82091612D01*
X137920560Y-82097279D01*
X137917008Y-82103988D01*
X137917007Y-82103989D01*
X137906764Y-82123335D01*
X137841224Y-82247119D01*
X137814621Y-82353028D01*
X137814328Y-82354196D01*
X137778333Y-82415391D01*
X137714968Y-82447412D01*
X137692124Y-82449500D01*
X136353438Y-82449500D01*
X136285317Y-82429498D01*
X136264343Y-82412595D01*
X136253220Y-82401472D01*
X136133126Y-82340281D01*
X136123337Y-82338731D01*
X136123335Y-82338730D01*
X136009793Y-82320747D01*
X136000000Y-82319196D01*
X135990207Y-82320747D01*
X135876665Y-82338730D01*
X135876663Y-82338731D01*
X135866874Y-82340281D01*
X135746780Y-82401472D01*
X135651472Y-82496780D01*
X135590281Y-82616874D01*
X135569196Y-82750000D01*
X130399971Y-82750000D01*
X134039119Y-79110852D01*
X134108503Y-79075498D01*
X134198334Y-79061270D01*
X134198335Y-79061270D01*
X134208126Y-79059719D01*
X134328220Y-78998528D01*
X134423528Y-78903220D01*
X134484719Y-78783126D01*
X134492537Y-78733769D01*
X134504253Y-78659793D01*
X134505804Y-78650000D01*
X134495150Y-78582730D01*
X134486270Y-78526665D01*
X134486269Y-78526663D01*
X134484719Y-78516874D01*
X134423528Y-78396780D01*
X134328343Y-78301595D01*
X134294317Y-78239283D01*
X134299382Y-78168468D01*
X134328343Y-78123405D01*
X134398528Y-78053220D01*
X134459719Y-77933126D01*
X134471346Y-77859719D01*
X134479253Y-77809793D01*
X134480804Y-77800000D01*
X134465476Y-77703220D01*
X134461270Y-77676665D01*
X134461269Y-77676663D01*
X134459719Y-77666874D01*
X134398528Y-77546780D01*
X134303220Y-77451472D01*
X134183126Y-77390281D01*
X134173337Y-77388731D01*
X134173335Y-77388730D01*
X134059793Y-77370747D01*
X134050000Y-77369196D01*
X133924199Y-77389121D01*
X133853789Y-77380021D01*
X133799475Y-77334300D01*
X133778502Y-77266471D01*
X133797529Y-77198072D01*
X133815394Y-77175577D01*
X134076119Y-76914852D01*
X134145503Y-76879498D01*
X134235334Y-76865270D01*
X134235335Y-76865270D01*
X134245126Y-76863719D01*
X134333332Y-76818776D01*
X134403108Y-76805672D01*
X134468892Y-76832372D01*
X134508055Y-76887924D01*
X134508473Y-76887763D01*
X134509117Y-76889431D01*
X134509799Y-76890399D01*
X134510452Y-76892891D01*
X134512661Y-76898615D01*
X134514791Y-76910053D01*
X134520895Y-76919955D01*
X134527727Y-76931039D01*
X134536231Y-76947411D01*
X134542451Y-76961888D01*
X134542453Y-76961892D01*
X134545964Y-76970063D01*
X134549978Y-76974949D01*
X134552163Y-76977134D01*
X134554215Y-76979397D01*
X134554055Y-76979542D01*
X134561175Y-76988549D01*
X134567427Y-76995444D01*
X134573532Y-77005348D01*
X134595320Y-77021916D01*
X134608139Y-77033110D01*
X135285467Y-77710438D01*
X135319493Y-77772750D01*
X135316407Y-77837842D01*
X135310862Y-77855218D01*
X135306854Y-77867775D01*
X135306337Y-77875351D01*
X135306337Y-77875354D01*
X135296279Y-78022898D01*
X135295322Y-78036930D01*
X135296627Y-78044407D01*
X135296627Y-78044408D01*
X135310605Y-78124498D01*
X135324473Y-78203954D01*
X135327524Y-78210903D01*
X135327524Y-78210905D01*
X135339981Y-78239283D01*
X135392621Y-78359202D01*
X135472022Y-78462678D01*
X135662595Y-78653251D01*
X135696621Y-78715563D01*
X135699500Y-78742346D01*
X135699500Y-80573339D01*
X135679498Y-80641460D01*
X135662595Y-80662434D01*
X134785881Y-81539148D01*
X134716497Y-81574502D01*
X134626666Y-81588730D01*
X134626665Y-81588730D01*
X134616874Y-81590281D01*
X134496780Y-81651472D01*
X134401472Y-81746780D01*
X134340281Y-81866874D01*
X134338731Y-81876663D01*
X134338730Y-81876665D01*
X134322940Y-81976359D01*
X134319196Y-82000000D01*
X134340281Y-82133126D01*
X134401472Y-82253220D01*
X134496780Y-82348528D01*
X134616874Y-82409719D01*
X134626663Y-82411269D01*
X134626665Y-82411270D01*
X134740207Y-82429253D01*
X134750000Y-82430804D01*
X134759793Y-82429253D01*
X134873335Y-82411270D01*
X134873337Y-82411269D01*
X134883126Y-82409719D01*
X135003220Y-82348528D01*
X135098528Y-82253220D01*
X135159719Y-82133126D01*
X135175498Y-82033503D01*
X135210852Y-81964119D01*
X136175452Y-80999519D01*
X136177486Y-80997763D01*
X136182269Y-80995425D01*
X136215573Y-80959523D01*
X136218853Y-80956118D01*
X136232248Y-80942723D01*
X136234972Y-80938753D01*
X136237297Y-80936105D01*
X136250492Y-80921881D01*
X136250494Y-80921878D01*
X136258401Y-80913354D01*
X136262711Y-80902550D01*
X136265233Y-80898561D01*
X136270994Y-80887773D01*
X136272911Y-80883448D01*
X136279492Y-80873854D01*
X136285183Y-80849873D01*
X136290748Y-80832276D01*
X136296588Y-80817638D01*
X136296589Y-80817635D01*
X136299883Y-80809378D01*
X136300500Y-80803085D01*
X136300500Y-80800006D01*
X136300650Y-80796933D01*
X136300866Y-80796944D01*
X136302198Y-80785569D01*
X136302654Y-80776254D01*
X136305340Y-80764934D01*
X136301651Y-80737827D01*
X136300500Y-80720836D01*
X136300500Y-79595346D01*
X136320502Y-79527225D01*
X136374158Y-79480732D01*
X136444432Y-79470628D01*
X136509012Y-79500122D01*
X136515579Y-79506235D01*
X137484432Y-80475089D01*
X137490270Y-80481339D01*
X137527831Y-80524396D01*
X137579490Y-80560702D01*
X137584774Y-80564627D01*
X137634457Y-80603583D01*
X137641384Y-80606711D01*
X137644315Y-80608486D01*
X137657318Y-80615903D01*
X137660332Y-80617519D01*
X137666547Y-80621887D01*
X137673623Y-80624646D01*
X137673627Y-80624648D01*
X137725364Y-80644819D01*
X137731445Y-80647375D01*
X137788984Y-80673355D01*
X137796450Y-80674739D01*
X137799699Y-80675757D01*
X137814164Y-80679877D01*
X137817437Y-80680717D01*
X137824513Y-80683476D01*
X137869183Y-80689356D01*
X137887106Y-80691716D01*
X137893623Y-80692748D01*
X137935035Y-80700423D01*
X137955692Y-80704252D01*
X137963272Y-80703815D01*
X137963273Y-80703815D01*
X138017144Y-80700709D01*
X138024396Y-80700500D01*
X141173500Y-80700500D01*
X141241621Y-80720502D01*
X141288114Y-80774158D01*
X141299500Y-80826500D01*
X141299500Y-81019748D01*
X141311133Y-81078231D01*
X141355448Y-81144552D01*
X141421769Y-81188867D01*
X141433938Y-81191288D01*
X141433939Y-81191288D01*
X141474184Y-81199293D01*
X141480252Y-81200500D01*
X143519748Y-81200500D01*
X143525816Y-81199293D01*
X143566061Y-81191288D01*
X143566062Y-81191288D01*
X143578231Y-81188867D01*
X143644552Y-81144552D01*
X143688867Y-81078231D01*
X143700500Y-81019748D01*
X143700500Y-79519748D01*
X145299500Y-79519748D01*
X145311133Y-79578231D01*
X145355448Y-79644552D01*
X145421769Y-79688867D01*
X145433938Y-79691288D01*
X145433939Y-79691288D01*
X145474184Y-79699293D01*
X145480252Y-79700500D01*
X147519748Y-79700500D01*
X147525816Y-79699293D01*
X147566061Y-79691288D01*
X147566062Y-79691288D01*
X147578231Y-79688867D01*
X147644552Y-79644552D01*
X147688867Y-79578231D01*
X147700500Y-79519748D01*
X147700500Y-78180252D01*
X147688867Y-78121769D01*
X147644552Y-78055448D01*
X147578231Y-78011133D01*
X147566062Y-78008712D01*
X147566061Y-78008712D01*
X147525816Y-78000707D01*
X147519748Y-77999500D01*
X145480252Y-77999500D01*
X145474184Y-78000707D01*
X145433939Y-78008712D01*
X145433938Y-78008712D01*
X145421769Y-78011133D01*
X145355448Y-78055448D01*
X145311133Y-78121769D01*
X145299500Y-78180252D01*
X145299500Y-79519748D01*
X143700500Y-79519748D01*
X143700500Y-78980252D01*
X143688867Y-78921769D01*
X143644552Y-78855448D01*
X143578231Y-78811133D01*
X143566062Y-78808712D01*
X143566061Y-78808712D01*
X143525816Y-78800707D01*
X143519748Y-78799500D01*
X141480252Y-78799500D01*
X141474184Y-78800707D01*
X141433939Y-78808712D01*
X141433938Y-78808712D01*
X141421769Y-78811133D01*
X141355448Y-78855448D01*
X141311133Y-78921769D01*
X141299500Y-78980252D01*
X141299500Y-79173500D01*
X141279498Y-79241621D01*
X141225842Y-79288114D01*
X141173500Y-79299500D01*
X138342346Y-79299500D01*
X138274225Y-79279498D01*
X138253251Y-79262595D01*
X136467952Y-77477295D01*
X136465265Y-77474608D01*
X136462277Y-77472265D01*
X136371521Y-77401103D01*
X136371519Y-77401102D01*
X136365543Y-77396416D01*
X136211016Y-77326645D01*
X136044308Y-77295748D01*
X136036728Y-77296185D01*
X136036727Y-77296185D01*
X136005501Y-77297985D01*
X135875041Y-77305507D01*
X135836993Y-77317212D01*
X135766004Y-77318125D01*
X135710850Y-77285878D01*
X135137405Y-76712434D01*
X135103380Y-76650121D01*
X135100500Y-76623338D01*
X135100500Y-75875835D01*
X135120502Y-75807714D01*
X135174158Y-75761221D01*
X135213935Y-75750500D01*
X135219748Y-75750500D01*
X135226017Y-75749253D01*
X135266061Y-75741288D01*
X135266062Y-75741288D01*
X135278231Y-75738867D01*
X135288548Y-75731973D01*
X135288551Y-75731972D01*
X135317031Y-75712942D01*
X135384784Y-75691726D01*
X135444238Y-75705440D01*
X135483053Y-75725218D01*
X135483057Y-75725219D01*
X135491888Y-75729719D01*
X135501677Y-75731269D01*
X135501679Y-75731270D01*
X135610530Y-75748510D01*
X135625014Y-75750804D01*
X135634806Y-75749253D01*
X135644726Y-75749253D01*
X135644726Y-75750083D01*
X135656420Y-75749738D01*
X135660252Y-75750500D01*
X136499748Y-75750500D01*
X136506017Y-75749253D01*
X136546061Y-75741288D01*
X136546062Y-75741288D01*
X136558231Y-75738867D01*
X136624552Y-75694552D01*
X136626410Y-75691771D01*
X136683217Y-75660751D01*
X136754032Y-75665816D01*
X136792967Y-75690838D01*
X136795448Y-75694552D01*
X136861769Y-75738867D01*
X136873938Y-75741288D01*
X136873939Y-75741288D01*
X136913983Y-75749253D01*
X136920252Y-75750500D01*
X137759748Y-75750500D01*
X137766017Y-75749253D01*
X137806061Y-75741288D01*
X137806062Y-75741288D01*
X137818231Y-75738867D01*
X137884552Y-75694552D01*
X137888798Y-75688197D01*
X137948217Y-75655751D01*
X138019032Y-75660816D01*
X138060874Y-75687707D01*
X138065448Y-75694552D01*
X138131769Y-75738867D01*
X138143938Y-75741288D01*
X138143939Y-75741288D01*
X138183983Y-75749253D01*
X138190252Y-75750500D01*
X139029748Y-75750500D01*
X139036017Y-75749253D01*
X139076061Y-75741288D01*
X139076062Y-75741288D01*
X139088231Y-75738867D01*
X139154552Y-75694552D01*
X139161186Y-75684623D01*
X139223217Y-75650751D01*
X139294032Y-75655816D01*
X139338782Y-75684576D01*
X139345448Y-75694552D01*
X139411769Y-75738867D01*
X139423938Y-75741288D01*
X139423939Y-75741288D01*
X139463983Y-75749253D01*
X139470252Y-75750500D01*
X140309748Y-75750500D01*
X140316017Y-75749253D01*
X140356061Y-75741288D01*
X140356062Y-75741288D01*
X140368231Y-75738867D01*
X140434552Y-75694552D01*
X140438798Y-75688197D01*
X140498217Y-75655751D01*
X140569032Y-75660816D01*
X140610874Y-75687707D01*
X140615448Y-75694552D01*
X140681769Y-75738867D01*
X140693938Y-75741288D01*
X140693939Y-75741288D01*
X140733983Y-75749253D01*
X140740252Y-75750500D01*
X141579748Y-75750500D01*
X141586017Y-75749253D01*
X141626061Y-75741288D01*
X141626062Y-75741288D01*
X141638231Y-75738867D01*
X141704552Y-75694552D01*
X141706410Y-75691771D01*
X141763217Y-75660751D01*
X141834032Y-75665816D01*
X141872967Y-75690838D01*
X141875448Y-75694552D01*
X141885761Y-75701443D01*
X141885764Y-75701446D01*
X141900671Y-75711407D01*
X141946198Y-75765884D01*
X141955045Y-75836328D01*
X141919763Y-75905266D01*
X140835881Y-76989148D01*
X140766497Y-77024502D01*
X140676666Y-77038730D01*
X140676665Y-77038730D01*
X140666874Y-77040281D01*
X140546780Y-77101472D01*
X140451472Y-77196780D01*
X140390281Y-77316874D01*
X140388731Y-77326663D01*
X140388730Y-77326665D01*
X140377683Y-77396416D01*
X140369196Y-77450000D01*
X140370747Y-77459793D01*
X140387473Y-77565394D01*
X140390281Y-77583126D01*
X140451472Y-77703220D01*
X140546780Y-77798528D01*
X140666874Y-77859719D01*
X140676663Y-77861269D01*
X140676665Y-77861270D01*
X140790207Y-77879253D01*
X140800000Y-77880804D01*
X140809793Y-77879253D01*
X140923335Y-77861270D01*
X140923337Y-77861269D01*
X140933126Y-77859719D01*
X141053220Y-77798528D01*
X141148528Y-77703220D01*
X141209719Y-77583126D01*
X141211516Y-77571780D01*
X141225498Y-77483503D01*
X141260852Y-77414119D01*
X142595452Y-76079519D01*
X142597486Y-76077763D01*
X142602269Y-76075425D01*
X142614213Y-76062550D01*
X142635573Y-76039523D01*
X142638853Y-76036118D01*
X142652248Y-76022723D01*
X142654972Y-76018753D01*
X142657297Y-76016105D01*
X142670492Y-76001881D01*
X142670494Y-76001878D01*
X142678401Y-75993354D01*
X142682711Y-75982550D01*
X142685233Y-75978561D01*
X142690994Y-75967773D01*
X142692911Y-75963448D01*
X142699492Y-75953854D01*
X142703373Y-75937503D01*
X142705183Y-75929873D01*
X142710748Y-75912276D01*
X142716588Y-75897638D01*
X142716589Y-75897635D01*
X142719883Y-75889378D01*
X142720500Y-75883085D01*
X142720500Y-75880006D01*
X142720650Y-75876933D01*
X142720866Y-75876944D01*
X142723905Y-75850979D01*
X142724935Y-75846639D01*
X142760127Y-75784978D01*
X142823068Y-75752131D01*
X142834101Y-75750500D01*
X142839748Y-75750500D01*
X142845815Y-75749293D01*
X142845817Y-75749293D01*
X142886061Y-75741288D01*
X142886062Y-75741288D01*
X142898231Y-75738867D01*
X142964552Y-75694552D01*
X142971186Y-75684623D01*
X143033217Y-75650751D01*
X143104032Y-75655816D01*
X143148782Y-75684576D01*
X143155448Y-75694552D01*
X143221769Y-75738867D01*
X143233938Y-75741288D01*
X143233939Y-75741288D01*
X143273983Y-75749253D01*
X143280252Y-75750500D01*
X143285994Y-75750500D01*
X143351682Y-75777024D01*
X143392692Y-75834979D01*
X143399500Y-75875835D01*
X143399500Y-76703741D01*
X143379498Y-76771862D01*
X143325842Y-76818355D01*
X143293211Y-76828190D01*
X143226666Y-76838730D01*
X143226665Y-76838730D01*
X143216874Y-76840281D01*
X143096780Y-76901472D01*
X143001472Y-76996780D01*
X142940281Y-77116874D01*
X142938731Y-77126663D01*
X142938730Y-77126665D01*
X142927115Y-77200000D01*
X142919196Y-77250000D01*
X142920747Y-77259793D01*
X142938075Y-77369196D01*
X142940281Y-77383126D01*
X143001472Y-77503220D01*
X143096780Y-77598528D01*
X143216874Y-77659719D01*
X143226663Y-77661269D01*
X143226665Y-77661270D01*
X143340207Y-77679253D01*
X143350000Y-77680804D01*
X143359793Y-77679253D01*
X143473335Y-77661270D01*
X143473337Y-77661269D01*
X143483126Y-77659719D01*
X143603220Y-77598528D01*
X143698528Y-77503220D01*
X143759719Y-77383126D01*
X143771598Y-77308126D01*
X143775498Y-77283503D01*
X143810852Y-77214119D01*
X143875452Y-77149519D01*
X143877486Y-77147763D01*
X143882269Y-77145425D01*
X143899672Y-77126665D01*
X143915573Y-77109523D01*
X143918853Y-77106118D01*
X143932248Y-77092723D01*
X143934972Y-77088753D01*
X143937297Y-77086105D01*
X143950490Y-77071882D01*
X143958401Y-77063354D01*
X143962713Y-77052547D01*
X143965232Y-77048562D01*
X143971004Y-77037753D01*
X143972911Y-77033448D01*
X143979493Y-77023854D01*
X143985186Y-76999864D01*
X143990751Y-76982268D01*
X143996586Y-76967642D01*
X143999883Y-76959378D01*
X144000500Y-76953085D01*
X144000500Y-76950003D01*
X144000650Y-76946933D01*
X144000866Y-76946944D01*
X144002198Y-76935569D01*
X144002653Y-76926255D01*
X144005340Y-76914934D01*
X144001651Y-76887827D01*
X144000500Y-76870836D01*
X144000500Y-75875835D01*
X144020502Y-75807714D01*
X144074158Y-75761221D01*
X144113935Y-75750500D01*
X144119748Y-75750500D01*
X144126017Y-75749253D01*
X144166061Y-75741288D01*
X144166062Y-75741288D01*
X144178231Y-75738867D01*
X144244552Y-75694552D01*
X144288867Y-75628231D01*
X144295521Y-75594782D01*
X144299293Y-75575816D01*
X144300500Y-75569748D01*
X144300500Y-74230252D01*
X144288867Y-74171769D01*
X144244552Y-74105448D01*
X144234239Y-74098557D01*
X144225460Y-74089778D01*
X144227541Y-74087697D01*
X144194093Y-74047668D01*
X144185177Y-73977679D01*
X144200485Y-73881026D01*
X144200485Y-73881025D01*
X144202036Y-73871232D01*
X144197818Y-73844598D01*
X144182502Y-73747897D01*
X144182501Y-73747895D01*
X144180951Y-73738106D01*
X144119760Y-73618012D01*
X144024452Y-73522704D01*
X144015620Y-73518204D01*
X144014003Y-73517029D01*
X143970650Y-73460806D01*
X143964576Y-73390070D01*
X143998971Y-73326000D01*
X145489119Y-71835852D01*
X145558503Y-71800498D01*
X145648334Y-71786270D01*
X145648335Y-71786270D01*
X145658126Y-71784719D01*
X145778220Y-71723528D01*
X145873528Y-71628220D01*
X145934719Y-71508126D01*
X145937955Y-71487698D01*
X145954253Y-71384793D01*
X145955804Y-71375000D01*
X145945853Y-71312171D01*
X145936270Y-71251665D01*
X145936269Y-71251663D01*
X145934719Y-71241874D01*
X145873528Y-71121780D01*
X145778220Y-71026472D01*
X145658126Y-70965281D01*
X145648337Y-70963731D01*
X145648335Y-70963730D01*
X145534793Y-70945747D01*
X145525000Y-70944196D01*
X145515207Y-70945747D01*
X145401665Y-70963730D01*
X145401663Y-70963731D01*
X145391874Y-70965281D01*
X145271780Y-71026472D01*
X145176472Y-71121780D01*
X145115281Y-71241874D01*
X145113730Y-71251665D01*
X145113730Y-71251666D01*
X145099502Y-71341497D01*
X145064148Y-71410881D01*
X144211500Y-72263529D01*
X144149188Y-72297555D01*
X144078373Y-72292490D01*
X144020471Y-72248497D01*
X144019296Y-72246880D01*
X144014796Y-72238048D01*
X143919488Y-72142740D01*
X143799394Y-72081549D01*
X143789603Y-72079998D01*
X143789602Y-72079998D01*
X143699771Y-72065770D01*
X143630387Y-72030416D01*
X142624518Y-71024547D01*
X142622762Y-71022513D01*
X142620424Y-71017730D01*
X142584522Y-70984426D01*
X142581117Y-70981146D01*
X142567722Y-70967751D01*
X142563752Y-70965027D01*
X142561104Y-70962702D01*
X142546880Y-70949507D01*
X142546877Y-70949505D01*
X142538353Y-70941598D01*
X142527549Y-70937288D01*
X142523560Y-70934766D01*
X142512772Y-70929005D01*
X142508447Y-70927088D01*
X142498853Y-70920507D01*
X142487534Y-70917821D01*
X142487532Y-70917820D01*
X142474872Y-70914816D01*
X142457275Y-70909251D01*
X142442637Y-70903411D01*
X142442634Y-70903410D01*
X142434377Y-70900116D01*
X142428084Y-70899499D01*
X142425005Y-70899499D01*
X142421932Y-70899349D01*
X142421943Y-70899133D01*
X142410568Y-70897801D01*
X142401253Y-70897345D01*
X142389933Y-70894659D01*
X142378404Y-70896228D01*
X142378403Y-70896228D01*
X142362826Y-70898348D01*
X142345835Y-70899499D01*
X141816660Y-70899499D01*
X141748539Y-70879497D01*
X141727565Y-70862594D01*
X140434422Y-69569451D01*
X140400396Y-69507139D01*
X140405461Y-69436324D01*
X140430601Y-69397192D01*
X140434552Y-69394552D01*
X140438785Y-69388217D01*
X140498175Y-69355761D01*
X140568993Y-69360802D01*
X140610875Y-69387709D01*
X140615448Y-69394552D01*
X140681769Y-69438867D01*
X140693938Y-69441288D01*
X140693939Y-69441288D01*
X140721550Y-69446780D01*
X140740252Y-69450500D01*
X141579748Y-69450500D01*
X141598450Y-69446780D01*
X141626061Y-69441288D01*
X141626062Y-69441288D01*
X141638231Y-69438867D01*
X141704552Y-69394552D01*
X141706410Y-69391771D01*
X141763217Y-69360751D01*
X141834032Y-69365816D01*
X141872967Y-69390838D01*
X141875448Y-69394552D01*
X141941769Y-69438867D01*
X141953938Y-69441288D01*
X141953939Y-69441288D01*
X141981550Y-69446780D01*
X142000252Y-69450500D01*
X142473500Y-69450500D01*
X142541621Y-69470502D01*
X142588114Y-69524158D01*
X142599500Y-69576500D01*
X142599500Y-69646562D01*
X142579498Y-69714683D01*
X142562595Y-69735657D01*
X142551472Y-69746780D01*
X142490281Y-69866874D01*
X142488731Y-69876663D01*
X142488730Y-69876665D01*
X142475663Y-69959170D01*
X142469196Y-70000000D01*
X142470747Y-70009793D01*
X142486574Y-70109719D01*
X142490281Y-70133126D01*
X142551472Y-70253220D01*
X142646780Y-70348528D01*
X142766874Y-70409719D01*
X142776663Y-70411269D01*
X142776665Y-70411270D01*
X142890207Y-70429253D01*
X142900000Y-70430804D01*
X142909793Y-70429253D01*
X143023335Y-70411270D01*
X143023337Y-70411269D01*
X143033126Y-70409719D01*
X143153220Y-70348528D01*
X143248528Y-70253220D01*
X143309719Y-70133126D01*
X143313427Y-70109719D01*
X143329253Y-70009793D01*
X143330804Y-70000000D01*
X143324337Y-69959170D01*
X143311270Y-69876665D01*
X143311269Y-69876663D01*
X143309719Y-69866874D01*
X143248528Y-69746780D01*
X143237405Y-69735657D01*
X143203379Y-69673345D01*
X143200500Y-69646562D01*
X143200500Y-69636000D01*
X143220502Y-69567879D01*
X143274158Y-69521386D01*
X143326500Y-69510000D01*
X143551885Y-69510000D01*
X143567124Y-69505525D01*
X143568329Y-69504135D01*
X143570000Y-69496452D01*
X143570000Y-69491884D01*
X143830000Y-69491884D01*
X143834475Y-69507123D01*
X143835865Y-69508328D01*
X143843548Y-69509999D01*
X144119420Y-69509999D01*
X144131680Y-69508791D01*
X144189272Y-69497337D01*
X144211768Y-69488019D01*
X144277134Y-69444343D01*
X144294343Y-69427134D01*
X144338020Y-69361767D01*
X144347336Y-69339275D01*
X144358793Y-69281677D01*
X144360000Y-69269422D01*
X144360000Y-68748115D01*
X144355525Y-68732876D01*
X144354135Y-68731671D01*
X144346452Y-68730000D01*
X143848115Y-68730000D01*
X143832876Y-68734475D01*
X143831671Y-68735865D01*
X143830000Y-68743548D01*
X143830000Y-69491884D01*
X143570000Y-69491884D01*
X143570000Y-68451885D01*
X143830000Y-68451885D01*
X143834475Y-68467124D01*
X143835865Y-68468329D01*
X143843548Y-68470000D01*
X144341884Y-68470000D01*
X144357123Y-68465525D01*
X144358328Y-68464135D01*
X144359999Y-68456452D01*
X144359999Y-67930580D01*
X144358791Y-67918320D01*
X144347337Y-67860728D01*
X144338019Y-67838232D01*
X144294343Y-67772866D01*
X144277134Y-67755657D01*
X144211767Y-67711980D01*
X144189275Y-67702664D01*
X144131677Y-67691207D01*
X144119422Y-67690000D01*
X143848115Y-67690000D01*
X143832876Y-67694475D01*
X143831671Y-67695865D01*
X143830000Y-67703548D01*
X143830000Y-68451885D01*
X143570000Y-68451885D01*
X143570000Y-67708116D01*
X143565525Y-67692877D01*
X143564135Y-67691672D01*
X143556452Y-67690001D01*
X143280580Y-67690001D01*
X143268320Y-67691209D01*
X143210728Y-67702663D01*
X143188232Y-67711981D01*
X143122866Y-67755657D01*
X143102726Y-67775797D01*
X143040414Y-67809823D01*
X142969599Y-67804758D01*
X142943628Y-67791466D01*
X142908551Y-67768028D01*
X142908548Y-67768027D01*
X142898231Y-67761133D01*
X142886062Y-67758712D01*
X142886061Y-67758712D01*
X142845816Y-67750707D01*
X142839748Y-67749500D01*
X142000252Y-67749500D01*
X141994184Y-67750707D01*
X141953939Y-67758712D01*
X141953938Y-67758712D01*
X141941769Y-67761133D01*
X141875448Y-67805448D01*
X141873590Y-67808229D01*
X141816783Y-67839249D01*
X141745968Y-67834184D01*
X141707033Y-67809162D01*
X141704552Y-67805448D01*
X141638231Y-67761133D01*
X141626062Y-67758712D01*
X141626061Y-67758712D01*
X141585816Y-67750707D01*
X141579748Y-67749500D01*
X140740252Y-67749500D01*
X140734184Y-67750707D01*
X140693939Y-67758712D01*
X140693938Y-67758712D01*
X140681769Y-67761133D01*
X140615448Y-67805448D01*
X140611202Y-67811803D01*
X140551783Y-67844249D01*
X140480968Y-67839184D01*
X140439126Y-67812293D01*
X140434552Y-67805448D01*
X140368231Y-67761133D01*
X140356062Y-67758712D01*
X140356061Y-67758712D01*
X140315816Y-67750707D01*
X140309748Y-67749500D01*
X139638339Y-67749500D01*
X139570218Y-67729498D01*
X139523725Y-67675842D01*
X139513890Y-67643209D01*
X139511270Y-67626666D01*
X139511270Y-67626665D01*
X139509719Y-67616874D01*
X139448528Y-67496780D01*
X139353220Y-67401472D01*
X139233126Y-67340281D01*
X139223337Y-67338731D01*
X139223335Y-67338730D01*
X139109793Y-67320747D01*
X139100000Y-67319196D01*
X139090207Y-67320747D01*
X138976665Y-67338730D01*
X138976663Y-67338731D01*
X138966874Y-67340281D01*
X138846780Y-67401472D01*
X138751472Y-67496780D01*
X138690281Y-67616874D01*
X138688730Y-67626665D01*
X138688730Y-67626666D01*
X138686110Y-67643209D01*
X138655699Y-67707363D01*
X138595431Y-67744890D01*
X138561661Y-67749500D01*
X138190252Y-67749500D01*
X138184184Y-67750707D01*
X138143939Y-67758712D01*
X138143938Y-67758712D01*
X138131769Y-67761133D01*
X138065448Y-67805448D01*
X138061202Y-67811803D01*
X138001783Y-67844249D01*
X137930968Y-67839184D01*
X137889126Y-67812293D01*
X137884552Y-67805448D01*
X137818231Y-67761133D01*
X137806062Y-67758712D01*
X137806061Y-67758712D01*
X137765816Y-67750707D01*
X137759748Y-67749500D01*
X137754006Y-67749500D01*
X137688318Y-67722976D01*
X137647308Y-67665021D01*
X137640500Y-67624165D01*
X137640500Y-67411661D01*
X137660502Y-67343540D01*
X137677405Y-67322566D01*
X138014119Y-66985852D01*
X138048291Y-66968440D01*
X146794770Y-66968440D01*
X146796107Y-66988837D01*
X146809200Y-67188604D01*
X146810621Y-67194200D01*
X146810622Y-67194205D01*
X146861592Y-67394895D01*
X146863511Y-67402452D01*
X146865928Y-67407694D01*
X146865928Y-67407695D01*
X146946613Y-67582714D01*
X146955883Y-67602821D01*
X147083222Y-67783002D01*
X147241264Y-67936961D01*
X147246060Y-67940166D01*
X147246063Y-67940168D01*
X147361392Y-68017228D01*
X147424717Y-68059540D01*
X147430020Y-68061818D01*
X147430023Y-68061820D01*
X147585186Y-68128483D01*
X147627436Y-68146635D01*
X147707088Y-68164658D01*
X147836995Y-68194054D01*
X147837001Y-68194055D01*
X147842632Y-68195329D01*
X147848403Y-68195556D01*
X147848405Y-68195556D01*
X147916211Y-68198220D01*
X148063098Y-68203991D01*
X148172275Y-68188161D01*
X148275738Y-68173160D01*
X148275743Y-68173159D01*
X148281452Y-68172331D01*
X148286916Y-68170476D01*
X148286921Y-68170475D01*
X148484907Y-68103268D01*
X148484912Y-68103266D01*
X148490379Y-68101410D01*
X148682884Y-67993602D01*
X148689494Y-67988105D01*
X148848086Y-67856204D01*
X148852518Y-67852518D01*
X148909012Y-67784592D01*
X148989908Y-67687326D01*
X148989910Y-67687323D01*
X148993602Y-67682884D01*
X149078372Y-67531517D01*
X149098586Y-67495422D01*
X149098587Y-67495420D01*
X149101410Y-67490379D01*
X149103266Y-67484912D01*
X149103268Y-67484907D01*
X149170475Y-67286921D01*
X149170476Y-67286916D01*
X149172331Y-67281452D01*
X149173159Y-67275743D01*
X149173160Y-67275738D01*
X149202412Y-67073986D01*
X149203991Y-67063098D01*
X149205643Y-67000000D01*
X149185454Y-66780289D01*
X149178792Y-66756665D01*
X149151001Y-66658126D01*
X149125565Y-66567936D01*
X149027980Y-66370053D01*
X149011907Y-66348528D01*
X148899420Y-66197891D01*
X148899420Y-66197890D01*
X148895967Y-66193267D01*
X148738498Y-66047704D01*
X148738189Y-66047418D01*
X148738186Y-66047416D01*
X148733949Y-66043499D01*
X148547350Y-65925764D01*
X148342421Y-65844006D01*
X148336761Y-65842880D01*
X148336757Y-65842879D01*
X148131691Y-65802089D01*
X148131688Y-65802089D01*
X148126024Y-65800962D01*
X148120249Y-65800886D01*
X148120245Y-65800886D01*
X148009504Y-65799437D01*
X147905406Y-65798074D01*
X147899709Y-65799053D01*
X147899708Y-65799053D01*
X147693654Y-65834459D01*
X147693653Y-65834459D01*
X147687957Y-65835438D01*
X147480957Y-65911804D01*
X147475996Y-65914756D01*
X147475995Y-65914756D01*
X147302035Y-66018252D01*
X147291341Y-66024614D01*
X147125457Y-66170090D01*
X146988863Y-66343360D01*
X146886131Y-66538620D01*
X146820703Y-66749333D01*
X146794770Y-66968440D01*
X138048291Y-66968440D01*
X138083503Y-66950498D01*
X138173334Y-66936270D01*
X138173335Y-66936270D01*
X138183126Y-66934719D01*
X138303220Y-66873528D01*
X138398528Y-66778220D01*
X138459719Y-66658126D01*
X138463892Y-66631783D01*
X138479253Y-66534793D01*
X138480804Y-66525000D01*
X138472850Y-66474782D01*
X138461270Y-66401665D01*
X138461269Y-66401663D01*
X138459719Y-66391874D01*
X138398528Y-66271780D01*
X138303220Y-66176472D01*
X138183126Y-66115281D01*
X138173337Y-66113731D01*
X138173335Y-66113730D01*
X138059793Y-66095747D01*
X138050000Y-66094196D01*
X138040207Y-66095747D01*
X137926665Y-66113730D01*
X137926663Y-66113731D01*
X137916874Y-66115281D01*
X137796780Y-66176472D01*
X137701472Y-66271780D01*
X137640281Y-66391874D01*
X137638730Y-66401665D01*
X137638730Y-66401666D01*
X137624503Y-66491493D01*
X137594091Y-66555647D01*
X137589150Y-66560878D01*
X137393364Y-66756665D01*
X137233174Y-66916855D01*
X137170861Y-66950880D01*
X137100046Y-66945816D01*
X137073097Y-66931349D01*
X137068220Y-66926472D01*
X137059382Y-66921969D01*
X137059381Y-66921968D01*
X136997625Y-66890502D01*
X136948126Y-66865281D01*
X136938337Y-66863731D01*
X136938335Y-66863730D01*
X136824793Y-66845747D01*
X136815000Y-66844196D01*
X136805207Y-66845747D01*
X136691665Y-66863730D01*
X136691663Y-66863731D01*
X136681874Y-66865281D01*
X136561780Y-66926472D01*
X136466472Y-67021780D01*
X136405281Y-67141874D01*
X136403730Y-67151665D01*
X136403730Y-67151666D01*
X136389502Y-67241497D01*
X136354148Y-67310881D01*
X136299095Y-67365934D01*
X136236783Y-67399960D01*
X136165968Y-67394895D01*
X136120905Y-67365934D01*
X134864520Y-66109549D01*
X134862764Y-66107515D01*
X134860426Y-66102732D01*
X134850083Y-66093137D01*
X134824524Y-66069428D01*
X134821119Y-66066148D01*
X134807724Y-66052753D01*
X134803754Y-66050029D01*
X134801106Y-66047704D01*
X134786882Y-66034509D01*
X134786879Y-66034507D01*
X134778355Y-66026600D01*
X134767551Y-66022290D01*
X134763562Y-66019768D01*
X134752774Y-66014007D01*
X134748449Y-66012090D01*
X134738855Y-66005509D01*
X134727536Y-66002823D01*
X134727534Y-66002822D01*
X134714874Y-65999818D01*
X134697277Y-65994253D01*
X134682639Y-65988413D01*
X134682636Y-65988412D01*
X134674379Y-65985118D01*
X134668086Y-65984501D01*
X134665007Y-65984501D01*
X134661934Y-65984351D01*
X134661945Y-65984135D01*
X134650570Y-65982803D01*
X134641255Y-65982347D01*
X134629935Y-65979661D01*
X134618406Y-65981230D01*
X134618405Y-65981230D01*
X134602828Y-65983350D01*
X134585837Y-65984501D01*
X130947371Y-65984501D01*
X130944694Y-65984304D01*
X130939657Y-65982575D01*
X130928036Y-65983011D01*
X130928034Y-65983011D01*
X130890729Y-65984412D01*
X130886002Y-65984501D01*
X130867051Y-65984501D01*
X130862318Y-65985383D01*
X130858791Y-65985611D01*
X130839419Y-65986338D01*
X130839417Y-65986339D01*
X130827791Y-65986775D01*
X130817099Y-65991369D01*
X130812496Y-65992406D01*
X130800786Y-65995963D01*
X130796383Y-65997662D01*
X130784946Y-65999792D01*
X130775045Y-66005895D01*
X130775042Y-66005896D01*
X130763955Y-66012730D01*
X130747584Y-66021234D01*
X130733105Y-66027455D01*
X130733102Y-66027457D01*
X130724937Y-66030965D01*
X130720050Y-66034978D01*
X130717855Y-66037173D01*
X130715585Y-66039231D01*
X130715438Y-66039069D01*
X130706460Y-66046166D01*
X130699552Y-66052430D01*
X130689651Y-66058533D01*
X130682611Y-66067792D01*
X130682609Y-66067793D01*
X130673092Y-66080309D01*
X130661891Y-66093137D01*
X130335879Y-66419149D01*
X130273567Y-66453175D01*
X130266501Y-66454502D01*
X130225201Y-66461043D01*
X130176666Y-66468730D01*
X130176665Y-66468730D01*
X130166874Y-66470281D01*
X130046780Y-66531472D01*
X129951472Y-66626780D01*
X129890281Y-66746874D01*
X129888731Y-66756663D01*
X129888730Y-66756665D01*
X129872923Y-66856468D01*
X129869196Y-66880000D01*
X129870747Y-66889793D01*
X129870747Y-66889794D01*
X129881675Y-66958792D01*
X129872575Y-67029203D01*
X129826853Y-67083517D01*
X129757226Y-67104502D01*
X129081663Y-67104502D01*
X129013542Y-67084500D01*
X128992568Y-67067597D01*
X128827113Y-66902142D01*
X128791759Y-66832758D01*
X128777531Y-66742927D01*
X128777531Y-66742926D01*
X128775980Y-66733135D01*
X128714789Y-66613041D01*
X128619481Y-66517733D01*
X128499387Y-66456542D01*
X128489598Y-66454992D01*
X128489596Y-66454991D01*
X128376054Y-66437008D01*
X128366261Y-66435457D01*
X128356468Y-66437008D01*
X128242926Y-66454991D01*
X128242924Y-66454992D01*
X128233135Y-66456542D01*
X128113041Y-66517733D01*
X128017733Y-66613041D01*
X127956542Y-66733135D01*
X127954992Y-66742924D01*
X127954991Y-66742926D01*
X127948362Y-66784782D01*
X127935457Y-66866261D01*
X127937008Y-66876054D01*
X127954576Y-66986971D01*
X127956542Y-66999387D01*
X128017733Y-67119481D01*
X128113041Y-67214789D01*
X128233135Y-67275980D01*
X128242926Y-67277531D01*
X128242927Y-67277531D01*
X128332758Y-67291759D01*
X128402142Y-67327113D01*
X128655483Y-67580454D01*
X128657239Y-67582488D01*
X128659577Y-67587271D01*
X128668106Y-67595183D01*
X128668107Y-67595184D01*
X128695479Y-67620575D01*
X128698884Y-67623855D01*
X128712279Y-67637250D01*
X128716249Y-67639974D01*
X128718897Y-67642299D01*
X128741648Y-67663403D01*
X128752455Y-67667715D01*
X128756440Y-67670234D01*
X128767249Y-67676006D01*
X128771554Y-67677913D01*
X128781148Y-67684495D01*
X128804346Y-67690000D01*
X128805138Y-67690188D01*
X128822734Y-67695753D01*
X128845624Y-67704885D01*
X128844913Y-67706667D01*
X128896699Y-67736612D01*
X128929188Y-67799739D01*
X128922391Y-67870410D01*
X128878466Y-67926187D01*
X128805449Y-67949500D01*
X127576500Y-67949500D01*
X127508379Y-67929498D01*
X127461886Y-67875842D01*
X127450500Y-67823500D01*
X127450500Y-67630252D01*
X127438867Y-67571769D01*
X127394552Y-67505448D01*
X127344894Y-67472267D01*
X127338547Y-67468026D01*
X127328231Y-67461133D01*
X127316062Y-67458712D01*
X127316061Y-67458712D01*
X127275816Y-67450707D01*
X127269748Y-67449500D01*
X126326661Y-67449500D01*
X126258540Y-67429498D01*
X126237566Y-67412595D01*
X124649519Y-65824548D01*
X124647763Y-65822514D01*
X124645425Y-65817731D01*
X124624317Y-65798150D01*
X124609523Y-65784427D01*
X124606118Y-65781147D01*
X124592723Y-65767752D01*
X124588753Y-65765028D01*
X124586105Y-65762703D01*
X124571881Y-65749508D01*
X124571878Y-65749506D01*
X124563354Y-65741599D01*
X124552550Y-65737289D01*
X124548561Y-65734767D01*
X124537773Y-65729006D01*
X124533448Y-65727089D01*
X124523854Y-65720508D01*
X124512535Y-65717822D01*
X124512533Y-65717821D01*
X124499873Y-65714817D01*
X124482276Y-65709252D01*
X124467638Y-65703412D01*
X124467635Y-65703411D01*
X124459378Y-65700117D01*
X124453085Y-65699500D01*
X124450006Y-65699500D01*
X124446933Y-65699350D01*
X124446944Y-65699134D01*
X124435569Y-65697802D01*
X124426254Y-65697346D01*
X124414934Y-65694660D01*
X124403405Y-65696229D01*
X124403404Y-65696229D01*
X124387827Y-65698349D01*
X124370836Y-65699500D01*
X114913438Y-65699500D01*
X114845317Y-65679498D01*
X114824343Y-65662595D01*
X114813220Y-65651472D01*
X114693126Y-65590281D01*
X114683337Y-65588731D01*
X114683335Y-65588730D01*
X114569793Y-65570747D01*
X114560000Y-65569196D01*
X114550207Y-65570747D01*
X114436665Y-65588730D01*
X114436663Y-65588731D01*
X114426874Y-65590281D01*
X114306780Y-65651472D01*
X114211472Y-65746780D01*
X114150281Y-65866874D01*
X114148731Y-65876663D01*
X114148730Y-65876665D01*
X114131665Y-65984412D01*
X114129196Y-66000000D01*
X114130747Y-66009793D01*
X114148168Y-66119782D01*
X114150281Y-66133126D01*
X114211472Y-66253220D01*
X114306780Y-66348528D01*
X114426874Y-66409719D01*
X114436663Y-66411269D01*
X114436665Y-66411270D01*
X114550207Y-66429253D01*
X114560000Y-66430804D01*
X114569793Y-66429253D01*
X114683335Y-66411270D01*
X114683337Y-66411269D01*
X114693126Y-66409719D01*
X114813220Y-66348528D01*
X114824343Y-66337405D01*
X114886655Y-66303379D01*
X114913438Y-66300500D01*
X124223339Y-66300500D01*
X124291460Y-66320502D01*
X124312434Y-66337405D01*
X125812595Y-67837566D01*
X125846621Y-67899878D01*
X125849500Y-67926661D01*
X125849500Y-68869748D01*
X125850707Y-68875816D01*
X125854705Y-68895913D01*
X125861133Y-68928231D01*
X125905448Y-68994552D01*
X125971769Y-69038867D01*
X125983938Y-69041288D01*
X125983939Y-69041288D01*
X126011007Y-69046672D01*
X126030252Y-69050500D01*
X127269748Y-69050500D01*
X127288993Y-69046672D01*
X127316061Y-69041288D01*
X127316062Y-69041288D01*
X127328231Y-69038867D01*
X127394552Y-68994552D01*
X127438867Y-68928231D01*
X127445296Y-68895913D01*
X127449293Y-68875816D01*
X127450500Y-68869748D01*
X127450500Y-68676500D01*
X127470502Y-68608379D01*
X127524158Y-68561886D01*
X127576500Y-68550500D01*
X131923339Y-68550500D01*
X131991460Y-68570502D01*
X132012434Y-68587405D01*
X133589148Y-70164119D01*
X133624502Y-70233503D01*
X133638730Y-70323334D01*
X133640281Y-70333126D01*
X133701472Y-70453220D01*
X133796780Y-70548528D01*
X133805611Y-70553028D01*
X133805613Y-70553029D01*
X133821695Y-70561223D01*
X133873310Y-70609972D01*
X133890376Y-70678887D01*
X133867475Y-70746088D01*
X133811877Y-70790240D01*
X133764492Y-70799490D01*
X131927804Y-70799490D01*
X131859683Y-70779488D01*
X131813190Y-70725832D01*
X131803086Y-70655558D01*
X131826453Y-70598630D01*
X131832105Y-70590978D01*
X131852634Y-70563184D01*
X131856201Y-70553029D01*
X131889913Y-70457028D01*
X131897519Y-70435370D01*
X131900500Y-70403835D01*
X131900499Y-69596166D01*
X131899478Y-69585355D01*
X131898242Y-69572279D01*
X131898242Y-69572277D01*
X131897519Y-69564630D01*
X131873577Y-69496452D01*
X131855755Y-69445702D01*
X131855754Y-69445699D01*
X131852634Y-69436816D01*
X131772150Y-69327850D01*
X131663184Y-69247366D01*
X131654301Y-69244246D01*
X131654298Y-69244245D01*
X131542614Y-69205025D01*
X131542615Y-69205025D01*
X131535370Y-69202481D01*
X131527728Y-69201759D01*
X131527725Y-69201758D01*
X131517366Y-69200779D01*
X131503835Y-69199500D01*
X131000255Y-69199500D01*
X130496166Y-69199501D01*
X130493216Y-69199780D01*
X130493211Y-69199780D01*
X130472279Y-69201758D01*
X130472277Y-69201758D01*
X130464630Y-69202481D01*
X130416010Y-69219555D01*
X130345702Y-69244245D01*
X130345699Y-69244246D01*
X130336816Y-69247366D01*
X130227850Y-69327850D01*
X130147366Y-69436816D01*
X130144246Y-69445699D01*
X130144245Y-69445702D01*
X130124660Y-69501472D01*
X130102481Y-69564630D01*
X130101758Y-69572274D01*
X130101758Y-69572276D01*
X130100522Y-69585355D01*
X130074199Y-69651292D01*
X130016407Y-69692530D01*
X129975081Y-69699500D01*
X125276661Y-69699500D01*
X125208540Y-69679498D01*
X125187566Y-69662595D01*
X124187405Y-68662434D01*
X124153379Y-68600122D01*
X124150500Y-68573339D01*
X124150500Y-67630252D01*
X124138867Y-67571769D01*
X124094552Y-67505448D01*
X124044894Y-67472267D01*
X124038547Y-67468026D01*
X124028231Y-67461133D01*
X124016062Y-67458712D01*
X124016061Y-67458712D01*
X123975816Y-67450707D01*
X123969748Y-67449500D01*
X122730252Y-67449500D01*
X122724184Y-67450707D01*
X122683939Y-67458712D01*
X122683938Y-67458712D01*
X122671769Y-67461133D01*
X122661453Y-67468026D01*
X122655106Y-67472267D01*
X122605448Y-67505448D01*
X122561133Y-67571769D01*
X122549500Y-67630252D01*
X122549500Y-68869748D01*
X122550707Y-68875816D01*
X122554705Y-68895913D01*
X122561133Y-68928231D01*
X122605448Y-68994552D01*
X122615761Y-69001443D01*
X122615764Y-69001446D01*
X122641641Y-69018737D01*
X122687168Y-69073214D01*
X122696015Y-69143657D01*
X122665374Y-69207701D01*
X122604971Y-69245012D01*
X122571638Y-69249501D01*
X115736000Y-69249501D01*
X115667879Y-69229499D01*
X115621386Y-69175843D01*
X115610000Y-69123501D01*
X115610000Y-68748115D01*
X115605525Y-68732876D01*
X115604135Y-68731671D01*
X115596452Y-68730000D01*
X114946000Y-68730000D01*
X114877879Y-68709998D01*
X114831386Y-68656342D01*
X114820000Y-68604000D01*
X114820000Y-68596000D01*
X114840002Y-68527879D01*
X114893658Y-68481386D01*
X114946000Y-68470000D01*
X115591884Y-68470000D01*
X115607123Y-68465525D01*
X115608328Y-68464135D01*
X115609999Y-68456452D01*
X115609999Y-67930580D01*
X115608791Y-67918320D01*
X115597337Y-67860728D01*
X115588019Y-67838232D01*
X115544343Y-67772866D01*
X115527135Y-67755658D01*
X115475663Y-67721266D01*
X115430135Y-67666789D01*
X115421286Y-67596346D01*
X115451927Y-67532301D01*
X115512329Y-67494990D01*
X115545664Y-67490500D01*
X121312562Y-67490500D01*
X121380683Y-67510502D01*
X121401657Y-67527405D01*
X121412780Y-67538528D01*
X121532874Y-67599719D01*
X121542663Y-67601269D01*
X121542665Y-67601270D01*
X121656207Y-67619253D01*
X121666000Y-67620804D01*
X121675793Y-67619253D01*
X121789335Y-67601270D01*
X121789337Y-67601269D01*
X121799126Y-67599719D01*
X121919220Y-67538528D01*
X122014528Y-67443220D01*
X122075719Y-67323126D01*
X122077659Y-67310881D01*
X122095253Y-67199793D01*
X122096804Y-67190000D01*
X122093948Y-67171968D01*
X122077270Y-67066665D01*
X122077269Y-67066663D01*
X122075719Y-67056874D01*
X122014528Y-66936780D01*
X121919220Y-66841472D01*
X121799126Y-66780281D01*
X121789337Y-66778731D01*
X121789335Y-66778730D01*
X121675793Y-66760747D01*
X121666000Y-66759196D01*
X121656207Y-66760747D01*
X121542665Y-66778730D01*
X121542663Y-66778731D01*
X121532874Y-66780281D01*
X121412780Y-66841472D01*
X121401657Y-66852595D01*
X121339345Y-66886621D01*
X121312562Y-66889500D01*
X110472372Y-66889500D01*
X110469695Y-66889303D01*
X110464658Y-66887574D01*
X110453037Y-66888010D01*
X110453035Y-66888010D01*
X110415730Y-66889411D01*
X110411003Y-66889500D01*
X110392052Y-66889500D01*
X110387319Y-66890382D01*
X110383792Y-66890610D01*
X110364420Y-66891337D01*
X110364418Y-66891338D01*
X110352792Y-66891774D01*
X110342100Y-66896368D01*
X110337497Y-66897405D01*
X110325787Y-66900962D01*
X110321384Y-66902661D01*
X110309947Y-66904791D01*
X110300046Y-66910894D01*
X110300043Y-66910895D01*
X110288956Y-66917729D01*
X110272585Y-66926233D01*
X110258106Y-66932454D01*
X110258103Y-66932456D01*
X110249938Y-66935964D01*
X110245051Y-66939977D01*
X110242856Y-66942172D01*
X110240586Y-66944230D01*
X110240439Y-66944068D01*
X110231461Y-66951165D01*
X110224554Y-66957429D01*
X110214652Y-66963532D01*
X110198091Y-66985311D01*
X110186895Y-66998132D01*
X109949094Y-67235933D01*
X109886782Y-67269959D01*
X109815967Y-67264894D01*
X109770904Y-67235933D01*
X108845567Y-66310596D01*
X108811541Y-66248284D01*
X108816606Y-66177469D01*
X108859153Y-66120633D01*
X108925673Y-66095822D01*
X108934662Y-66095501D01*
X110303706Y-66095501D01*
X110371827Y-66115503D01*
X110415973Y-66164298D01*
X110430622Y-66193047D01*
X110471472Y-66273220D01*
X110566780Y-66368528D01*
X110686874Y-66429719D01*
X110696663Y-66431269D01*
X110696665Y-66431270D01*
X110810207Y-66449253D01*
X110820000Y-66450804D01*
X110829793Y-66449253D01*
X110943335Y-66431270D01*
X110943337Y-66431269D01*
X110953126Y-66429719D01*
X111073220Y-66368528D01*
X111168528Y-66273220D01*
X111229719Y-66153126D01*
X111234438Y-66123335D01*
X111249253Y-66029793D01*
X111250804Y-66020000D01*
X111247636Y-66000000D01*
X111231270Y-65896665D01*
X111231269Y-65896663D01*
X111229719Y-65886874D01*
X111168528Y-65766780D01*
X111073220Y-65671472D01*
X110953126Y-65610281D01*
X110943337Y-65608731D01*
X110943335Y-65608730D01*
X110852598Y-65594359D01*
X110791790Y-65566819D01*
X110787724Y-65562753D01*
X110783752Y-65560028D01*
X110781106Y-65557704D01*
X110766882Y-65544509D01*
X110766879Y-65544507D01*
X110758355Y-65536600D01*
X110747551Y-65532290D01*
X110743562Y-65529768D01*
X110732774Y-65524007D01*
X110728449Y-65522090D01*
X110718855Y-65515509D01*
X110707536Y-65512823D01*
X110707534Y-65512822D01*
X110694874Y-65509818D01*
X110677277Y-65504253D01*
X110662639Y-65498413D01*
X110662636Y-65498412D01*
X110654379Y-65495118D01*
X110648086Y-65494501D01*
X110645007Y-65494501D01*
X110641934Y-65494351D01*
X110641945Y-65494135D01*
X110630570Y-65492803D01*
X110621255Y-65492347D01*
X110609935Y-65489661D01*
X110598406Y-65491230D01*
X110598405Y-65491230D01*
X110582828Y-65493350D01*
X110565837Y-65494501D01*
X105857363Y-65494501D01*
X105854690Y-65494305D01*
X105849655Y-65492576D01*
X105838033Y-65493012D01*
X105838031Y-65493012D01*
X105800741Y-65494412D01*
X105796015Y-65494501D01*
X105777049Y-65494501D01*
X105772314Y-65495382D01*
X105768787Y-65495611D01*
X105764251Y-65495781D01*
X105737788Y-65496775D01*
X105727101Y-65501367D01*
X105722489Y-65502406D01*
X105710797Y-65505958D01*
X105706380Y-65507662D01*
X105694944Y-65509792D01*
X105673958Y-65522728D01*
X105657586Y-65531232D01*
X105643109Y-65537452D01*
X105643105Y-65537454D01*
X105634934Y-65540965D01*
X105630048Y-65544979D01*
X105627863Y-65547164D01*
X105625600Y-65549216D01*
X105625455Y-65549056D01*
X105616448Y-65556176D01*
X105609552Y-65562428D01*
X105599649Y-65568533D01*
X105592609Y-65577792D01*
X105592607Y-65577793D01*
X105583087Y-65590313D01*
X105571886Y-65603141D01*
X103199548Y-67975481D01*
X103197514Y-67977237D01*
X103192731Y-67979575D01*
X103184819Y-67988104D01*
X103184818Y-67988105D01*
X103159427Y-68015477D01*
X103156147Y-68018882D01*
X103142752Y-68032277D01*
X103140028Y-68036247D01*
X103137703Y-68038895D01*
X103124508Y-68053119D01*
X103124506Y-68053122D01*
X103116599Y-68061646D01*
X103112289Y-68072450D01*
X103109767Y-68076439D01*
X103104006Y-68087227D01*
X103102089Y-68091552D01*
X103095508Y-68101146D01*
X103092822Y-68112465D01*
X103092821Y-68112467D01*
X103089817Y-68125127D01*
X103084252Y-68142724D01*
X103082692Y-68146635D01*
X103075117Y-68165622D01*
X103074500Y-68171915D01*
X103074500Y-68174994D01*
X103074350Y-68178067D01*
X103074134Y-68178056D01*
X103072802Y-68189431D01*
X103072346Y-68198746D01*
X103069660Y-68210066D01*
X100200500Y-68210066D01*
X100200500Y-66968440D01*
X100794770Y-66968440D01*
X100796107Y-66988837D01*
X100809200Y-67188604D01*
X100810621Y-67194200D01*
X100810622Y-67194205D01*
X100861592Y-67394895D01*
X100863511Y-67402452D01*
X100865928Y-67407694D01*
X100865928Y-67407695D01*
X100946613Y-67582714D01*
X100955883Y-67602821D01*
X101083222Y-67783002D01*
X101241264Y-67936961D01*
X101246060Y-67940166D01*
X101246063Y-67940168D01*
X101361392Y-68017228D01*
X101424717Y-68059540D01*
X101430020Y-68061818D01*
X101430023Y-68061820D01*
X101585186Y-68128483D01*
X101627436Y-68146635D01*
X101707088Y-68164658D01*
X101836995Y-68194054D01*
X101837001Y-68194055D01*
X101842632Y-68195329D01*
X101848403Y-68195556D01*
X101848405Y-68195556D01*
X101916211Y-68198220D01*
X102063098Y-68203991D01*
X102172275Y-68188161D01*
X102275738Y-68173160D01*
X102275743Y-68173159D01*
X102281452Y-68172331D01*
X102286916Y-68170476D01*
X102286921Y-68170475D01*
X102484907Y-68103268D01*
X102484912Y-68103266D01*
X102490379Y-68101410D01*
X102682884Y-67993602D01*
X102689494Y-67988105D01*
X102848086Y-67856204D01*
X102852518Y-67852518D01*
X102909012Y-67784592D01*
X102989908Y-67687326D01*
X102989910Y-67687323D01*
X102993602Y-67682884D01*
X103078372Y-67531517D01*
X103098586Y-67495422D01*
X103098587Y-67495420D01*
X103101410Y-67490379D01*
X103103266Y-67484912D01*
X103103268Y-67484907D01*
X103170475Y-67286921D01*
X103170476Y-67286916D01*
X103172331Y-67281452D01*
X103173159Y-67275743D01*
X103173160Y-67275738D01*
X103202412Y-67073986D01*
X103203991Y-67063098D01*
X103205643Y-67000000D01*
X103185454Y-66780289D01*
X103178792Y-66756665D01*
X103151001Y-66658126D01*
X103125565Y-66567936D01*
X103027980Y-66370053D01*
X103011907Y-66348528D01*
X102899420Y-66197891D01*
X102899420Y-66197890D01*
X102895967Y-66193267D01*
X102738498Y-66047704D01*
X102738189Y-66047418D01*
X102738186Y-66047416D01*
X102733949Y-66043499D01*
X102547350Y-65925764D01*
X102342421Y-65844006D01*
X102336761Y-65842880D01*
X102336757Y-65842879D01*
X102131691Y-65802089D01*
X102131688Y-65802089D01*
X102126024Y-65800962D01*
X102120249Y-65800886D01*
X102120245Y-65800886D01*
X102009504Y-65799437D01*
X101905406Y-65798074D01*
X101899709Y-65799053D01*
X101899708Y-65799053D01*
X101693654Y-65834459D01*
X101693653Y-65834459D01*
X101687957Y-65835438D01*
X101480957Y-65911804D01*
X101475996Y-65914756D01*
X101475995Y-65914756D01*
X101302035Y-66018252D01*
X101291341Y-66024614D01*
X101125457Y-66170090D01*
X100988863Y-66343360D01*
X100886131Y-66538620D01*
X100820703Y-66749333D01*
X100794770Y-66968440D01*
X100200500Y-66968440D01*
X100200500Y-66037371D01*
X100203755Y-66008918D01*
X100204043Y-66007676D01*
X100204044Y-66007669D01*
X100205655Y-66000718D01*
X100205656Y-66000000D01*
X100204074Y-65993064D01*
X100204010Y-65992493D01*
X100203836Y-65966133D01*
X100214646Y-65856374D01*
X100219462Y-65832156D01*
X100257758Y-65705912D01*
X100267207Y-65683102D01*
X100329390Y-65566766D01*
X100343112Y-65546230D01*
X100426796Y-65444261D01*
X100444261Y-65426796D01*
X100546230Y-65343112D01*
X100566768Y-65329389D01*
X100636378Y-65292182D01*
X100683103Y-65267206D01*
X100705912Y-65257758D01*
X100832156Y-65219462D01*
X100856373Y-65214646D01*
X100881186Y-65212202D01*
X100973770Y-65203083D01*
X100985905Y-65202497D01*
X100999641Y-65205656D01*
X101013480Y-65202525D01*
X101018310Y-65202533D01*
X101036504Y-65200500D01*
X148962920Y-65200500D01*
X148980242Y-65202466D01*
G37*
%TD.AperFunction*%
%TD*%
M02*
