M48
; DRILL file {KiCad (6.0.10)} date Mon 16 Jan 2023 11:37:59 CET
; FORMAT={-:-/ absolute / inch / decimal}
; #@! TF.CreationDate,2023-01-16T11:37:59+01:00
; #@! TF.GenerationSoftware,Kicad,Pcbnew,(6.0.10)
; #@! TF.FileFunction,Plated,1,2,PTH
FMAT,2
INCH
; #@! TA.AperFunction,Plated,PTH,ViaDrill
T1C0.0079
%
G90
G05
T1
X4.0906Y-3.2874
X4.1768Y-2.887
X4.2195Y-2.6919
X4.2323Y-3.0394
X4.2502Y-2.7406
X4.2559Y-2.6337
X4.2667Y-2.8878
X4.3612Y-3.0384
X4.363Y-2.5992
X4.5102Y-2.5984
X4.54Y-2.7589
X4.5541Y-2.9921
X4.5965Y-3.064
X4.6Y-2.76
X4.62Y-2.8
X4.6472Y-3.9217
X4.69Y-2.8
X4.7244Y-3.5433
X4.7244Y-3.6614
X4.7343Y-3.2756
X4.7362Y-3.9209
X4.7697Y-3.2736
X4.79Y-2.6453
X4.8425Y-4.0551
X4.87Y-2.75
X4.87Y-3.3
X4.88Y-3.15
X4.8894Y-3.6492
X4.9518Y-2.9528
X4.96Y-3.11
X4.9909Y-3.5465
X4.9929Y-4.0551
X5.0538Y-2.6325
X5.0846Y-2.9921
X5.1142Y-2.8583
X5.1299Y-2.6331
X5.18Y-3.57
X5.2173Y-3.3654
X5.24Y-3.57
X5.2417Y-2.6957
X5.2756Y-2.6388
X5.2776Y-2.7638
X5.2776Y-3.063
X5.2785Y-3.0965
X5.28Y-3.01
X5.2953Y-3.4154
X5.3051Y-3.2283
X5.315Y-2.6585
X5.3199Y-2.7648
X5.3386Y-2.874
X5.3396Y-2.9654
X5.3543Y-3.2579
X5.3543Y-3.3662
X5.3543Y-3.4252
X5.3829Y-2.8041
X5.3864Y-2.6486
X5.435Y-2.6191
X5.4764Y-2.6673
X5.4892Y-2.7441
X5.5018Y-2.7854
X5.5433Y-3.0492
X5.5581Y-2.6939
X5.6063Y-3.9134
X5.626Y-2.7559
X5.6437Y-3.0413
X5.6562Y-2.854
X5.6603Y-2.9083
X5.7293Y-2.81
T0
M30
