%TF.GenerationSoftware,KiCad,Pcbnew,(6.0.10)*%
%TF.CreationDate,2023-01-16T11:38:01+01:00*%
%TF.ProjectId,Heart_NE555,48656172-745f-44e4-9535-35352e6b6963,rev?*%
%TF.SameCoordinates,Original*%
%TF.FileFunction,Paste,Bot*%
%TF.FilePolarity,Positive*%
%FSLAX46Y46*%
G04 Gerber Fmt 4.6, Leading zero omitted, Abs format (unit mm)*
G04 Created by KiCad (PCBNEW (6.0.10)) date 2023-01-16 11:38:01*
%MOMM*%
%LPD*%
G01*
G04 APERTURE LIST*
G04 Aperture macros list*
%AMRoundRect*
0 Rectangle with rounded corners*
0 $1 Rounding radius*
0 $2 $3 $4 $5 $6 $7 $8 $9 X,Y pos of 4 corners*
0 Add a 4 corners polygon primitive as box body*
4,1,4,$2,$3,$4,$5,$6,$7,$8,$9,$2,$3,0*
0 Add four circle primitives for the rounded corners*
1,1,$1+$1,$2,$3*
1,1,$1+$1,$4,$5*
1,1,$1+$1,$6,$7*
1,1,$1+$1,$8,$9*
0 Add four rect primitives between the rounded corners*
20,1,$1+$1,$2,$3,$4,$5,0*
20,1,$1+$1,$4,$5,$6,$7,0*
20,1,$1+$1,$6,$7,$8,$9,0*
20,1,$1+$1,$8,$9,$2,$3,0*%
G04 Aperture macros list end*
%ADD10RoundRect,0.250000X0.475000X-0.337500X0.475000X0.337500X-0.475000X0.337500X-0.475000X-0.337500X0*%
%ADD11R,1.200000X1.200000*%
%ADD12RoundRect,0.249999X0.450001X-0.350001X0.450001X0.350001X-0.450001X0.350001X-0.450001X-0.350001X0*%
%ADD13RoundRect,0.150000X-0.825000X-0.150000X0.825000X-0.150000X0.825000X0.150000X-0.825000X0.150000X0*%
%ADD14R,5.000000X3.600000*%
%ADD15RoundRect,0.500000X-1.500000X-0.500000X1.500000X-0.500000X1.500000X0.500000X-1.500000X0.500000X0*%
%ADD16R,0.800000X1.300000*%
%ADD17RoundRect,0.249999X-0.350001X-0.450001X0.350001X-0.450001X0.350001X0.450001X-0.350001X0.450001X0*%
%ADD18R,2.000000X1.300000*%
%ADD19R,2.000000X2.000000*%
%ADD20R,1.950000X1.100000*%
%ADD21RoundRect,0.250000X-0.337500X-0.475000X0.337500X-0.475000X0.337500X0.475000X-0.337500X0.475000X0*%
G04 APERTURE END LIST*
D10*
%TO.C,C3*%
X102616000Y-99843500D03*
X102616000Y-97768500D03*
%TD*%
D11*
%TO.C,D1*%
X126650000Y-72500000D03*
X123350000Y-72500000D03*
%TD*%
%TO.C,D2*%
X126650000Y-68250000D03*
X123350000Y-68250000D03*
%TD*%
D12*
%TO.C,R3*%
X131000000Y-72000000D03*
X131000000Y-70000000D03*
%TD*%
%TO.C,R4*%
X144250000Y-103250000D03*
X144250000Y-101250000D03*
%TD*%
D13*
%TO.C,U1*%
X104967000Y-95377000D03*
X104967000Y-94107000D03*
X104967000Y-92837000D03*
X104967000Y-91567000D03*
X109917000Y-91567000D03*
X109917000Y-92837000D03*
X109917000Y-94107000D03*
X109917000Y-95377000D03*
%TD*%
D14*
%TO.C,BT1*%
X110350000Y-86000000D03*
X139650000Y-86000000D03*
%TD*%
D15*
%TO.C,SW1*%
X114000000Y-101000000D03*
X136000000Y-101000000D03*
%TD*%
D16*
%TO.C,U2*%
X134800000Y-68600000D03*
X136080000Y-68600000D03*
X137340000Y-68600000D03*
X138610000Y-68600000D03*
X139890000Y-68600000D03*
X141160000Y-68600000D03*
X142420000Y-68600000D03*
X143700000Y-68600000D03*
X143700000Y-74900000D03*
X142420000Y-74900000D03*
X141160000Y-74900000D03*
X139890000Y-74900000D03*
X138610000Y-74900000D03*
X137340000Y-74900000D03*
X136080000Y-74900000D03*
X134800000Y-74900000D03*
%TD*%
%TO.C,U3*%
X106050000Y-68600000D03*
X107330000Y-68600000D03*
X108590000Y-68600000D03*
X109860000Y-68600000D03*
X111140000Y-68600000D03*
X112410000Y-68600000D03*
X113670000Y-68600000D03*
X114950000Y-68600000D03*
X114950000Y-74900000D03*
X113670000Y-74900000D03*
X112410000Y-74900000D03*
X111140000Y-74900000D03*
X109860000Y-74900000D03*
X108590000Y-74900000D03*
X107330000Y-74900000D03*
X106050000Y-74900000D03*
%TD*%
D17*
%TO.C,R2*%
X113554000Y-96266000D03*
X115554000Y-96266000D03*
%TD*%
D10*
%TO.C,C2*%
X105675000Y-89425000D03*
X105675000Y-87350000D03*
%TD*%
D18*
%TO.C,RV1*%
X146500000Y-81150000D03*
D19*
X142500000Y-80000000D03*
D18*
X146500000Y-78850000D03*
%TD*%
D20*
%TO.C,SW2*%
X140350000Y-96450000D03*
X146000000Y-96450000D03*
X146000000Y-93950000D03*
X140350000Y-93950000D03*
X146000000Y-91450000D03*
X140350000Y-91450000D03*
%TD*%
D21*
%TO.C,C1*%
X143962500Y-88000000D03*
X146037500Y-88000000D03*
%TD*%
%TO.C,C4*%
X143962500Y-85000000D03*
X146037500Y-85000000D03*
%TD*%
M02*
